<?xml version="1.0" encoding="utf-8"?>
<!-- Generator: Adobe Illustrator 21.0.0, SVG Export Plug-In . SVG Version: 6.00 Build 0)  -->
<svg version="1.1" id="Layer_1" xmlns="http://www.w3.org/2000/svg" xmlns:xlink="http://www.w3.org/1999/xlink" x="0px" y="0px"
	 width="3000px" height="2000px" viewBox="0 0 3000 2000" style="enable-background:new 0 0 3000 2000;" xml:space="preserve">
<style type="text/css">
	.st0{fill:#EDEDEF;}
	.st1{fill:#DFDFE5;}
	.st2{fill:#E8E8ED;}
	.st3{fill:#F9F9F9;}
	.st4{fill:#CACAD8;}
	.st5{fill:#D2D2DB;}
	.st6{fill:#BCBCD3;}
	.st7{fill:#FFCF4A;}
	.st8{fill:#B0B0D1;}
	.st9{fill:#A1A1C6;}
	.st10{fill:#BFBFDB;}
	.st11{fill:#FFFFFF;}
	.st12{fill:#25847F;}
	.st13{fill:#472059;}
	.st14{fill:#E0B13B;}
	.st15{fill:#FFD671;}
	.st16{fill:#D86D68;}
	.st17{fill:#4F1E56;}
	.st18{fill:#59376B;}
	.st19{fill:#64E2E2;}
	.st20{fill:#472B59;}
	.st21{fill:#F48E82;}
	.st22{fill:#643E75;}
	.st23{fill:#622968;}
	.st24{fill:#4FC6C0;}
	.st25{fill:#8C3838;}
	.st26{fill:#840C0C;}
	.st27{fill:#704C84;}
	.st28{fill:#C24DD6;}
	.st29{fill:#A842C1;}
	.st30{fill:#4D434F;}
	.st31{fill:#F4A19A;}
	.st32{fill:#58595B;}
	.st33{fill:#A6ACB2;}
	.st34{fill:#D5DAE0;}
	.st35{fill:#2F1D3A;}
	.st36{fill:#494A4C;}
	.st37{fill:#583C68;}
	.st38{fill:#D844B5;}
	.st39{fill:#EA50BF;}
	.st40{fill:#BF369F;}
	.st41{fill:#DBA92C;}
	.st42{fill:#745289;}
</style>
<g>
	<rect class="st0" width="3000" height="2000"/>
	<path class="st1" d="M2072.9,1213.9c324.5,114.8,642.3,182.9,927.1,206.6V0H579.7C629.2,409.9,1236.4,918.1,2072.9,1213.9z"/>
	<path class="st2" d="M0,8.1v289.1c234.8,78,566.6,126.6,934.5,126.6c711.7,0,1288.7-182,1288.7-406.6c0-3-0.1-6.1-0.3-9.1H0z"/>
	<path class="st3" d="M0,0v213.3c173.3,57.6,418.1,93.4,689.6,93.4c525.2,0,950.9-134.3,950.9-300c0-2.2-0.1-4.5-0.2-6.7H0z"/>
	<path class="st1" d="M0,1653.1V2000h3000v-346.9c-234.9-228-817.9-389.4-1500-389.4S234.9,1425.1,0,1653.1z"/>
	<path class="st4" d="M0.9,1843.3V2000H3000v-157.6c-235.5-227.5-817.9-388.5-1499.1-388.5C818.9,1453.8,235.8,1615.3,0.9,1843.3z"
		/>
	<g>
		<path class="st5" d="M2693.5,186.9h-734.7c0,0,175.9,1011.1,23.3,1419.1c0,0,585.4-30,723.5,15
			C2705.5,1621.1,2570.5,319,2693.5,186.9z"/>
		<path class="st3" d="M2603.5,465.4c4-121.2,14.5-193.5,27.2-238.5h-624.9c13.8,87.5,43.2,287.4,61.7,513.3
			c30.1,367.8,20.1,644.3-29.7,823.3c71.5-2.9,199.1-7.3,325-7.3c134.5,0,232.8,4.7,297.5,14.3c-10.3-107.3-33.1-357.7-46.9-614.9
			C2602.7,755.9,2599.3,591,2603.5,465.4z"/>
		<path class="st5" d="M1861.4,183.8h-734.7c0,0,175.9,1011.1,23.3,1419.1c0,0,585.4-30,723.5,15
			C1873.4,1618,1738.3,315.9,1861.4,183.8z"/>
		<path class="st3" d="M1771.4,462.3c4-121.2,14.5-193.5,27.2-238.5h-624.9c13.8,87.5,43.2,287.4,61.7,513.3
			c30.1,367.8,20.1,644.3-29.7,823.3c71.5-2.9,199.2-7.3,325-7.3c134.5,0,232.8,4.7,297.5,14.3c-10.3-107.3-33.1-357.7-46.9-614.9
			C1770.6,752.8,1767.2,587.9,1771.4,462.3z"/>
		<path class="st5" d="M1029.2,180.7H294.5c0,0,175.9,1011.1,23.3,1419.1c0,0,585.4-30,723.5,15
			C1041.2,1614.9,906.2,312.7,1029.2,180.7z"/>
		<path class="st3" d="M939.2,459.2c4-121.2,14.5-193.5,27.2-238.5H341.6c13.8,87.5,43.2,287.4,61.7,513.3
			c30.1,367.8,20.1,644.3-29.7,823.3c71.5-2.9,199.2-7.3,325-7.3c134.5,0,232.8,4.7,297.5,14.3c-10.3-107.3-33.1-357.7-46.9-614.9
			C938.4,749.7,935.1,584.8,939.2,459.2z"/>
	</g>
	<g>
		<polygon class="st6" points="2034.8,1784.8 2075.5,1784.8 2075.5,954 2182.5,954 2182.5,1784.8 2223.2,1784.8 2223.2,909.6 
			2034.8,909.6 		"/>
		<rect x="1983.7" y="1011.7" class="st6" width="283.4" height="38.7"/>
		<rect x="1983.7" y="1151.2" class="st6" width="283.4" height="38.7"/>
		<rect x="1990.1" y="1306.8" class="st6" width="283.4" height="38.7"/>
		<rect x="1990.1" y="1487.3" class="st6" width="283.4" height="38.7"/>
		<rect x="1953.2" y="989.7" class="st6" width="47.8" height="76.4"/>
		<rect x="2262" y="989.7" class="st6" width="47.8" height="76.4"/>
		<rect x="1946.6" y="1127.1" class="st6" width="54.4" height="86.9"/>
		<rect x="1948.7" y="1276.6" class="st6" width="62" height="99.1"/>
		<rect x="1944.1" y="1450.3" class="st6" width="70.5" height="112.7"/>
		<rect x="2249.8" y="1127.1" class="st6" width="54.4" height="86.9"/>
		<rect x="2240.1" y="1276.6" class="st6" width="62" height="99.1"/>
		<rect x="2236.2" y="1450.3" class="st6" width="70.5" height="112.7"/>
	</g>
	<g>
		<g>
			<g>
				<rect x="688.5" y="1212.4" class="st6" width="648.2" height="22.2"/>
				<path class="st6" d="M669.8,1126.4h-1c-10.3,0-18.7,8.4-18.7,18.7v156.8c0,10.3,8.4,18.7,18.7,18.7h1c10.3,0,18.7-8.4,18.7-18.7
					v-156.8C688.5,1134.8,680.1,1126.4,669.8,1126.4z"/>
				<path class="st6" d="M631.4,1147h-1c-10.3,0-18.7,8.4-18.7,18.7v115.6c0,10.3,8.4,18.7,18.7,18.7h1c10.3,0,18.7-8.4,18.7-18.7
					v-115.6C650.1,1155.4,641.7,1147,631.4,1147z"/>
				<path class="st6" d="M1387.6,1147h-1c-10.3,0-18.7,8.4-18.7,18.7v115.6c0,10.3,8.4,18.7,18.7,18.7h1c10.3,0,18.7-8.4,18.7-18.7
					v-115.6C1406.3,1155.4,1397.9,1147,1387.6,1147z"/>
				<path class="st6" d="M1349.2,1126.4h-1c-10.3,0-18.7,8.4-18.7,18.7v156.8c0,10.3,8.4,18.7,18.7,18.7h1
					c10.3,0,18.7-8.4,18.7-18.7v-156.8C1367.9,1134.8,1359.5,1126.4,1349.2,1126.4z"/>
			</g>
			<rect x="725.4" y="1194.7" class="st6" width="38.7" height="602"/>
			<rect x="1251.9" y="1194.7" class="st6" width="38.7" height="602"/>
		</g>
	</g>
	<g>
		
			<ellipse transform="matrix(0.5061 -0.8625 0.8625 0.5061 -567.0558 2219.3779)" class="st7" cx="1654.3" cy="1604.8" rx="191.1" ry="191.1"/>
		
			<ellipse transform="matrix(0.5061 -0.8625 0.8625 0.5061 -567.0558 2219.3779)" class="st8" cx="1654.3" cy="1604.8" rx="191.1" ry="191.1"/>
		<path class="st9" d="M1569.5,1706.7c-61.7-36.2-95.6-101.7-94.4-168.4c-31.8,85.3,1.2,183.7,82.4,231.4
			c91,53.4,208.1,22.9,261.5-68.1c17.2-29.3,25.7-61.4,26.3-93.1c-3.8,10.3-8.6,20.4-14.3,30.2
			C1777.6,1729.6,1660.5,1760.1,1569.5,1706.7z"/>
		<path class="st10" d="M1751,1440c-54.6-32-118.5-33.9-172.5-10.6c13.8,15.5,30.6,29.5,50.1,40.9c57.9,34,124,36.6,172.2,11.9
			C1787.1,1465.8,1770.5,1451.4,1751,1440z"/>
	</g>
	<path class="st11" d="M696.7,1862.2c0,0,11.9,0.5,19-0.7c1.1-2.9-1.3-5.9-1.3-5.9S702.1,1856.1,696.7,1862.2z"/>
	<path class="st12" d="M710.5,1856c-2.7,1.2-4.4,3.7-3.9,6.1c0,0,0,0.1,0,0.1c3.1-0.1,6.4-0.3,9-0.7c1.1-2.9-1.3-5.9-1.3-5.9
		S712.7,1855.6,710.5,1856z"/>
	<ellipse class="st13" cx="1500" cy="1822" rx="1258.2" ry="68.9"/>
	<g>
		<circle class="st7" cx="1396.5" cy="1546.7" r="241.7"/>
		<circle class="st7" cx="1396.5" cy="1546.7" r="241.7"/>
		<path class="st14" d="M1610.9,1470.4c0,133.5-108.2,241.7-241.7,241.7c-90.5,0-169.3-49.7-210.8-123.3
			c19.9,113.4,118.9,199.6,238,199.6c133.5,0,241.7-108.2,241.7-241.7c0-43-11.2-83.4-30.9-118.4
			C1609.6,1442,1610.9,1456.1,1610.9,1470.4z"/>
		<path class="st15" d="M1201.5,1403.8c25,8.1,52.3,12.6,80.8,12.6c84.9,0,158.6-39.5,195.5-97.3c-25.4-9.1-52.8-14.1-81.4-14.1
			C1316.4,1305,1245.5,1343.9,1201.5,1403.8z"/>
	</g>
	<g>
		<path class="st16" d="M1196.2,1030.4c-32.5,10.4,61.9,191.7,69.6,216.9c7.6,25.2,48.6,146,66.5,171.4l24.6-6.8
			c0,0-29.8-120-58.4-181.4C1269.8,1169.1,1279.4,1003.9,1196.2,1030.4z"/>
		<path class="st17" d="M1195.9,1343.4l-92.7,71.9c0,0,163,86.6,235,86.6c-48.9,49.7-29.6,186.3-39.9,248h39.4
			c0.9-76.3,84-245.2,73.7-273.5S1305.6,1364.7,1195.9,1343.4z"/>
		<path class="st18" d="M1151.5,815.6c-24.5-12.2-64.5,5.3-84.5,30.9c-19.2,24.6-2.8,52.1,21.8,64.3c24.5,12.2,55.7-0.5,69.7-28.4
			C1172.4,854.6,1176.1,827.9,1151.5,815.6z"/>
		<circle class="st19" cx="1139.1" cy="852.5" r="25.1"/>
		<path class="st20" d="M1124.9,890.8c0,0-5.4,68.3,63.4,67.7l10.6-94.9l-37,5.7L1124.9,890.8z"/>
		<path class="st16" d="M1223.9,968.6c0,0-30.1-35.3-37.3-15.6c-7.2,19.7-13.2,76.5-13.2,76.5l50.9,5.4
			C1224.3,1034.8,1217.5,998.9,1223.9,968.6z"/>
		<path class="st20" d="M1259.4,846.7l4.7,43.9c0,0,10.4,2.3,16.8-8.1V864l-10.7-20.3L1259.4,846.7z"/>
		<path class="st21" d="M1263.9,831.6l-52.2-9.5l-37.2,29.1l-4.4,73.8c0,0,0,43.9,81,53.2c7.5,0.9,14.6-3.4,17.3-10.4
			c9.7-25.8,12.2-58.9,6.1-75C1267.4,874.3,1272.4,848.7,1263.9,831.6z"/>
		<path class="st22" d="M1214.5,809c-17.7-6-41.1,0-67,16.9c-26,16.9-50.5,56.5-17.7,68.2c32.8,11.7,89.3,6,103-68.2
			C1232.8,825.9,1232.2,815,1214.5,809z"/>
		<path class="st22" d="M1244.7,810.9c-38-8.3-50.1,0-50.1,0l38.3,15c31.4,35.4,49.1,30.2,48,56.5
			C1300,848.9,1282.7,819.2,1244.7,810.9z"/>
		<path class="st21" d="M1146,909.6c8.7,18.5,24.1,15.4,24.1,15.4l1.6-27.5C1153.5,877.5,1137.3,891.1,1146,909.6z"/>
		<path class="st23" d="M1223.1,1027.9c-34.7-8.2-76.5-12-88.7,40.1c-12.2,52.1,14.8,183.3-46.9,232.2
			c-61.7,48.9-84.2,15.4-94.5,104.8c-43.1,71.4-70.1,90.7-102.9,153.1c-60.5,3.2-178.8,126.7-237.3,149.2l16.1,23.2
			c0,0,197.4-112.5,263.7-127.3c74-30.2,255.3-245.7,255.3-245.7s61.1-82.3,72-162.1l24-23.6c8.3-8.1,9.5-21.1,2.8-30.6
			C1269.9,1117.2,1239.4,1070.7,1223.1,1027.9z"/>
		<path class="st19" d="M1223.1,1027.9c-34.7-8.2-76.5-12-88.7,40.1c-12.2,52.1,14.8,183.3-46.9,232.2c-13.4,10.6-25,17.4-35,22.3
			c52.8,46,110.5,34.5,145.7,19.8c17.9-27.4,53.6-87.9,61.7-147l27-26.5c6.6-6.5,7.5-16.9,2.2-24.5
			C1272.8,1121.6,1240.2,1072.7,1223.1,1027.9z"/>
		<path class="st24" d="M1182.6,1174.9l33.9,29.2l-19.7,6.4l21.9,2.1c0,0-6.5,101-57.9,140.5c0,0,0,0,0,0c14-2.4,26.7-6.5,37.4-11
			c17.9-27.4,53.6-87.9,61.7-147l28.4-28.1C1203.3,1190,1182.6,1174.9,1182.6,1174.9z"/>
		<path class="st25" d="M1262.6,921.3c-1.5-2.3-2.9-4.7-4.2-7c-1.3-2.4-2.4-4.8-3.4-7.3c-0.8-2.5-1.6-5.1-1.3-7.9
			c-0.7,1.4-1,2.8-1.2,4.2c-0.1,1.4-0.1,2.9,0.1,4.3c0.4,2.8,1.3,5.5,2.4,8.1c1.1,2.6,2.5,5,4,7.4c1.4,2.1,2.8,4.1,4.5,6
			c-0.6,0.6-1.3,1.1-2.1,1.6c-1.1,0.8-2.3,1.5-3.6,2.1c-1.3,0.6-2.6,1.2-4,1.6c-1.4,0.5-2.8,0.9-4.3,1.2c1.5,0.1,3,0,4.5-0.2
			c1.5-0.2,3.1-0.5,4.6-1c1.5-0.5,3-1.1,4.4-1.8c1.4-0.7,2.7-1.6,3.9-2.6l0.9-0.7l-0.7-1C1265.6,925.9,1264.1,923.6,1262.6,921.3z"
			/>
		<path class="st25" d="M1229.2,884.6c-0.7,0.1-1.4,0.2-2,0.3c-2.7,0.4-5.4,1-8,1.8c-2.6,0.8-5.2,1.8-7.7,3.1
			c-2.4,1.3-4.6,3-6.3,4.8c2.1-1.5,4.5-2.7,6.9-3.6c2.4-0.8,4.9-1.3,7.4-1.6c2.5-0.3,4.9-0.3,7.3-0.3c0.6,0,1.2,0,1.8,0.1
			c0.6,0,1.2,0.1,1.8,0.1c1.1,0.1,2.4,0.3,3.4,0.4l1.8-5.7c-1.5,0-2.8,0.1-4.2,0.2C1230.6,884.4,1229.9,884.5,1229.2,884.6z"/>
		<path class="st25" d="M1264.3,883.3c-1.5-0.1-2.9-0.1-4.5,0.1c-0.4,0-0.8,0.1-1.1,0.1c-0.4,0-0.8,0.1-1.1,0.2
			c-0.8,0.1-1.5,0.3-2.3,0.5l0.8,3.6c0.6-0.3,1.3-0.6,1.9-0.9c0.3-0.1,0.7-0.3,1-0.4c0.3-0.1,0.7-0.2,1-0.4c1.3-0.4,2.7-0.8,4.1-1
			c1.4-0.2,2.7-0.3,4.1-0.1c1.3,0.2,2.6,0.6,3.7,1.3c-0.9-1-2.1-1.8-3.4-2.3C1267.2,883.7,1265.7,883.4,1264.3,883.3z"/>
		<path class="st26" d="M1234.2,948.1c7.6,6.5,27.1,6.7,27.1,6.7l-1.6-7.7l5.4-3.2C1265.1,943.8,1246.2,948.9,1234.2,948.1z"/>
		<path class="st27" d="M1161.6,874.4c51.4,0.1,62.8-46.9,62.8-46.9C1182.4,826.1,1161.6,874.4,1161.6,874.4z"/>
		<path class="st27" d="M1070.1,857.1c0,0,20.9-24.7,61.5-38.7C1131.6,818.4,1087,816.8,1070.1,857.1z"/>
		<path class="st28" d="M933.6,1490.2c-9.3,12.4-18.2,24.8-27.3,39.4c0,0,84.4,25.4,117,4.1c16-15.1,32.4-31.5,48.4-48
			C1071.6,1485.8,1000.8,1519.6,933.6,1490.2z"/>
		<polygon class="st28" points="1071.6,1485.8 1071.6,1485.8 1071.6,1485.8 		"/>
		<path class="st28" d="M942.8,1477.9c-1.6,2.2-3.3,4.3-4.9,6.5c12.7,5.6,61.3,22.5,139.6-4.7l7.9-8.3
			C1085.4,1471.4,1000.4,1501.5,942.8,1477.9z"/>
		<path class="st21" d="M739.4,1649.5L739.4,1649.5c-33.3,25.7-64.4,49.1-86.7,57.7l16.1,23.2c0,0,39.9-22.7,89.8-49.1l0,0
			C741.7,1676.3,739.4,1649.5,739.4,1649.5z"/>
		<path class="st19" d="M748.4,1642.5c-3.1,2.4-6.2,4.8-9.3,7.2c1.3,10.5,5.6,28.7,19.5,31.5h0c3.8-2,7.6-4,11.5-6.1
			C766.3,1672.4,750.3,1669.5,748.4,1642.5z"/>
		<path class="st16" d="M1223.1,1027.9l-11.4-5.5l-12.6,0.7c0,0,44.9,86.7,47.5,95.1c2.5,8.4,15.7,2.6,14.7-2.8
			C1259.6,1106.4,1223.1,1027.9,1223.1,1027.9z"/>
		<path class="st29" d="M1301.6,1382.9c0,0,11.3,69.9,0,114c8.3,1.7,21.9,4.2,29,4.7c0-0.1,14.8-35.7,0-101.4
			C1321.4,1394.3,1311.8,1388.5,1301.6,1382.9z"/>
		<g>
			<g>
				<path class="st16" d="M1330.6,1422.9c0,0,31.2,12.6,31.5,11.4c0.4-1.2,5.9-12.9,5.9-12.9l-30-10.6
					C1331.8,1419.8,1330.6,1422.9,1330.6,1422.9z"/>
				<path class="st16" d="M1328.6,1453.4c3.2-3.9,10.6-30.1,10.6-30.1l-8.6-0.3C1326.9,1436.2,1327.8,1450.1,1328.6,1453.4z"/>
				<path class="st16" d="M1334.1,1457.8c3.6-3.9,12.3-30.8,12.3-30.8l-8.6-1.9C1333.7,1438.3,1333.2,1454.5,1334.1,1457.8z"/>
				<path class="st16" d="M1340.1,1457.5c3.8-3.4,15.1-29.3,15.1-29.3l-7.9-2.8C1341.9,1438.1,1339.6,1454.1,1340.1,1457.5z"/>
				<path class="st16" d="M1350.7,1456.1c3.1-2.8,12.3-23.8,12.3-23.8l-6.4-2.3C1352.2,1440.3,1350.3,1453.4,1350.7,1456.1z"/>
			</g>
		</g>
		<g>
			<g>
				<path class="st21" d="M1164.2,1027.5c-27.2,20.1,75.8,186.6,85.3,211.2c9.5,24.6,59.2,147.2,78.9,171.2l21.4-3.4
					c0,0-36-127.8-69-186.9C1247.8,1160.4,1230.8,978.4,1164.2,1027.5z"/>
				<path class="st21" d="M1349.8,1406.4l-21.4,3.4c9.9,17.6,42.6,20.4,42.6,20.4l6.2,5.4c0,0,3.1-4.7-2.9-12.9
					C1368.3,1414.6,1349.8,1406.4,1349.8,1406.4z"/>
			</g>
		</g>
		<path class="st29" d="M1288.9,1376.2c10.8,96.1-4.9,116.2-4.9,116.2l11,3.1c13.4-36.8-0.3-116.4-0.3-116.4L1288.9,1376.2z"/>
		<path class="st21" d="M1303.2,1637.3c-1.5,42.9-0.2,85.2-4.8,112.7h39.4c0.3-28.2,11.9-69.1,25.8-110.9
			C1339.9,1646,1316.4,1641.3,1303.2,1637.3z"/>
		<path class="st19" d="M1304,1618c-0.4,6.4-0.7,12.9-0.9,19.3c10.4,4.3,34.8,9,60.5,1.8l0,0c1.9-5.7,3.8-11.3,5.8-17l0-0.1
			C1369.5,1622,1332.1,1626.3,1304,1618z"/>
		<g>
			<path class="st30" d="M674.9,1763.8c-6.1-18-6.1-33.4-6.1-33.4l-16.1-23.2c-32.8,1.9-45,18.6-45,18.6s21.2,66.9,67.5,66.9
				s66.9,0,66.9,0C739.5,1775.4,681,1781.8,674.9,1763.8z"/>
			<path class="st28" d="M736,1785.4c-10.5,0-28.7,0-55.6,0c-41.8,0-63.2-54.5-66.9-65.1c-4,3.1-5.8,5.5-5.8,5.5
				s21.2,66.9,67.5,66.9s66.9,0,66.9,0C741.6,1789.6,739.4,1787.3,736,1785.4z"/>
			<path class="st28" d="M607.7,1725.9c0,0,4.2,13.3,13.1,28.1c2.5-1.2,5.4-2.5,8.6-4c26.3-12.3,16.8-42.1,16.7-42.1
				C618.2,1711.4,607.7,1725.9,607.7,1725.9z"/>
			<path class="st28" d="M705.7,1777.8c0,0-7,1.2-5.6,15c28.9,0,42,0,42,0C740.7,1783.3,722.7,1780.9,705.7,1777.8z"/>
			<polygon class="st28" points="660.3,1737.4 660.7,1744.3 672.4,1742.2 672.3,1738.3 			"/>
			<polygon class="st28" points="661.6,1750 663.8,1756.5 674.6,1751.3 673.3,1747.7 			"/>
			<polygon class="st28" points="664.7,1762 668.7,1767.7 677.5,1759.6 675.3,1756.4 			"/>
		</g>
		<g>
			<path class="st30" d="M1337.8,1750h-39.4c-16.1,28-10.9,42.8-10.9,42.8h160.1C1436,1770.9,1346.4,1783.1,1337.8,1750z"/>
			<path class="st28" d="M1436.8,1784.6h-149.4c0,0-0.3-0.9-0.6-2.8c-0.7,7.2,0.6,10.9,0.6,10.9h160.1
				C1445.7,1789.3,1441.9,1786.7,1436.8,1784.6z"/>
			<polygon class="st28" points="1347.6,1772.8 1353.8,1776 1357.9,1764.8 1354.5,1763 			"/>
			<polygon class="st28" points="1337.8,1763.9 1342.5,1769 1350.2,1759.9 1347.6,1757 			"/>
			<polygon class="st28" points="1362.7,1765.2 1360.5,1776.9 1367.4,1777.4 1366.6,1765.4 			"/>
			<path class="st28" d="M1294.4,1757.5c-11.1,23.1-6.9,35.2-6.9,35.2h31.7C1319,1762,1294.4,1757.5,1294.4,1757.5z"/>
			<path class="st28" d="M1407.9,1778L1407.9,1778c0,0-5.5,4-5.1,14.7h44.8C1443.1,1784.2,1426.7,1780.9,1407.9,1778z"/>
		</g>
		<path class="st11" d="M1211.8,902.1c0,0,11.1,4.2,19.8,1.3c0,0,2.3-1.5,1.1-6.9C1232.7,896.5,1229,893.3,1211.8,902.1z"/>
		<path class="st25" d="M1225.6,895.2c-2.4,0.8-4.4,2-6.5,3c-2.1,1-4.3,1.9-6.6,2.1c-2.3,0.3-4.7-0.3-6.8-1.3
			c2.1,1.1,4.4,1.9,6.8,1.8c2.4,0,4.8-0.8,7-1.6c2.2-0.8,4.4-1.9,6.6-2.4c1.1-0.3,2.2-0.4,3.3-0.5c1.1-0.1,2.3-0.1,3.2,0.1l0.1-2.3
			C1230.2,894,1228,894.5,1225.6,895.2z"/>
		<path class="st25" d="M1231.4,896c-0.2,0-0.3,0-0.5,0c-2.3,0-4.2,1.9-4.2,4.2c0,1.7,1,3.1,2.4,3.8c0.8-0.2,1.7-0.4,2.5-0.6
			c0,0,2.3-1.5,1.1-6.9C1232.7,896.5,1232.3,896.2,1231.4,896z"/>
		<circle class="st11" cx="1231.2" cy="898.5" r="1"/>
		<path class="st11" d="M1256.5,899c7.1,4.6,13.3,2.4,13.3,2.4c1.6-3,0.2-7.7,0.2-7.7C1262.2,893.8,1256.5,899,1256.5,899z"/>
		<path class="st25" d="M1269.8,893.8c-0.1,0-0.2,0-0.3,0c-2.6,0.1-4.7,2.2-4.7,4.9c0,1.2,0.5,2.3,1.2,3.2c2.3,0,3.8-0.4,3.8-0.4
			c1.6-2.9,0.4-7.2,0.3-7.6C1270,893.9,1269.9,893.8,1269.8,893.8z"/>
		
			<ellipse transform="matrix(0.9999 -1.611334e-02 1.611334e-02 0.9999 -14.2759 20.562)" class="st11" cx="1268.9" cy="896.2" rx="1" ry="1"/>
		<path class="st25" d="M1269.6,893.1c-0.7,0.3-4-0.2-7.2,1.1s-6,4.8-6,4.8c5.3-4.7,13-5.2,13.5-5.2c0.5,0,0.9-1.8,0.9-1.8
			S1270.3,892.7,1269.6,893.1z"/>
		
			<ellipse transform="matrix(0.9924 -0.1227 0.1227 0.9924 -101.7938 148.3349)" class="st31" cx="1153.8" cy="900.9" rx="4.7" ry="7.7"/>
		
			<ellipse transform="matrix(0.3722 -0.9281 0.9281 0.3722 -211.459 1753.1506)" class="st31" cx="1190.3" cy="1032.9" rx="6.4" ry="10.6"/>
		<path class="st16" d="M1232.8,825.9c0,0,20.2,36.2,37.1,39.4l-0.5-7.4C1269.5,857.9,1254.7,848.5,1232.8,825.9z"/>
	</g>
	<g>
		<g>
			<g>
				<path class="st21" d="M1761.1,993.9c-55.9-17.4-173.5-20-173.5-20l-6.6,22c0,0,141.9,46.2,197.7,42.5c0,0,61.3-60.5,90.5-191.9
					l-61.4-30.4C1807.8,816.1,1791.7,959.5,1761.1,993.9z"/>
				<path class="st21" d="M1544.1,924.7l-14,16.5c4.6,4.3,15.9-5.2,15.9-5.2l11.5,6.7c-2.9-0.6-5.4,0.4-7.5,2.2l0,0v26.4
					c1.6,7.4,8.2,27.5,31,24.6l6.6-22c0,0-10.4-28.9-16-35.4C1566.1,932.1,1544.1,924.7,1544.1,924.7z"/>
			</g>
			<polygon class="st32" points="1509.9,890.8 1614.6,1024.4 1673,1010.1 1569.9,871.7 			"/>
			<g>
				<path class="st21" d="M1551.1,943.8l0.4,2.1c0,0-3.8,9.6,13.9,7.4c24.5-3.1,23.3-17.7,23.3-17.7
					C1581.5,940.1,1551.1,943.8,1551.1,943.8z"/>
				<path class="st21" d="M1556.4,953.3l0.4,2.1c0,0-3.8,9.6,13.9,7.4c24.5-3.1,23.3-17.7,23.3-17.7
					C1586.8,949.5,1556.4,953.3,1556.4,953.3z"/>
				<path class="st21" d="M1561.3,962.3l0.4,1.8c0,0-3.4,8.5,12.3,6.5c21.7-2.8,20.6-15.7,20.6-15.7
					C1588.2,959,1561.3,962.3,1561.3,962.3z"/>
				<path class="st21" d="M1566.2,970.9l0.3,1.5c0,0-2.9,7.2,10.4,5.5c18.4-2.4,17.5-13.3,17.5-13.3
					C1589,968.1,1566.2,970.9,1566.2,970.9z"/>
			</g>
			<polygon class="st33" points="1554.1,865.6 1543.6,863.5 1526.3,867.8 1512,889.5 1512.3,890 1569.9,871.7 1569.8,871.5 			"/>
			<path class="st34" d="M1450,970.9l59.9,2.3c-10.7-123,43.8-108.2,57.1-102.9C1446.2,817.4,1450,970.9,1450,970.9z"/>
			<path class="st34" d="M1569.9,871.7c0,0-1-0.6-2.9-1.3C1568,870.8,1569,871.2,1569.9,871.7z"/>
			<path class="st33" d="M1626,927.4c-18.9-58-56.1-55.7-56.1-55.7l95.9,128.8l23.8-34.6C1689.6,965.9,1644.9,985.4,1626,927.4z"/>
			<path class="st34" d="M1626,927.4c-18.9-58-56.1-55.7-56.1-55.7l2.6,3.5c10.6,1.5,36.7,9.9,51.5,55.4c18.1,55.7,60,40,63.3,38.6
				l2.2-3.3C1689.6,965.9,1644.9,985.4,1626,927.4z"/>
		</g>
		<path class="st35" d="M1769,579.9l-27.7,48.8c3.5,78.3,41.6,137.2,12.7,172.5c23.1-0.6,31.8-15,31.8-15l-2.3,15
			c0,0,45.6,4,70.5-24.3c24.8-28.3,33.5-156.6,33.5-156.6l-33.5-46.8L1769,579.9z"/>
		<path class="st36" d="M1734.7,1437.1c-1.5,4.7-1.1,9.8,1.1,14.2l146.2,283.8h29.2c0,0-60.1-242.5-115.1-291.4
			c0,0,83.6-104.4,157.7-214.6l5.9-67.7l-125.5,2.7C1796.6,1249,1746.2,1401.9,1734.7,1437.1z"/>
		<path class="st21" d="M1994.8,769.5c0,0-21.2-17.3-78.7-26.9c0,0-98.8,39.7-108.3,73.6c35.2,85.5,63.4,205.7,62.7,248.8
			c-0.8,43.1-28.9,69.7-37.7,104.3c155.2,49.1,243.4-7.8,243.4-7.8c4.8-72-30.5-117.9-46.3-167.5
			C2014,944.3,1994.8,769.5,1994.8,769.5z"/>
		<polygon class="st16" points="1826.2,747.6 1854.7,783 1883.5,759.2 1858.1,717.2 		"/>
		<path class="st21" d="M1750,626.9c-0.1,9.2,8.9,28,8.7,38.2c-0.8,50.9,18.8,79,30,90.8c4.3,4.6,10.7,6.5,16.9,5.3
			c58.9-12,76.5-59.1,76.5-59.1l12.2-104.7l-122.6,4.7L1750,626.9z"/>
		<path class="st37" d="M1925.8,740.2c-0.9-41.3-12.4-52.6-11.9-90.4c0.6-37.8-44.5-13.3-44.5-13.3c11,63-39.9,137.7-12.1,174.3
			l2.7-22.9c0,0-2.1,31.2,25.1,56C1879.3,820.8,1926.7,781.5,1925.8,740.2z"/>
		<path class="st37" d="M1730.8,636.5c0,0,93.7-8.4,110.7-37l6.8-52.2C1760.9,534.8,1725,588.5,1730.8,636.5z"/>
		<path class="st37" d="M1848.4,547.2l-6.8,52.2c4.9,44.8,40.6,63,72.4,50.3C1917.4,590.9,1904.7,545.4,1848.4,547.2z"/>
		<g>
			<path class="st38" d="M1882,1735.1c-17.8,16.7-107.3,12.1-111.7,43.7h151.3c1.1-20.1-10.4-43.7-10.4-43.7H1882z"/>
			<rect x="1770.4" y="1778.7" class="st36" width="151.4" height="8.9"/>
			<g>
				<path class="st36" d="M1877.9,1778.7h3.5c5.5-24.4,28-29.8,35-30.9c-0.4-1.2-0.8-2.2-1.2-3.3
					C1907,1746.1,1883.4,1752.7,1877.9,1778.7z"/>
				<path class="st36" d="M1805.8,1754.6c-1.4,0.4-2.8,0.7-4.2,1.1c8.9,6.3,11.8,16.7,12.8,23h3.5
					C1817,1772.4,1814.2,1761.8,1805.8,1754.6z"/>
			</g>
			<g>
				
					<rect x="1830.6" y="1745.3" transform="matrix(0.9686 -0.2486 0.2486 0.9686 -378.1938 511.0789)" class="st36" width="6.9" height="14.7"/>
				
					<rect x="1841.6" y="1743.8" transform="matrix(0.9686 -0.2487 0.2487 0.9686 -377.5427 513.9059)" class="st36" width="6.9" height="14.7"/>
				
					<rect x="1852.6" y="1742.2" transform="matrix(0.9686 -0.2487 0.2487 0.9686 -376.8279 516.6195)" class="st36" width="6.9" height="14.7"/>
				
					<rect x="1863.7" y="1740.7" transform="matrix(0.9686 -0.2486 0.2486 0.9686 -376.0139 519.1523)" class="st36" width="6.9" height="14.7"/>
			</g>
		</g>
		<g>
			<path class="st39" d="M1977.3,1735.1c-17.8,16.7-106.3,12.1-110.6,43.7H2018c1.1-20.1-9.6-43.7-9.6-43.7H1977.3z"/>
			<rect x="1866.7" y="1778.7" class="st32" width="151.4" height="8.9"/>
			<g>
				<path class="st32" d="M1974.2,1778.7h3.5c5.5-24.4,28.4-29.8,35.3-31c-0.4-1.2-0.7-2.3-1.1-3.3
					C2003.7,1746,1979.7,1752.7,1974.2,1778.7z"/>
				<path class="st32" d="M1902.1,1754.6c-1.4,0.4-2.8,0.7-4.2,1.1c8.9,6.3,11.8,16.7,12.8,23h3.5
					C1913.3,1772.4,1910.5,1761.8,1902.1,1754.6z"/>
			</g>
			<g>
				
					<rect x="1926.9" y="1745.3" transform="matrix(0.9686 -0.2487 0.2487 0.9686 -375.1792 535.042)" class="st32" width="6.9" height="14.7"/>
				
					<rect x="1937.9" y="1743.8" transform="matrix(0.9686 -0.2487 0.2487 0.9686 -374.5071 537.8376)" class="st32" width="6.9" height="14.7"/>
				
					<rect x="1948.9" y="1742.2" transform="matrix(0.9686 -0.2487 0.2487 0.9686 -373.8116 540.5895)" class="st32" width="6.9" height="14.7"/>
				
					<rect x="1960" y="1740.7" transform="matrix(0.9686 -0.2486 0.2486 0.9686 -372.9895 543.097)" class="st32" width="6.9" height="14.7"/>
			</g>
		</g>
		<path class="st32" d="M1870.3,1067.8c-1.9,41.4-29,67.7-37.6,101.4c36.2,11.5,68.8,17.2,97.5,19.1
			c-24.4,105.5-37.3,201.2-41.3,234.2c-1,8-0.3,16,2,23.7l86.4,288.8h31.1c0,0-22.3-227.1-58.6-289.5c0,0,115.5-174.4,126.4-284.2
			c3.7-54.8-15.9-94.4-32.5-132.1C1973.5,1084.3,1903.5,1076.3,1870.3,1067.8z"/>
		<path class="st32" d="M1832.7,1167.5c-42.6,97.3-98,269.6-98,269.6s87.1-259.6,195.4-248.7L1832.7,1167.5L1832.7,1167.5z"/>
		<path class="st16" d="M2010.8,959.3c0,0-9.3,76.5-27.4,103.5l49.3-60.4c0,0-8.3-21-12.3-48.9L2010.8,959.3z"/>
		<g>
			<path class="st21" d="M1994.8,769.5l7.5,91.6c0,0,54.5,43.9,69.6,91.7c-47.5,42.6-115.5,151-115.5,151l16.8,18.4
				c0,0,122.4-106.7,150.1-161C2123.3,961.2,2101.2,870.1,1994.8,769.5z"/>
			<path class="st21" d="M1914.4,1098.9c-9.1,1.6-28.3,17.9-28.3,17.9l7.5,22.3c6.6-1.9,4-17.8,4-17.8l12.6-7
				c-7.2,7.9,4.4,22,8.5,27s13.5,10.7,13.5,10.7c6.3-4.4-2.2-15.7-2.2-15.7s30.8,13.8,43.1-14.1l-16.8-18.4
				C1956.4,1103.7,1923.6,1097.3,1914.4,1098.9z"/>
		</g>
		<path class="st16" d="M1808.5,998.9c0,0,23-37.2,30.6-58.4l-11.9-13.1C1827.2,927.4,1814.7,987.9,1808.5,998.9z"/>
		<g>
			<path class="st39" d="M1946.3,749.1c-4.1-1.1-8.5-2.2-13.1-3.2c0.6,51.1-4.1,102.5-55.6,106.1c-39.4,2.8-43.6-36.3-40.7-67.8
				c-2.6,1.9-5.2,3.7-7.6,5.6v0c-4.9,25.6-6,50-5.7,68.6l0,54.8c0,8.9,4,17.3,10.9,22.9l16.2,13.2c3.4,13.6,6.5,26.8,9.2,39.3
				c0,0,81.9,15.1,160.5-35.3c-4.7-25.3-9.4-56.3-13.4-85.6C1988.6,850.5,1951.5,808.6,1946.3,749.1z"/>
			<path class="st7" d="M2017.3,935.7c-5.5,4.5-58.5,45.4-160.1,38.1l-0.2,1.2c1,4.5,2,8.9,2.9,13.2c4.1,0.7,10.8,1.7,19.5,2.3
				c26.2,1.2,75.3-1.2,125.4-28c5.2-3,10.4-6.2,15.6-9.8l0-0.1C2019.3,947.3,2018.3,941.6,2017.3,935.7z"/>
			<g>
				<g>
					<path class="st40" d="M1832.2,934.1l18.6,15.4c73.6-1.9,112.1-28.9,112.1-28.9l-27.7,1.5l30-21.2
						C1892.7,942.8,1832.2,934.1,1832.2,934.1z"/>
					<path class="st40" d="M1892.7,885.9c-15.5,0.5-29.3,5.2-29.3,5.2S1876.5,892.8,1892.7,885.9z"/>
					<g>
						<path class="st40" d="M1995.6,897.4l5.7-5c0,0,2.9,30.3,9.4,66.6l9.6-6.2c-4.7-25.2-9.3-55.9-13.3-84.9L1995.6,897.4z"/>
					</g>
				</g>
				<path class="st41" d="M2007.9,942.3l2.9,17l9.6-5.9l-3.2-17.7C2017.3,935.7,2010.2,940.5,2007.9,942.3z"/>
			</g>
		</g>
		<path class="st7" d="M1931.5,1582.1l45.8,152.9h31.1c0,0-15.2-154.1-40.8-243.3C1961.5,1499.9,1931.1,1542.7,1931.5,1582.1z"/>
		<path class="st7" d="M1811.1,1597.3l70.9,137.7h29.2c0,0-37.6-151.6-80.5-239.2C1830.8,1495.9,1812.1,1519.5,1811.1,1597.3z"/>
		<g>
			<path class="st25" d="M1793.5,705.4c-1.7-0.5-3.2-1.1-4.7-1.8c-1-0.5-1.9-1-2.8-1.6c1.6-2.7,3-5.4,4.3-8.1
				c1.4-3.2,2.6-6.4,3.5-9.8c0.8-3.3,1.4-6.7,1.3-10.2c0-1.7-0.2-3.5-0.7-5.2c-0.4-1.7-1.1-3.4-2.2-4.9c0.8,3.4,0.5,6.6-0.1,9.8
				c-0.6,3.2-1.6,6.4-2.7,9.5c-1.1,3.1-2.3,6.2-3.7,9.3c-1.3,3.1-2.7,6.2-4.2,9.2l-0.6,1.3l1.3,0.7c1.6,0.9,3.4,1.8,5.2,2.4
				c1.8,0.6,3.7,1.1,5.6,1.4c1.9,0.3,3.8,0.4,5.7,0.4c1.9-0.1,3.8-0.2,5.5-0.6c-1.9-0.1-3.7-0.3-5.4-0.6
				C1796.8,706.3,1795.1,705.9,1793.5,705.4z"/>
			<path class="st25" d="M1831.5,642.3c-3.4-0.5-6.7-0.6-10.1-0.6c-0.8,0-1.7,0-2.5,0c-0.8,0-1.7,0.1-2.5,0.1
				c-1.7,0.1-3.3,0.2-5.1,0.5l3.3,6.6c1.1-0.4,2.6-0.8,4-1.2c0.7-0.2,1.4-0.4,2.1-0.5c0.7-0.2,1.4-0.3,2.1-0.4
				c2.9-0.5,5.9-0.9,8.9-1.1c3-0.1,6.1,0,9.2,0.5c3.1,0.6,6.1,1.5,9,3c-2.5-1.9-5.4-3.5-8.5-4.6
				C1838.2,643.5,1834.9,642.8,1831.5,642.3z"/>
			<path class="st25" d="M1782,646c-0.6,0-1.2,0-1.7,0.1c-2.3,0.1-4.6,0.4-6.7,1c-2.2,0.6-4.2,1.3-6.1,2.4c-1.8,1.1-3.4,2.6-4.5,4.3
				c1.5-1.4,3.4-2.3,5.3-3c2-0.6,4.1-0.8,6.2-0.8c2.1,0,4.3,0.2,6.4,0.5c0.5,0.1,1.1,0.2,1.6,0.3c0.5,0.1,1.1,0.2,1.6,0.3
				c1,0.2,2.2,0.5,3.1,0.8l0.3-5.8c-1.3-0.2-2.4-0.2-3.6-0.2C1783.2,645.9,1782.6,645.9,1782,646z"/>
			<path class="st11" d="M1817.1,656.7c-0.4,6.8,2.7,8.1,2.7,8.1c11,1.9,23.7-5.3,23.7-5.3C1820.9,652.1,1817.1,656.7,1817.1,656.7z
				"/>
			<path class="st25" d="M1833.8,656.2c-2.7-0.8-5.5-1.9-8.5-2.3c-3-0.4-5.7-0.6-8.9,0.1l0.6,2.7c1.1-0.4,2.6-0.6,3.9-0.8
				c1.4-0.1,2.8-0.1,4.1,0c2.8,0.2,5.5,1,8.4,1.6c2.8,0.6,5.8,1.1,8.8,0.6c3-0.4,5.7-1.8,7.9-3.5c-2.4,1.6-5.2,2.7-8,2.8
				C1839.4,657.7,1836.6,657,1833.8,656.2z"/>
			<path class="st25" d="M1819.2,655.8c-0.2,0-0.4,0.1-0.6,0.2c-1.1,0.4-1.5,0.8-1.5,0.8c-0.4,6.8,2.7,8.1,2.7,8.1
				c1,0.2,2.1,0.3,3.1,0.3c1.6-1.1,2.5-3,2.2-5.1C1824.6,657.2,1822,655.3,1819.2,655.8z"/>
			
				<ellipse transform="matrix(0.9876 -0.1568 0.1568 0.9876 -80.7927 293.3186)" class="st11" cx="1819.2" cy="658.9" rx="1.2" ry="1.2"/>
			<path class="st11" d="M1768.6,660.6c0,0-1,5.9,1.9,9.2c0,0,9.2,1.4,18.2-5.5C1788.7,664.3,1779.6,659.2,1768.6,660.6z"/>
			<path class="st25" d="M1769.3,660.6c-0.1,0-0.3,0-0.4,0c-0.1,0-0.3,0.1-0.4,0.1c-0.1,0.5-0.7,6,2.1,9.2c0,0,2.2,0.3,5.4-0.2
				c0.9-1.2,1.3-2.6,1-4.1C1776.5,662.4,1773,660.2,1769.3,660.6z"/>
			<path class="st11" d="M1770.5,662.1c-0.8,0.1-1.3,0.7-1.2,1.4c0.1,0.7,0.8,1.1,1.6,1c0.8-0.1,1.3-0.7,1.2-1.4
				S1771.3,662,1770.5,662.1z"/>
			<path class="st25" d="M1768.9,659.7c-1.1-0.3-2-1.1-2-1.1s0.9,2,1.6,2c0.8-0.1,11.7-0.9,20.1,3.7c0,0-4.7-3.7-9.5-4.7
				C1774.5,658.6,1770,660,1768.9,659.7z"/>
			<path class="st26" d="M1783.9,722.4c0,0,5.7,5,6.5,5.5s-1,9.2-1,9.2c31.1,4.8,31.1-19.8,31.1-19.8
				C1799,725.1,1783.9,722.4,1783.9,722.4z"/>
			<path class="st11" d="M1783.9,722.4c0,0,3.2,2.7,5.6,4.8c5.5,0.6,16.6,0.4,30.5-6.3c0.7-2.3,0.5-3.7,0.5-3.7
				C1799,725.1,1783.9,722.4,1783.9,722.4z"/>
		</g>
		<path class="st42" d="M1747.5,586.9c0,0,61.2,7.2,89.3-34.1C1836.7,552.8,1781.3,539.2,1747.5,586.9z"/>
		<path class="st42" d="M1880.6,826.7c0.1-12.8,39.3-74.3,39.3-74.3C1878.7,779.7,1880.6,826.7,1880.6,826.7z"/>
		<ellipse transform="matrix(0.5 -0.866 0.866 0.5 322.1544 2099.9941)" class="st31" cx="1979.7" cy="771" rx="6.9" ry="14.6"/>
		
			<ellipse transform="matrix(0.3334 -0.9428 0.9428 0.3334 442.8821 2254.291)" class="st31" cx="1815.5" cy="814" rx="5.8" ry="3.3"/>
	</g>
	<path class="st1" d="M277.2,990H161.5c-5.8,0-10.5,4.7-10.5,10.5s4.7,10.5,10.5,10.5h115.7c5.8,0,10.5-4.7,10.5-10.5
		S283,990,277.2,990z"/>
	<path class="st1" d="M233.7,1028.1h-52.2c-5.8,0-10.5,4.7-10.5,10.5s4.7,10.5,10.5,10.5h52.2c5.8,0,10.5-4.7,10.5-10.5
		S239.5,1028.1,233.7,1028.1z"/>
	<path class="st1" d="M131.7,989.5h-31.5c-5.8,0-10.5,4.7-10.5,10.5s4.7,10.5,10.5,10.5h31.5c5.8,0,10.5-4.7,10.5-10.5
		S137.5,989.5,131.7,989.5z"/>
	<path class="st1" d="M213.2,1066.2H106.8c-5.8,0-10.5,4.7-10.5,10.5s4.7,10.5,10.5,10.5h106.3c5.8,0,10.5-4.7,10.5-10.5
		S218.9,1066.2,213.2,1066.2z"/>
	<path class="st1" d="M296.1,605.1H180.4c-5.8,0-10.5,4.7-10.5,10.5v0c0,5.8,4.7,10.5,10.5,10.5h115.7c5.8,0,10.5-4.7,10.5-10.5v0
		C306.6,609.9,301.9,605.1,296.1,605.1z"/>
	<path class="st1" d="M252.6,643.2h-52.2c-5.8,0-10.5,4.7-10.5,10.5v0c0,5.8,4.7,10.5,10.5,10.5h52.2c5.8,0,10.5-4.7,10.5-10.5v0
		C263.1,647.9,258.4,643.2,252.6,643.2z"/>
	<path class="st1" d="M316.6,643.2h-31.5c-5.8,0-10.5,4.7-10.5,10.5v0c0,5.8,4.7,10.5,10.5,10.5h31.5c5.8,0,10.5-4.7,10.5-10.5v0
		C327.1,647.9,322.4,643.2,316.6,643.2z"/>
	<path class="st1" d="M260.8,572H154.4c-5.8,0-10.5,4.7-10.5,10.5s4.7,10.5,10.5,10.5h106.3c5.8,0,10.5-4.7,10.5-10.5
		S266.5,572,260.8,572z"/>
	<path class="st2" d="M2874,364.7h-115.7c-5.8,0-10.5,4.7-10.5,10.5v0c0,5.8,4.7,10.5,10.5,10.5H2874c5.8,0,10.5-4.7,10.5-10.5v0
		C2884.5,369.4,2879.7,364.7,2874,364.7z"/>
	<path class="st2" d="M2825.6,1111.6h-115.7c-5.8,0-10.5,4.7-10.5,10.5v0c0,5.8,4.7,10.5,10.5,10.5h115.7c5.8,0,10.5-4.7,10.5-10.5
		v0C2836.1,1116.4,2831.4,1111.6,2825.6,1111.6z"/>
	<path class="st2" d="M2884.5,722.2h-115.7c-5.8,0-10.5,4.7-10.5,10.5s4.7,10.5,10.5,10.5h115.7c5.8,0,10.5-4.7,10.5-10.5
		S2890.2,722.2,2884.5,722.2z"/>
	<path class="st2" d="M2843.3,1201.9h-115.7c-5.8,0-10.5,4.7-10.5,10.5s4.7,10.5,10.5,10.5h115.7c5.8,0,10.5-4.7,10.5-10.5
		S2849.1,1201.9,2843.3,1201.9z"/>
	<path class="st2" d="M2830.5,402.8h-52.2c-5.8,0-10.5,4.7-10.5,10.5s4.7,10.5,10.5,10.5h52.2c5.8,0,10.5-4.7,10.5-10.5
		S2836.2,402.8,2830.5,402.8z"/>
	<path class="st2" d="M2894.5,402.8h-31.5c-5.8,0-10.5,4.7-10.5,10.5s4.7,10.5,10.5,10.5h31.5c5.8,0,10.5-4.7,10.5-10.5
		S2900.2,402.8,2894.5,402.8z"/>
	<path class="st2" d="M2783.5,678.5H2752c-5.8,0-10.5,4.7-10.5,10.5v0c0,5.8,4.7,10.5,10.5,10.5h31.5c5.8,0,10.5-4.7,10.5-10.5v0
		C2794,683.3,2789.3,678.5,2783.5,678.5z"/>
	<path class="st2" d="M2830.8,1160.1h-31.5c-5.8,0-10.5,4.7-10.5,10.5s4.7,10.5,10.5,10.5h31.5c5.8,0,10.5-4.7,10.5-10.5
		S2836.6,1160.1,2830.8,1160.1z"/>
	<path class="st2" d="M2838.6,331.5h-106.3c-5.8,0-10.5,4.7-10.5,10.5s4.7,10.5,10.5,10.5h106.3c5.8,0,10.5-4.7,10.5-10.5
		S2844.4,331.5,2838.6,331.5z"/>
	<path class="st2" d="M2931.9,678.5h-106.3c-5.8,0-10.5,4.7-10.5,10.5v0c0,5.8,4.7,10.5,10.5,10.5h106.3c5.8,0,10.5-4.7,10.5-10.5v0
		C2942.4,683.3,2937.6,678.5,2931.9,678.5z"/>
</g>
</svg>
