<svg version="1.1" id="Layer_1" xmlns="http://www.w3.org/2000/svg" xmlns:xlink="http://www.w3.org/1999/xlink" x="0" y="0" viewBox="0 0 1400 1400" xml:space="preserve"><style>.st0{fill:#eed3b8}.st1{fill:#142626}.st4{fill:#bcbec0}.st5{fill:#a7a9ac}.st6{fill:#414042}.st7{fill:#6d6e71}.st8{fill:#939598}.st9{fill:#58595b}.st10{fill:#192e2f}.st11{fill:#c9d0d3}.st12{fill:#e8c7a5}.st13{fill:#debe9d}.st15{fill:#b38c66}.st16{fill:#d4b392}.st18{fill:#362b21}.st21{fill:#fff}.st23{fill:#9c7d61}.st24{fill:#574636}.st28{fill:#a5cfe0}.st33{fill:#3d6f71}.st34{fill:#e6e7e8}</style><switch><g><path fill="#f1f2f2" d="M0 0h1400v1400H0z"/><path fill="#d1d3d4" d="M0 1004h1400v396H0z"/><ellipse class="st4" cx="706.7" cy="1283.4" rx="398.6" ry="45.6"/><ellipse class="st5" cx="706.7" cy="1283.4" rx="319.8" ry="36.6"/><ellipse class="st6" cx="980.8" cy="1216.7" rx="55.7" ry="22.8"/><path transform="rotate(90 1034.394 1210.05)" class="st6" d="M1027.8 1208h13.2v4.2h-13.2z"/><path transform="rotate(90 927.272 1210.05)" class="st6" d="M920.7 1208h13.2v4.2h-13.2z"/><ellipse class="st7" cx="980.8" cy="1203.4" rx="55.7" ry="22.8"/><ellipse class="st6" cx="980.8" cy="1200.4" rx="45.6" ry="17"/><ellipse class="st7" cx="980.8" cy="1198.8" rx="39.4" ry="11.9"/><ellipse class="st6" cx="980.8" cy="1195.8" rx="22.8" ry="6.9"/><g><ellipse class="st6" cx="980.8" cy="1196.8" rx="55.7" ry="22.8"/><path transform="rotate(90 1034.394 1190.23)" class="st6" d="M1027.8 1188.1h13.2v4.2h-13.2z"/><path transform="rotate(90 927.272 1190.23)" class="st6" d="M920.7 1188.1h13.2v4.2h-13.2z"/><ellipse class="st7" cx="980.8" cy="1183.6" rx="55.7" ry="22.8"/><ellipse class="st6" cx="980.8" cy="1180.6" rx="45.6" ry="17"/><ellipse class="st7" cx="980.8" cy="1179" rx="39.4" ry="11.9"/><ellipse class="st6" cx="980.8" cy="1176" rx="22.8" ry="6.9"/></g><path class="st5" d="M987.9 1170.2v-112.3c0-3.9-3.2-7-7-7-3.9 0-7 3.2-7 7v112.3c0 3.9 3.2 7 7 7s7-3.1 7-7z"/><path class="st8" d="M987.9 1113.6v-55.7c0-3.9-3.2-7-7-7-3.9 0-7 3.2-7 7v69.6l14-13.9z"/><g><ellipse class="st6" cx="980.8" cy="1067" rx="55.7" ry="22.8"/><path transform="rotate(90 1034.394 1060.447)" class="st6" d="M1027.8 1058.3h13.2v4.2h-13.2z"/><path transform="rotate(90 927.272 1060.447)" class="st6" d="M920.7 1058.3h13.2v4.2h-13.2z"/><ellipse class="st7" cx="980.8" cy="1053.8" rx="55.7" ry="22.8"/><ellipse class="st6" cx="980.8" cy="1050.8" rx="45.6" ry="17"/><ellipse class="st7" cx="980.8" cy="1049.2" rx="39.4" ry="11.9"/><ellipse class="st6" cx="980.8" cy="1046.2" rx="22.8" ry="6.9"/></g><g><ellipse class="st6" cx="980.8" cy="1047.2" rx="55.7" ry="22.8"/><path transform="rotate(90 1034.394 1040.627)" class="st6" d="M1027.8 1038.5h13.2v4.2h-13.2z"/><path transform="rotate(90 927.272 1040.627)" class="st6" d="M920.7 1038.5h13.2v4.2h-13.2z"/><ellipse class="st7" cx="980.8" cy="1034" rx="55.7" ry="22.8"/><ellipse class="st6" cx="980.8" cy="1031" rx="45.6" ry="17"/><ellipse class="st7" cx="980.8" cy="1029.4" rx="39.4" ry="11.9"/><ellipse class="st6" cx="980.8" cy="1026.4" rx="22.8" ry="6.9"/></g><g><ellipse class="st6" cx="495.4" cy="1193.3" rx="18.8" ry="45.9"/><path class="st6" d="M484.5 1147.4h10.9v3.5h-10.9zM484.5 1235.8h10.9v3.5h-10.9z"/><ellipse class="st7" cx="484.5" cy="1193.3" rx="18.8" ry="45.9"/><ellipse class="st6" cx="482" cy="1193.3" rx="14" ry="37.6"/><ellipse class="st7" cx="480.7" cy="1193.3" rx="9.8" ry="32.5"/><ellipse class="st6" cx="478.2" cy="1193.3" rx="5.7" ry="18.8"/><g><ellipse class="st6" cx="479.1" cy="1193.3" rx="18.8" ry="45.9"/><path class="st6" d="M468.2 1147.4h10.9v3.5h-10.9zM468.2 1235.8h10.9v3.5h-10.9z"/><ellipse class="st7" cx="468.2" cy="1193.3" rx="18.8" ry="45.9"/><ellipse class="st6" cx="465.7" cy="1193.3" rx="14" ry="37.6"/><ellipse class="st7" cx="464.3" cy="1193.3" rx="9.8" ry="32.5"/><ellipse class="st6" cx="461.9" cy="1193.3" rx="5.7" ry="18.8"/></g><path class="st5" d="M457.1 1187.5h-92.6c-3.2 0-5.8 2.6-5.8 5.8s2.6 5.8 5.8 5.8h92.6c3.2 0 5.8-2.6 5.8-5.8s-2.6-5.8-5.8-5.8z"/><path class="st8" d="M410.4 1187.5h-46c-3.2 0-5.8 2.6-5.8 5.8 0 3.2 2.6 5.8 5.8 5.8h57.5l-11.5-11.6z"/><g><ellipse class="st6" cx="372" cy="1193.3" rx="18.8" ry="45.9"/><path class="st6" d="M361.1 1147.4H372v3.5h-10.9zM361.1 1235.8H372v3.5h-10.9z"/><ellipse class="st7" cx="361.1" cy="1193.3" rx="18.8" ry="45.9"/><ellipse class="st6" cx="358.6" cy="1193.3" rx="14" ry="37.6"/><ellipse class="st7" cx="357.2" cy="1193.3" rx="9.8" ry="32.5"/><ellipse class="st6" cx="354.8" cy="1193.3" rx="5.7" ry="18.8"/></g><g><ellipse class="st6" cx="355.6" cy="1193.3" rx="18.8" ry="45.9"/><path class="st6" d="M344.7 1147.4h10.9v3.5h-10.9zM344.7 1235.8h10.9v3.5h-10.9z"/><ellipse class="st7" cx="344.7" cy="1193.3" rx="18.8" ry="45.9"/><ellipse class="st6" cx="342.2" cy="1193.3" rx="14" ry="37.6"/><ellipse class="st7" cx="340.9" cy="1193.3" rx="9.8" ry="32.5"/><ellipse class="st6" cx="338.4" cy="1193.3" rx="5.7" ry="18.8"/></g></g><g><path class="st5" d="M1295.5 1094.4H1144c-4.6 0-8.2 3.7-8.2 8.2 0 4.6 3.7 8.2 8.2 8.2h151.5c4.6 0 8.2-3.7 8.2-8.2.1-4.6-3.6-8.2-8.2-8.2z"/><path class="st8" d="M1249.9 1094.4h-63.5c-6.2 4.3-9.9 8.2-9.9 8.2l7.6 8.2h87.3c-6.6-6.5-14.7-12.2-21.5-16.4z"/><ellipse class="st6" cx="1166.9" cy="1102.6" rx="61.6" ry="150.3"/><path class="st6" d="M1150.9 952.3h16v11.3h-16zM1150.9 1241.6h16v11.3h-16z"/><ellipse class="st7" cx="1150.9" cy="1102.6" rx="61.6" ry="150.3"/><path class="st6" d="M1150.9 1243.1c-14.6 0-28.1-14.8-38.2-41.7-9.9-26.4-15.3-61.5-15.3-98.8s5.4-72.4 15.3-98.8c10.1-26.9 23.6-41.7 38.2-41.7s28.1 14.8 38.2 41.7c9.9 26.4 15.3 61.5 15.3 98.8s-5.4 72.4-15.3 98.8c-10 26.9-23.6 41.7-38.2 41.7zm0-278c-13.2 0-25.8 14.1-35.4 39.7-9.8 26.1-15.1 60.8-15.1 97.8s5.4 71.7 15.1 97.8c9.6 25.6 22.1 39.7 35.4 39.7s25.8-14.1 35.4-39.7c9.8-26.1 15.1-60.8 15.1-97.8s-5.4-71.7-15.1-97.8c-9.6-25.6-22.1-39.7-35.4-39.7z"/><ellipse class="st6" cx="1130.9" cy="1102.6" rx="61.6" ry="150.3"/><path class="st6" d="M1114.9 952.3h16v11.3h-16zM1114.9 1241.6h16v11.3h-16z"/><ellipse class="st7" cx="1114.9" cy="1102.6" rx="61.6" ry="150.3"/><path class="st9" d="M1054.4 1131.6l47.2-20.8-48.4-4.2c.2 8.5.6 16.9 1.2 25z"/><path class="st6" d="M1114.9 1243.1c-14.6 0-28.1-14.8-38.2-41.7-9.9-26.4-15.3-61.5-15.3-98.8s5.4-72.4 15.3-98.8c10.1-26.9 23.6-41.7 38.2-41.7s28.1 14.8 38.2 41.7c9.9 26.4 15.3 61.5 15.3 98.8s-5.4 72.4-15.3 98.8c-10 26.9-23.6 41.7-38.2 41.7zm0-278c-13.2 0-25.8 14.1-35.4 39.7-9.8 26.1-15.1 60.8-15.1 97.8s5.4 71.7 15.1 97.8c9.6 25.6 22.1 39.7 35.4 39.7s25.8-14.1 35.4-39.7c9.8-26.1 15.1-60.8 15.1-97.8s-5.4-71.7-15.1-97.8c-9.6-25.6-22.1-39.7-35.4-39.7z"/><path class="st6" d="M1110.8 1168.3c-6.8 0-13.1-6.9-17.8-19.5-4.6-12.3-7.2-28.7-7.2-46.2s2.5-33.8 7.2-46.2c4.7-12.6 11-19.5 17.8-19.5s13.1 6.9 17.8 19.5c4.6 12.3 7.2 28.7 7.2 46.2s-2.5 33.8-7.2 46.2c-4.7 12.5-11 19.5-17.8 19.5zm0-129.9c-6.2 0-12 6.6-16.5 18.6-4.6 12.2-7.1 28.4-7.1 45.7 0 17.3 2.5 33.5 7.1 45.7 4.5 12 10.3 18.6 16.5 18.6s12-6.6 16.5-18.6c4.6-12.2 7.1-28.4 7.1-45.7 0-17.3-2.5-33.5-7.1-45.7-4.5-12-10.4-18.6-16.5-18.6z"/><path class="st5" d="M1101.7 1094.4H290.2c-4.6 0-8.2 3.7-8.2 8.2 0 4.6 3.7 8.2 8.2 8.2h811.5c4.6 0 8.2-3.7 8.2-8.2 0-4.6-3.7-8.2-8.2-8.2z"/><path class="st8" d="M355.4 1094.4h-65.2c-4.6 0-8.2 3.7-8.2 8.2 0 4.6 3.7 8.2 8.2 8.2h81.5l-16.3-16.4z"/><g><ellipse class="st6" cx="262.4" cy="1102.6" rx="61.6" ry="150.3"/><path class="st6" d="M246.4 952.3h16v11.3h-16zM246.4 1241.6h16v11.3h-16z"/><ellipse class="st7" cx="246.4" cy="1102.6" rx="61.6" ry="150.3"/><path class="st6" d="M246.4 1243.1c-14.6 0-28.1-14.8-38.2-41.7-9.9-26.4-15.3-61.5-15.3-98.8s5.4-72.4 15.3-98.8c10.1-26.9 23.6-41.7 38.2-41.7s28.1 14.8 38.2 41.7c9.9 26.4 15.3 61.5 15.3 98.8s-5.4 72.4-15.3 98.8c-10 26.9-23.6 41.7-38.2 41.7zm0-278c-13.2 0-25.8 14.1-35.4 39.7-9.8 26.1-15.1 60.8-15.1 97.8s5.4 71.7 15.1 97.8c9.6 25.6 22.1 39.7 35.4 39.7s25.8-14.1 35.4-39.7c9.8-26.1 15.1-60.8 15.1-97.8s-5.4-71.7-15.1-97.8c-9.6-25.6-22.1-39.7-35.4-39.7z"/></g><g><ellipse class="st6" cx="226.4" cy="1102.6" rx="61.6" ry="150.3"/><path class="st6" d="M210.4 952.3h16v11.3h-16zM210.4 1241.6h16v11.3h-16z"/><ellipse class="st7" cx="210.4" cy="1102.6" rx="61.6" ry="150.3"/><path class="st9" d="M149.8 1130.1l49.6-19.3-50.6-6.7c0 8.9.4 17.6 1 26z"/><path class="st6" d="M210.4 1243.1c-14.6 0-28.1-14.8-38.2-41.7-9.9-26.4-15.3-61.5-15.3-98.8s5.4-72.4 15.3-98.8c10.1-26.9 23.6-41.7 38.2-41.7s28.1 14.8 38.2 41.7c9.9 26.4 15.3 61.5 15.3 98.8s-5.4 72.4-15.3 98.8c-10 26.9-23.6 41.7-38.2 41.7zm0-278c-13.2 0-25.8 14.1-35.4 39.7-9.8 26.1-15.1 60.8-15.1 97.8s5.4 71.7 15.1 97.8c9.6 25.6 22.1 39.7 35.4 39.7s25.8-14.1 35.4-39.7c9.8-26.1 15.1-60.8 15.1-97.8s-5.4-71.7-15.1-97.8c-9.6-25.6-22.1-39.7-35.4-39.7z"/><path class="st6" d="M206.3 1168.3c-6.8 0-13.1-6.9-17.8-19.5-4.6-12.3-7.2-28.7-7.2-46.2s2.5-33.8 7.2-46.2c4.7-12.6 11-19.5 17.8-19.5 6.8 0 13.1 6.9 17.8 19.5 4.6 12.3 7.2 28.7 7.2 46.2s-2.5 33.8-7.2 46.2c-4.7 12.5-11 19.5-17.8 19.5zm0-129.9c-6.2 0-12 6.6-16.5 18.6-4.6 12.2-7.1 28.4-7.1 45.7 0 17.3 2.5 33.5 7.1 45.7 4.5 12 10.3 18.6 16.5 18.6s12-6.6 16.5-18.6c4.6-12.2 7.1-28.4 7.1-45.7 0-17.3-2.5-33.5-7.1-45.7-4.5-12-10.3-18.6-16.5-18.6z"/></g><path class="st5" d="M199.8 1094.4h-95c-4.4 0-8.2 3.3-8.5 7.7-.3 4.8 3.5 8.8 8.2 8.8h95c4.4 0 8.3-3.3 8.6-7.7.2-4.9-3.6-8.8-8.3-8.8z"/><path class="st8" d="M104.5 1110.9h95c4.4 0 8.3-3.3 8.6-7.7.3-4.8-3.5-8.8-8.2-8.8h-6.8s-27.9 10.9-96.1 11.3c1 3 4 5.2 7.5 5.2z"/></g><g><path class="st10" d="M876.9 402.2l-20.6-53.3c-6.6-17.2-20.7-30.3-38.3-35.8l-72.5-22.7-39-18.9-39 18.9-72.4 22.6c-17.6 5.5-31.6 18.7-38.3 35.8l-20.6 53.3s35.8 5.5 64 21.4l13.3 80.6c1.5 9 2.2 18.1 2.2 27.2v95.3h181.6v-95.3c0-9.1.7-18.2 2.2-27.2l13.3-80.6c28.3-15.8 64.1-21.3 64.1-21.3z"/><path class="st1" d="M768.7 436.7c-31.9 0-38.8-14.7-59.4-17 0 0-1.9-.3-2.8-.2-.9 0-2.8.2-2.8.2-20.6 2.3-27.5 17-59.4 17-31 0-45-27.7-47.5-33.5l16.6 100.9c1.5 9 2.2 18.1 2.2 27.2v95.3h19V517.1l-3.8-30.6c-1-8.3-3.3-23.6 13.5-28.1 9.2-2.4 18-5.4 26.6-13 3.4-3 6.8-5.6 10-7.7 15.5-10.1 35.6-10.1 51 0 3.2 2.1 6.6 4.7 10 7.7 8.6 7.6 17.4 10.5 26.6 13 16.7 4.4 14.5 19.8 13.5 28.1l-3.8 30.6v109.6h19v-95.3c0-9.1.7-18.2 2.2-27.2L816 403.3c-2.4 5.7-16.3 33.4-47.3 33.4z"/><path class="st1" d="M768.3 470.3s2.7 21.9-12 44.5c7.6 21.6 0 40.5 0 40.5s14.8 9.1 12.2 48.1c0 0-2.4-45.5-29.4-45.5h-20.4s24.9-3.6 24.9-25.3c0-10.4-1.2-15.6-24.9-20.2 0 .2 37.7 2.4 49.6-42.1z"/><path class="st11" d="M566.6 332.2c9.2 16.4 20.9 40.5 30.1 70 0 0-6.4-52.7-17-81.8-4.9 3.2-9.3 7.2-13.1 11.8zM846.8 332.2c-9.2 16.4-20.9 40.5-30.1 70 0 0 6.4-52.7 17-81.8 4.9 3.2 9.3 7.2 13.1 11.8z"/><path class="st12" d="M741.4 234.1h-69.8l-8.5 58.5s41.1 48.2 86.7 0l-8.4-58.5z"/><path class="st13" d="M741.4 234.1h-34.9V314c13 .2 27.9-5.1 43.3-21.4l-8.4-58.5z"/><path class="st0" d="M701.6 313.7c1.7.2 3.4.3 5.1.3v-58l-35.4-2 30.3 59.7z"/><linearGradient id="SVGID_1_" gradientUnits="userSpaceOnUse" x1="671.284" y1="284.055" x2="706.685" y2="284.055"><stop offset="0" stop-color="#fcfcfb"/><stop offset="1" stop-color="#eed3b8"/></linearGradient><path d="M701.6 313.7c1.7.2 3.4.3 5.1.3v-58l-35.4-2 30.3 59.7z" fill="url(#SVGID_1_)"/><path class="st12" d="M711.8 313.7c-1.7.2-3.4.3-5.1.3v-58l35.4-2-30.3 59.7z"/><path class="st15" d="M747.1 273.2l-5.7-39.1H719c-22 5.9-47.8 14.1-47.7 20 0 0 12.3 23.9 26.3 23.9h20.9c8.3 0 16.6-1.2 24.6-3.6l4-1.2z"/><path class="st15" d="M706.7 278h11.8c4 0 7.9-.3 11.8-.8l11.7-23.1-35.4 2V278z"/><g><path class="st0" d="M766.1 166.9s5.9-8.7 13.9-6.5c7.6 2.1 4 41.6-12.3 47.9-14.1-12.7-1.6-41.4-1.6-41.4z"/><path class="st16" d="M764.4 173.7s4-6 9.5-4.4c5.2 1.5 2.8 28.6-8.5 32.9-9.6-8.8-1-28.5-1-28.5z"/><path class="st0" d="M647 166.9s-5.9-8.7-13.9-6.5c-7.6 2.1-4 41.6 12.3 47.9 14.1-12.7 1.6-41.4 1.6-41.4z"/><path class="st16" d="M648.7 173.7s-4-6-9.5-4.4c-5.2 1.5-2.8 28.6 8.5 32.9 9.6-8.8 1-28.5 1-28.5z"/><path class="st0" d="M706.5 112.9l-62.1 12.7v81.7c0 12.4 4.9 24.3 13.6 33.2l22.3 22.7c5.1 5.2 12.1 8.1 19.3 8.1h14c7.3 0 14.2-2.9 19.3-8.1l22.3-22.7c8.7-8.9 13.6-20.8 13.6-33.2v-81.7l-62.3-12.7z"/><path class="st12" d="M719.6 189.4v17.8c0 1.3.5 2.6 1.5 3.5 1.3 1.3 2.1 3.2 2.1 5.1v1.9c0 2.4-1.4 4.5-3.5 5.5l-3 1.4-6.2-3.2 5.4-53.4 11.2 2.1v6.6l-7.5 12.7z"/><path class="st12" d="M730.5 125.1s9.6 3.6 10.8 15.5c2 19-17.4 31.2-17.4 31.2s19.1-.1 24.5 17.7c-14.5 11.1-28.9 0-28.9 0-1.7 2-4.9 12.4-.9 14 3.5-6.4 19-2.9 22.6-1.2 9.4 4.5 8.7 33.7 0 43.1l-11 13.2c-8.8 9.7-18.5 11.6-20.9 12.9h4.2c7.3 0 14.2-2.9 19.3-8.1l22.3-22.7c8.7-8.9 13.6-20.8 13.6-33.2v-81.7l-38.2-.7z"/><linearGradient id="SVGID_2_" gradientUnits="userSpaceOnUse" x1="581.176" y1="198.217" x2="687.387" y2="198.217"><stop offset="0" stop-color="#fcfcfb"/><stop offset="1" stop-color="#eed3b8"/></linearGradient><path d="M682.6 125.1s-9.6 3.6-10.8 15.5c-2 19 17.4 31.2 17.4 31.2s-19.1-.1-24.5 17.7c-1.1 4.2-1.4 14.3-.8 18.2v.1c1.9 13-.7 28.1 8.1 37.5l11 13.2c8.8 9.7 18.5 11.6 20.9 12.9h-4.2c-7.3 0-14.2-2.9-19.3-8.1L658 240.6c-8.7-8.9-13.6-20.8-13.6-33.2v-81.7l38.2-.6z" fill="url(#SVGID_2_)"/><path class="st0" d="M748.5 189.4s0-17.6-12.9-17.6h-6.4c-5.4 0-9.7 4.4-9.7 9.8l.1 7.9h28.9zM664.9 189.4s0-17.6 12.9-17.6h6.4c5.4 0 9.7 4.4 9.7 9.8l-.1 7.9h-28.9z"/><path class="st18" d="M737.9 91c-17-3.7-23.4-3.5-31.3-3.5s-14.4-.2-31.3 3.5c-21.9 4.7-37 25-35.1 47.4 1.7 19.9 4.3 40.5 4.3 40.5s4.1-21.6 15-27.8c-3.2-2.7-3.1-24.9 1.2-23.9l46 10.4 46-10.4c4.3-1 4.4 21.2 1.2 23.9 10.9 6.2 15 27.8 15 27.8s2.6-20.6 4.3-40.5c1.6-22.4-13.4-42.7-35.3-47.4z"/><path d="M643 149.9c-1.8-22.4 14.2-43.7 35.4-48.5 16.4-3.7 22.6-3.5 30.3-3.5 7.7 0 18.8.9 35.2 4.6 8.2 1.8 15.5 3.7 21.3 6.7-6.3-9.1-15.9-15.9-27.4-18.4-17-3.7-23.4-3.5-31.3-3.5s-14.4-.2-31.3 3.5c-21.9 4.7-37 25-35.1 47.4 1.5 17.8 3.7 36 4.2 39.8-.1-7.9-.5-18.2-1.3-28.1z" fill="#735d48"/><path d="M708.8 98c7.7 0 18.8.9 35.2 4.6 8.2 1.8 15.5 3.7 21.3 6.7-1-1.4-2.1-2.8-3.2-4.1-7.5-3.8-16.3-6.6-23-8-17-3.7-23.4-3.5-31.3-3.5s-14.4-.2-31.3 3.5c-21.9 4.7-37 25-35.1 47.4 1 11.8 2.2 24.7 3 33.3-.1-8-.5-18.2-1.3-27.9-1.8-22.4 14.2-43.7 35.4-48.5 16.4-3.7 22.6-3.5 30.3-3.5z" fill="#5c4733"/><path class="st18" d="M715.7 168l26.5-4.5c5.3-.9 10.6 1.7 12.9 6.5.1.1.1.3.2.4 0 0-7.2-4.1-10.8-3.2s-25.6 7-25.6 7l-3.2-6.2z"/><path class="st21" d="M724.8 179h12.6c7.1 0 11.1 10.4 11.1 10.4h-28.9s-.6-3.4.8-7.3c.6-1.9 2.4-3.1 4.4-3.1z"/><defs><path id="SVGID_3_" d="M724.8 179h12.6c7.1 0 11.1 10.4 11.1 10.4h-28.9s-.6-3.4.8-7.3c.6-1.9 2.4-3.1 4.4-3.1z"/></defs><clipPath id="SVGID_4_"><use xlink:href="#SVGID_3_" overflow="visible"/></clipPath><g clip-path="url(#SVGID_4_)"><circle class="st23" cx="732.6" cy="182.4" r="7"/><circle class="st24" cx="732.6" cy="182.4" r="3.4"/><circle class="st21" cx="726.7" cy="184.8" r="2.4"/><circle class="st21" cx="730.5" cy="183.1" r=".9"/></g><path class="st18" d="M697.6 168l-26.5-4.5c-5.3-.9-10.6 1.7-12.9 6.5-.1.1-.1.3-.2.4 0 0 7.2-4.1 10.8-3.2s25.6 7 25.6 7l3.2-6.2z"/><path class="st21" d="M688.5 179H676c-7.1 0-11.1 10.4-11.1 10.4h28.9s.6-3.4-.8-7.3c-.7-1.9-2.5-3.1-4.5-3.1z"/><defs><path id="SVGID_5_" d="M688.5 179H676c-7.1 0-11.1 10.4-11.1 10.4h28.9s.6-3.4-.8-7.3c-.7-1.9-2.5-3.1-4.5-3.1z"/></defs><clipPath id="SVGID_6_"><use xlink:href="#SVGID_5_" overflow="visible"/></clipPath><g clip-path="url(#SVGID_6_)"><circle class="st23" cx="680.8" cy="182.4" r="7"/><circle class="st24" cx="680.8" cy="182.4" r="3.4"/><circle class="st21" cx="675" cy="184.8" r="2.4"/><circle class="st21" cx="678.8" cy="183.1" r=".9"/></g><path class="st13" d="M718.8 246.8c0 1.3-5.5 5.2-12.2 5.2s-12.2-3.9-12.2-5.2 5.5-.9 12.2-.9 12.2-.4 12.2.9z"/><path d="M686.7 234.1s23.6 7.4 45.9-5c-6.8 5.6-24.8 16.3-45.9 5z" fill="#976951"/><path class="st13" d="M687.9 230.4c-14.1-.1-2.5 7.6-2.5 7.6-5.2-5.8-1.7-6.5 2.5-7.6zM694.1 221.3s2.9 4.5 7.6 6c.6.2 1 .8 1 1.4v.8c0 2.5 2.1 2.5 4.6 2.4 1.8-.1 3.9-.3 6.1-1-.8-.1-1.7-.2-2.7-.2-2.6-.2-4.7 0-4.6-1.6 0-.8.6-1.4 1.4-1.5 3-.4 10.2-1.7 12.4-6.7-9.4-4.3-27.2-2.3-25.8.4z"/><linearGradient id="SVGID_7_" gradientUnits="userSpaceOnUse" x1="706.685" y1="242.456" x2="706.685" y2="181.897"><stop offset="0" stop-color="#fcfcfb"/><stop offset="1" stop-color="#eed3b8"/></linearGradient><path d="M715.7 211v-51.1h-18.1V211c-2.7.7-4.8 3.2-4.8 6.2v1.9c0 1.5 1.2 2.6 2.6 2.6h3.9c1.6 2.3 4.3 3.7 7.3 3.7s5.7-1.5 7.3-3.7h3.9c1.5 0 2.6-1.2 2.6-2.6v-1.9c.1-2.9-1.9-5.4-4.7-6.2z" fill="url(#SVGID_7_)"/><path class="st13" d="M732.6 218.4c-4-1.9-6 2.6-9.3 4.5-3.3 1.9-6.6 3.9-11.9 5.5 1.2 1.7 3.4 2.5 5.4 1.9 2.4-.7 5.6-2.2 8.7-5 2.3-2.1 6-1.4 7.2 1.5 1.1 2.7 1.3 5.8 1.1 7.7-.8 9.4-3.7 26.2-27.3 26.2s-26.5-16.8-27.3-26.2c-.2-1.9 0-5.1 1.1-7.7 1.2-2.8 4.9-3.5 7.2-1.5 3.1 2.8 6.3 4.3 8.7 5 2 .6 4.2-.1 5.4-1.9-5.2-1.6-8.6-3.6-11.9-5.5-3.3-1.9-5.3-6.4-9.3-4.5-11.8 5.1-11.4 23.1-9.2 35.7l9 9.2c5.1 5.2 12.1 8.1 19.4 8.1h13.8c7.3 0 14.3-2.9 19.4-8.1l9-9.2c2.2-12.6 2.6-30.6-9.2-35.7z"/><path class="st16" d="M741.8 254.1c.6-3.5 1-7.4 1.2-11.3-.6.9-1.2 1.7-1.8 2.4l-11 13.2c-8.8 9.7-18.5 11.6-20.9 12.9h4.2c1.6 0 3.2-.1 4.7-.4 2-.4 3.9-.9 5.8-1.7.8-.3 1.6-.7 2.4-1.2l.6-.3c.6-.3 1.2-.7 1.7-1.1.6-.4 1.1-.8 1.6-1.2.9-.7 1.7-1.5 2.5-2.3l9-9zM734.9 236.9s7.6-16.9-6.3-14.1c5.4-.2 9 3.5 6.3 14.1z"/></g><g><path class="st15" d="M672.5 541.3s4.7-13 12.6-13H714c1.8 0 3.2 1.5 3.2 3.2v5.1c.1 0-33.9 9.1-44.7 4.7z"/><path class="st9" d="M678.4 507.5c-1.6 1.6-1.6 4.3 0 5.9L732 567l5.9-5.9-53.6-53.6c-1.6-1.6-4.3-1.6-5.9 0z"/><path class="st7" d="M735 564.1l-3 2.9 13.3 7.4-7.4-13.3z"/><path class="st0" d="M722.9 533.6H693.7c-7 0-13.9 2.1-19.7 6l-9.2 6.2c-5.8 3.9-13 5-19.7 3.1-10.7-3.1-26.1-7.5-29.4-8.2-9.5-1.9-23.9-5.6-30.4-12.1-20.7-20.4-34.5-20.6-34.5-20.6s25.6-26.4 38.5-51.8c6.9-13.6 8.7-21.4 10.7-32.7-28.2-15.8-63.8-21.3-63.8-21.3s-20.4 28.2-28 55.3c-7.6 27.2-13 56.9-13 74.2 0 14.7 54.3 39.2 98.4 48.5 16.1 3.4 68.5 7.5 84.8 4.9 17.6-2.7 27.6-7.9 33-11.9 3.5-2.6 5.6-6.8 5.6-11.2v-4c2.7 0 4.8-2.2 4.8-4.8v-7.4h1c2.7 0 4.8-2.2 4.8-4.8v-2.5c.1-2.7-2.1-4.9-4.7-4.9z"/><path class="st16" d="M589.4 456.2c6.9-13.6 8.7-21.4 10.7-32.7-8-4.5-16.5-8.1-24.7-11 1.3.5 40.3 15.4-24.5 95.6-.1-.1 25.5-26.5 38.5-51.9z"/><path class="st12" d="M561.6 511.2c-2.6-1.2-4.7-1.9-6.4-2.4l-4.3-.8s-3.4 2.3-8.6 4.3c-3 1.1-3 5.4 0 6.5 18 6.7 36.2 16.3 44.4 21.5-11.7-10.4-24.5-19.8-32.7-24-1.5-.8-1.3-3 .2-3.5 2.2-.7 5.1-1.3 7.4-1.6zM575.3 412.4c-20.8-7.4-39.1-10.2-39.1-10.2s-9.4 34.8-9.7 61.7c17.9-51.2 48.8-51.5 48.8-51.5z"/><path class="st16" d="M721.9 545.8H705l16.9 4.2zM717 558h-12l12 4zM705 570.7l6.5 2.4c.9-.7 1.8-1.5 2.5-2.4h-9z"/></g><g><path class="st0" d="M904.9 457.5c-7.6-27.2-28-55.3-28-55.3s-35.6 5.5-63.8 21.3c2 11.3 3.7 19.1 10.7 32.7 12.9 25.4 38.5 51.8 38.5 51.8l30.2 46.3c14.6 0 25.4-5.4 25.4-11.8 0-37.9-5.3-57.8-13-85z"/><path class="st16" d="M823.7 456.2c-6.9-13.6-8.7-21.4-10.7-32.7 8-4.5 16.5-8.1 24.7-11-1.3.5-40.3 15.4 24.5 95.6.1-.1-25.5-26.5-38.5-51.9z"/><path class="st12" d="M837.8 412.4c20.8-7.4 39.1-10.2 39.1-10.2s9.4 34.8 9.7 61.7c-17.9-51.2-48.8-51.5-48.8-51.5z"/></g><path class="st0" d="M892.8 554.3s-21.8 2-33.4-23.3c-6.2-32.6 40.5-27.9 40.5-27.9s15.1 42.4-7.1 51.2z"/><path class="st16" d="M867.1 486.5s44.8 6.3 43.1 42.1c5.4-26-8.8-42-37.6-53.4-1.2-4.9-5.5-26.2-5.5-26.2s-9 29.2 0 37.5z"/><path class="st12" d="M874.9 488.3l-14.6-19.1-10.7 24.6 17.5-7.3z"/><g><path class="st28" d="M749.6 284.2l-14.9 179.4H806l12-159.2c.1-1.1-.6-2-1.6-2.3l-63.9-19.8c-1.4-.5-2.8.5-2.9 1.9z"/><path d="M788.3 463.6H806l12-159.2c.1-1.1-.6-2-1.6-2.3L761 284.9l27.3 178.7z" fill="#83b6cc"/></g><g><path d="M806 426.8h-58.2c-4.9 0-8.7 3.7-8.3 8.1l15 148.9c.3 3.1 3.2 5.4 6.6 5.4h89.8c3.4 0 6.3-2.3 6.6-5.4l15-148.9c.4-4.3-3.4-8.1-8.3-8.1H806z" fill="#726658"/><path fill="#625445" d="M859.5 564.1l5.7-56.2-52.6 7.4z"/><path d="M739.6 435.7c.6-3.5 4-6.2 8.2-6.2h116.4c4.2 0 7.6 2.7 8.2 6.2l.1-.8c.4-4.3-3.4-8.1-8.3-8.1H747.8c-4.9 0-8.7 3.7-8.3 8.1l.1.8z" fill="#8f806f"/><path class="st4" d="M807.1 454.3h-3.8c-.9 0-1.7-.5-2.1-1.2-.4-.8-.4-1.7 0-2.4l1.7-2.9c.5-.9.6-2 .3-3l-5.3-15.1 1.9-.7 5.3 15.1c.5 1.5.4 3.2-.4 4.6l-1.7 2.9c-.1.2 0 .4 0 .4 0 .1.2.2.4.2h3.8v2.1z"/><path class="st4" d="M810.8 454.3H807v-2h3.8c.2 0 .3-.1.4-.2 0-.1.1-.3 0-.4l-1.7-2.9c-.8-1.4-1-3.1-.4-4.6l5.3-15.1 1.9.7-5.3 15.1c-.3 1-.2 2.1.3 3l1.7 2.9c.4.8.4 1.7 0 2.4-.5.6-1.3 1.1-2.2 1.1z"/><path class="st6" d="M827.7 422.2h-41.3c-2.2 0-4 1.8-4 4v4.3c0 2.2 1.8 4 4 4h41.3c2.2 0 4-1.8 4-4v-4.3c0-2.2-1.8-4-4-4z"/></g><g><path class="st0" d="M867.1 486.5l-20.3-10.9h-37.9c-5.3 0-9 5.3-7.1 10.2l10.8 29.4s32.5 13 50.5 13c10.5.1 18.1-28.3 4-41.7z"/><path class="st16" d="M801.3 483.3c0 .9.1 1.8.5 2.6l.4 1 35.8-1.8-36.7-1.8zM842.3 499l-37.4-4.7 1.3 3.7zM845.5 513.9l-36.2-7.6 1.2 3.5z"/></g><g><path class="st1" d="M585.9 816.1s50.5 25.7 114.1 13.8c-12.2-31.7-73.7-41.8-114.1-13.8z"/><path class="st0" d="M591.2 801s-2.8 73.6.2 110.9c-26.3 45.6-17.5 100.3-26 288.3 0 0 46.9 5.2 57.1-4.8 6.2-128.6 50.2-189.9 41.5-271-.6-5.2 0-10.5 1.7-15.4 13.9-41.1 28.9-78.9 31.9-108-58.5-44.5-106.4 0-106.4 0z"/><path class="st13" d="M697.5 801c-4.2-3.2-8.3-5.9-12.4-8.2-30.4-2.9-79-3.6-87.3 20.7 0 0 43.3 2.6 37.7 53.6-5.6 50.9-2.2 59.3-15.4 64-13.2 4.7-22.3-4.2-22.3-4.2s-4.1 13.7 6.2 22.4 22.7 5.5 20.2 45.3c-2.5 39.9-13.1 131.8-27.3 183.1 3.3 1.8 23.4-.2 26.5 0 9.1-116.7 48.7-176 40.3-253.3-.6-5.2 0-10.5 1.7-15.4 14.1-41.1 29.1-78.9 32.1-108z"/><path class="st16" d="M696.7 807.8c-10.9-4.3-45.7-16.3-59.3-1.9 0 0 44.4 13.1 35.4 82.3 10.5-30 20.3-57.6 23.9-80.4z"/><path class="st33" d="M624.7 1165.5c-37.3 8.4-57.9 0-57.9 0-.4 11.1-.9 22.6-1.4 34.8 0 0 46.9 5.2 57.1-4.8.5-10.5 1.2-20.5 2.2-30z"/><path class="st10" d="M563.6 1190.4H584c3.7 0 7.2 1.5 9.9 4.1 4 3.9 12.4 8.1 28.6 1 9 6.1 6.2 23.6 5.2 46-.9 22.4 0 33-10 33s-25.5 5-33 13.7-10.4 24.3-72.3 24.3c-27.3 0-55.9-32.4-20.4-47.5 7.6-3.2 42.2-27.9 44.9-31.5 18.1-23.6 13-43.1 26.7-43.1z"/><path class="st33" d="M516.9 1276.7c8.6-1.4 20.7-4.4 22.1-9.7 1.3-5.1-6.7-11.5-33.9-9.9-5.7 3.8-10.6 6.8-12.9 7.8-4.6 2-8.2 4.2-10.8 6.7H493c2.8 0 5.5.6 8.1 1.8 3.8 1.8 10.2 4.2 15.8 3.3z"/><path class="st34" d="M576 1214.3c-11.5-2.6-20.9-2.6-27.4-1.9l-1.2 3c6.3-.8 16-1.1 28 1.6h.3c.6 0 1.2-.4 1.4-1.1.2-.7-.3-1.5-1.1-1.6zM572.9 1222h.3c.6 0 1.2-.4 1.4-1.1.2-.8-.3-1.5-1.1-1.7-11.2-2.6-20.5-2.6-27-1.9-.4 1-.9 2-1.4 3 6.3-.7 16-.9 27.8 1.7zM570.5 1227.1h.3c.6 0 1.2-.4 1.4-1.1.2-.8-.3-1.5-1.1-1.7-11.3-2.6-20.5-2.6-27-1.9-.5 1-1.1 2-1.7 3 6.2-.7 16-1 28.1 1.7zM568 1232.2h.3c.6 0 1.2-.4 1.4-1.1.2-.8-.3-1.5-1.1-1.7-11.5-2.6-21-2.6-27.5-1.9-.6 1-1.3 2.1-2.1 3.1 6.3-.8 16.4-1.3 29 1.6zM534.1 1236.1c5.8-1.1 17-2.2 31.4 1.1h.3c.6 0 1.2-.4 1.4-1.1.2-.8-.3-1.5-1.1-1.7-12.2-2.8-22.1-2.6-28.6-1.8-.2.3-.4.5-.6.8-.3.6-1.3 1.5-2.8 2.7zM559.8 1242.9h.3c.6 0 1.2-.4 1.4-1.1.2-.8-.3-1.5-1.1-1.7-12.6-2.9-22.7-2.5-29.2-1.7-1.5 1.1-3.1 2.4-5 3.8 4.9-1.1 17.2-3.1 33.6.7z"/><path class="st34" d="M518.8 1247.6c.1 0 14.5-4.8 35.8 0h.3c.6 0 1.2-.4 1.4-1.1.2-.8-.3-1.5-1.1-1.7-13.6-3.1-24.3-2.5-30.8-1.5-1.7 1.5-3.6 2.9-5.6 4.3 0 .1 0 .1 0 0z"/><path class="st34" d="M512.7 1252.3c.1 0 14.5-4.8 35.8 0h.3c.6 0 1.2-.4 1.4-1.1.2-.8-.3-1.5-1.1-1.7-13.9-3.2-24.8-2.4-31.2-1.4-1.9 1.4-3.9 2.8-5.9 4.1.3.2.5.2.7.1z"/><path class="st33" d="M574.7 1206.3h-20.3l3.5-13h20.7zM628.8 1211.1c-10 1.9-24.1 10.6-32.5 20.2-12 13.7-25.2 33.7-37.7 38.9-12.5 5.3-24.7 24-19.6 32.3 30 1.5 33.2-9.1 33.2-9.1s-11-18 12.9-36c23.8-18 29.3 5.2 29.3 5.2l12.4-.7c.5-4.7.6-10.6.9-18-9 1.3-24.3 2.7-23.3-3.6 1.2-7.6 6.7-13.4 24.2-15.2.3-5.1.4-9.8.2-14z"/><path class="st28" d="M512.5 1312.5c61.9 0 64.8-15.6 72.3-24.3 7.5-8.7 23-13.7 33-13.7 7.2 0 8.7-5.5 9.3-17-23.4.9-39.7 8.9-51.4 23-12.5 15-44.1 26-56.7 27.4-8.9 1-15.1-1.3-18.1-2.7-1.5-.7-3.1-1.1-4.7-1.1h-8.4c7 5 15.9 8.4 24.7 8.4z"/></g><g><path class="st1" d="M827.2 816.1s-50.5 25.7-114.1 13.8c12.2-31.7 73.7-41.8 114.1-13.8z"/><path class="st0" d="M821.9 801s2.8 73.6-.2 110.9c26.3 45.6 17.5 100.3 26 288.3 0 0-46.9 5.2-57.1-4.8-6.2-128.6-50.2-189.9-41.5-271 .6-5.2 0-10.5-1.7-15.4-13.9-41.1-28.9-78.9-31.9-108 58.5-44.5 106.4 0 106.4 0z"/><path class="st13" d="M715.5 801c4.2-3.2 8.3-5.9 12.4-8.2 30.4-2.9 79-3.6 87.3 20.7 0 0-43.3 2.6-37.7 53.6 5.6 50.9 2.2 59.3 15.4 64 13.2 4.7 22.3-4.2 22.3-4.2s4.1 13.7-6.2 22.4-22.7 5.5-20.2 45.3 13.1 131.8 27.3 183.1c-3.3 1.8-23.4-.2-26.5 0-9.1-116.7-48.7-176-40.3-253.3.6-5.2 0-10.5-1.7-15.4-14-41.1-29-78.9-32.1-108z"/><path class="st16" d="M716.4 807.8c10.9-4.3 45.7-16.3 59.3-1.9 0 0-44.4 13.1-35.4 82.3-10.5-30-20.3-57.6-23.9-80.4z"/><path class="st33" d="M788.4 1165.5c37.3 8.4 57.9 0 57.9 0 .4 11.1.9 22.6 1.4 34.8 0 0-46.9 5.2-57.1-4.8-.5-10.5-1.2-20.5-2.2-30z"/><path class="st10" d="M849.5 1190.4H829c-3.7 0-7.2 1.5-9.9 4.1-4 3.9-12.4 8.1-28.6 1-9 6.1-6.2 23.6-5.2 46s0 33 10 33 25.5 5 33 13.7 10.4 24.3 72.3 24.3c27.3 0 55.9-32.4 20.4-47.5-7.6-3.2-42.2-27.9-44.9-31.5-18-23.6-12.9-43.1-26.6-43.1z"/><path class="st33" d="M896.2 1276.7c-8.6-1.4-20.7-4.4-22.1-9.7-1.3-5.1 6.7-11.5 33.9-9.9 5.7 3.8 10.6 6.8 12.9 7.8 4.6 2 8.2 4.2 10.8 6.7H920c-2.8 0-5.5.6-8.1 1.8-3.7 1.8-10.1 4.2-15.7 3.3z"/><path class="st34" d="M837.1 1214.3c11.5-2.6 20.9-2.6 27.4-1.9l1.2 3c-6.3-.8-16-1.1-28 1.6h-.3c-.6 0-1.2-.4-1.4-1.1-.2-.7.3-1.5 1.1-1.6zM840.2 1222h-.3c-.6 0-1.2-.4-1.4-1.1-.2-.8.3-1.5 1.1-1.7 11.2-2.6 20.5-2.6 27-1.9.4 1 .9 2 1.4 3-6.3-.7-16-.9-27.8 1.7zM842.6 1227.1h-.3c-.6 0-1.2-.4-1.4-1.1-.2-.8.3-1.5 1.1-1.7 11.3-2.6 20.5-2.6 27-1.9.5 1 1.1 2 1.7 3-6.2-.7-16-1-28.1 1.7zM845.1 1232.2h-.3c-.6 0-1.2-.4-1.4-1.1-.2-.8.3-1.5 1.1-1.7 11.5-2.6 21-2.6 27.5-1.9.6 1 1.3 2.1 2.1 3.1-6.3-.8-16.4-1.3-29 1.6zM879 1236.1c-5.8-1.1-17-2.2-31.4 1.1h-.3c-.6 0-1.2-.4-1.4-1.1-.2-.8.3-1.5 1.1-1.7 12.2-2.8 22.1-2.6 28.6-1.8.2.3.4.5.6.8.3.6 1.3 1.5 2.8 2.7zM853.3 1242.9h-.3c-.6 0-1.2-.4-1.4-1.1-.2-.8.3-1.5 1.1-1.7 12.6-2.9 22.7-2.5 29.2-1.7 1.5 1.1 3.1 2.4 5 3.8-4.9-1.1-17.2-3.1-33.6.7z"/><path class="st34" d="M894.3 1247.6c-.1 0-14.5-4.8-35.8 0h-.3c-.6 0-1.2-.4-1.4-1.1-.2-.8.3-1.5 1.1-1.7 13.6-3.1 24.3-2.5 30.8-1.5 1.7 1.5 3.6 2.9 5.6 4.3 0 .1 0 .1 0 0z"/><path class="st34" d="M900.4 1252.3c-.1 0-14.5-4.8-35.8 0h-.3c-.6 0-1.2-.4-1.4-1.1-.2-.8.3-1.5 1.1-1.7 13.9-3.2 24.8-2.4 31.2-1.4 1.9 1.4 3.9 2.8 5.9 4.1-.3.2-.5.2-.7.1z"/><path class="st33" d="M838.4 1206.3h20.3l-3.5-13h-20.7zM784.3 1211.1c10 1.9 24.1 10.6 32.5 20.2 12 13.7 25.2 33.7 37.7 38.9 12.5 5.3 24.7 24 19.6 32.3-30 1.5-33.2-9.1-33.2-9.1s11-18-12.9-36c-23.8-18-29.3 5.2-29.3 5.2l-12.4-.7c-.5-4.7-.6-10.6-.9-18 9 1.3 24.3 2.7 23.3-3.6-1.2-7.6-6.7-13.4-24.2-15.2-.3-5.1-.4-9.8-.2-14z"/><path class="st28" d="M900.6 1312.5c-61.9 0-64.8-15.6-72.3-24.3s-23-13.7-33-13.7c-7.2 0-8.7-5.5-9.3-17 23.4.9 39.7 8.9 51.4 23 12.5 15 44.1 26 56.7 27.4 8.9 1 15.1-1.3 18.1-2.7 1.5-.7 3.1-1.1 4.7-1.1h8.4c-7 5-15.9 8.4-24.7 8.4z"/></g><g><path class="st10" d="M797.4 626.7l-90.8-11.1-90.8 11.1S583 680.7 586 816c0 0 23-7.5 58.1-2.3 32 4.7 56 16.1 56 16.1l6.5-68.1 6.5 68.1s23.9-11.4 56-16.1c35.1-5.2 58.1 2.3 58.1 2.3 3-135.3-29.8-189.3-29.8-189.3z"/><path class="st1" d="M809.5 812.8c11.3 1.2 17.7 3.3 17.7 3.3 3-135.3-29.8-189.3-29.8-189.3l-90.8-11.1-90.8 11.1s63.9 2.1 120.8 14.3c39 8.4 67.5 41.7 70.5 81.4 2.3 33.6 2.5 69.7 2.4 90.3z"/><path class="st1" d="M706.5 761.8l6.5 68.1s5.4-2.6 14.5-5.8c0 0 5.1-47.4 21-80.9-17.9 20.8-42 18.6-42 18.6zM706.5 761.8l-6.5 68.1s-5.4-2.6-14.5-5.8c0 0-5.1-47.4-21-80.9 18 20.8 42 18.6 42 18.6z"/></g></g></g></switch></svg>