<?xml version="1.0" encoding="utf-8"?>
<!-- Generator: Adobe Illustrator 21.0.0, SVG Export Plug-In . SVG Version: 6.00 Build 0)  -->
<svg version="1.1" id="Layer_1" xmlns="http://www.w3.org/2000/svg" xmlns:xlink="http://www.w3.org/1999/xlink" x="0px" y="0px"
	 width="1400px" height="980px" viewBox="0 0 1400 980" style="enable-background:new 0 0 1400 980;" xml:space="preserve">
<style type="text/css">
	.st0{fill:#EBEAF1;}
	.st1{fill:#908DA0;}
	.st2{fill:#D0CFDD;}
	.st3{fill:#F1F0F8;}
	.st4{fill:#555467;}
	.st5{fill:#7A798C;}
	.st6{fill:#646375;}
	.st7{fill:#8375B6;}
	.st8{fill:#6E64A0;}
	.st9{fill:#A89ECD;}
	.st10{fill:#57538C;}
	.st11{fill:#514B66;}
	.st12{fill:#EB9C72;}
	.st13{fill:#5DB4D7;}
	.st14{fill:#3998B5;}
	.st15{fill:#F4E9C8;}
	.st16{fill:#76CBE4;}
	.st17{fill:#D7C9A3;}
	.st18{fill:#A1DCEC;}
	.st19{fill:#44A3BF;}
	.st20{fill:#D8815B;}
	.st21{fill:#80614A;}
	.st22{fill:#D0815D;}
	.st23{fill:#414159;}
	.st24{fill:#C66B42;}
	.st25{fill:#725142;}
	.st26{fill:#604337;}
	.st27{fill:#302F47;}
	.st28{fill:#E2514B;}
	.st29{fill:#68677C;}
	.st30{fill:#71AADC;}
	.st31{fill:#518BB7;}
	.st32{fill:#F4D556;}
	.st33{fill:#FEEA98;}
	.st34{fill:#D6B838;}
</style>
<g>
	<g>
		<path class="st0" d="M1082.44495,575.85779h-73.20673c-4.82263,0-8.73218,3.90948-8.73218,8.73206v13.75403
			c0,4.82257,3.90955,8.73206,8.73218,8.73206h73.20673c4.82275,0,8.73218-3.90948,8.73218-8.73206v-13.75403
			C1091.17712,579.76727,1087.2677,575.85779,1082.44495,575.85779z"/>
		<path class="st0" d="M1175.70947,494.43762h-73.20679c-4.82263,0-8.73218,3.90948-8.73218,8.73209v13.754
			c0,4.82257,3.90955,8.73212,8.73218,8.73212h73.20679c4.82263,0,8.73218-3.90955,8.73218-8.73212v-13.754
			C1184.44165,498.34711,1180.5321,494.43762,1175.70947,494.43762z"/>
		<path class="st0" d="M1076.74561,494.43762h-73.20679c-4.82263,0-8.73212,3.90948-8.73212,8.73209v13.754
			c0,4.82257,3.90948,8.73212,8.73212,8.73212h73.20679c4.82263,0,8.73218-3.90955,8.73218-8.73212v-13.754
			C1085.47778,498.34711,1081.56824,494.43762,1076.74561,494.43762z"/>
		<path class="st0" d="M1133.47998,618.60114h-73.20679c-4.82275,0-8.73218,3.90948-8.73218,8.73206v13.75403
			c0,4.82257,3.90942,8.73206,8.73218,8.73206h73.20679c4.82263,0,8.73206-3.90948,8.73206-8.73206v-13.75403
			C1142.21204,622.51062,1138.30261,618.60114,1133.47998,618.60114z"/>
		<path class="st0" d="M1031.41003,618.60114h-73.20673c-4.82269,0-8.73218,3.90948-8.73218,8.73206v13.75403
			c0,4.82257,3.90948,8.73206,8.73218,8.73206h73.20673c4.82275,0,8.73218-3.90948,8.73218-8.73206v-13.75403
			C1040.14221,622.51062,1036.23279,618.60114,1031.41003,618.60114z"/>
		<path class="st0" d="M1133.47998,535.14771h-73.20679c-4.82275,0-8.73218,3.90948-8.73218,8.73206v13.75403
			c0,4.82257,3.90942,8.73206,8.73218,8.73206h73.20679c4.82263,0,8.73206-3.90948,8.73206-8.73206v-13.75403
			C1142.21204,539.05719,1138.30261,535.14771,1133.47998,535.14771z"/>
		<path class="st0" d="M1031.41003,535.14771h-73.20673c-4.82269,0-8.73218,3.90948-8.73218,8.73206v13.75403
			c0,4.82257,3.90948,8.73206,8.73218,8.73206h73.20673c4.82275,0,8.73218-3.90948,8.73218-8.73206v-13.75403
			C1040.14221,539.05719,1036.23279,535.14771,1031.41003,535.14771z"/>
	</g>
	<g>
		<path class="st0" d="M765.91071,710.73145h-73.20679c-4.82263,0-8.73218,3.90955-8.73218,8.73212v13.75397
			c0,4.82263,3.90955,8.73212,8.73218,8.73212h73.20679c4.82263,0,8.73218-3.90948,8.73218-8.73212v-13.75397
			C774.64288,714.64099,770.73334,710.73145,765.91071,710.73145z"/>
		<path class="st0" d="M859.17517,629.31134h-73.20679c-4.82269,0-8.73218,3.90948-8.73218,8.73206v13.75403
			c0,4.82257,3.90948,8.73206,8.73218,8.73206h73.20679c4.82263,0,8.73212-3.90948,8.73212-8.73206V638.0434
			C867.90729,633.22083,863.9978,629.31134,859.17517,629.31134z"/>
		<path class="st0" d="M760.2113,629.31134h-73.20679c-4.82263,0-8.73212,3.90948-8.73212,8.73206v13.75403
			c0,4.82257,3.90948,8.73206,8.73212,8.73206h73.20679c4.82269,0,8.73218-3.90948,8.73218-8.73206V638.0434
			C768.94348,633.22083,765.034,629.31134,760.2113,629.31134z"/>
		<path class="st0" d="M816.94562,753.47485h-73.20679c-4.82263,0-8.73212,3.90948-8.73212,8.73206v13.75397
			c0,4.82263,3.90948,8.73212,8.73212,8.73212h73.20679c4.82269,0,8.73218-3.90948,8.73218-8.73212v-13.75397
			C825.6778,757.38434,821.76831,753.47485,816.94562,753.47485z"/>
		<path class="st0" d="M714.87579,753.47485h-73.20679c-4.82269,0-8.73218,3.90948-8.73218,8.73206v13.75397
			c0,4.82263,3.90948,8.73212,8.73218,8.73212h73.20679c4.82263,0,8.73212-3.90948,8.73212-8.73212v-13.75397
			C723.60791,757.38434,719.69843,753.47485,714.87579,753.47485z"/>
		<path class="st0" d="M816.94562,670.02142h-73.20679c-4.82263,0-8.73212,3.90948-8.73212,8.73206v13.75397
			c0,4.82263,3.90948,8.73212,8.73212,8.73212h73.20679c4.82269,0,8.73218-3.90948,8.73218-8.73212v-13.75397
			C825.6778,673.93091,821.76831,670.02142,816.94562,670.02142z"/>
		<path class="st0" d="M714.87579,670.02142h-73.20679c-4.82269,0-8.73218,3.90948-8.73218,8.73206v13.75397
			c0,4.82263,3.90948,8.73212,8.73218,8.73212h73.20679c4.82263,0,8.73212-3.90948,8.73212-8.73212v-13.75397
			C723.60791,673.93091,719.69843,670.02142,714.87579,670.02142z"/>
	</g>
	<g>
		<path class="st0" d="M382.28375,246.56625H309.077c-4.82266,0-8.73215,3.9095-8.73215,8.73209v13.754
			c0,4.8226,3.90948,8.73209,8.73215,8.73209h73.20676c4.82269,0,8.73218-3.90948,8.73218-8.73209v-13.754
			C391.01593,250.47575,387.10645,246.56625,382.28375,246.56625z"/>
		<path class="st0" d="M475.54822,165.1461h-73.20679c-4.82266,0-8.73215,3.9095-8.73215,8.7321v13.75398
			c0,4.8226,3.90948,8.73209,8.73215,8.73209h73.20679c4.82266,0,8.73215-3.90948,8.73215-8.73209V173.8782
			C484.28036,169.0556,480.37088,165.1461,475.54822,165.1461z"/>
		<path class="st0" d="M376.58438,165.1461h-73.20676c-4.82266,0-8.73218,3.9095-8.73218,8.7321v13.75398
			c0,4.8226,3.90952,8.73209,8.73218,8.73209h73.20676c4.82266,0,8.73215-3.90948,8.73215-8.73209V173.8782
			C385.31653,169.0556,381.40704,165.1461,376.58438,165.1461z"/>
		<path class="st0" d="M433.3187,289.3096h-73.20679c-4.82266,0-8.73215,3.90952-8.73215,8.73212v13.75397
			c0,4.8226,3.90948,8.73209,8.73215,8.73209h73.20679c4.82266,0,8.73215-3.90948,8.73215-8.73209v-13.75397
			C442.05084,293.21912,438.14136,289.3096,433.3187,289.3096z"/>
		<path class="st0" d="M331.24884,289.3096h-73.20679c-4.82265,0-8.73215,3.90952-8.73215,8.73212v13.75397
			c0,4.8226,3.9095,8.73209,8.73215,8.73209h73.20679c4.82266,0,8.73215-3.90948,8.73215-8.73209v-13.75397
			C339.98099,293.21912,336.0715,289.3096,331.24884,289.3096z"/>
		<path class="st0" d="M433.3187,205.85619h-73.20679c-4.82266,0-8.73215,3.90948-8.73215,8.73209v13.75398
			c0,4.8226,3.90948,8.7321,8.73215,8.7321h73.20679c4.82266,0,8.73215-3.9095,8.73215-8.7321v-13.75398
			C442.05084,209.76567,438.14136,205.85619,433.3187,205.85619z"/>
		<path class="st0" d="M331.24884,205.85619h-73.20679c-4.82265,0-8.73215,3.90948-8.73215,8.73209v13.75398
			c0,4.8226,3.9095,8.7321,8.73215,8.7321h73.20679c4.82266,0,8.73215-3.9095,8.73215-8.7321v-13.75398
			C339.98099,209.76567,336.0715,205.85619,331.24884,205.85619z"/>
	</g>
	<g>
		<path class="st0" d="M925.51917,246.56625h-73.20673c-4.82269,0-8.73218,3.9095-8.73218,8.73209v13.754
			c0,4.8226,3.90948,8.73209,8.73218,8.73209h73.20673c4.82269,0,8.73218-3.90948,8.73218-8.73209v-13.754
			C934.25134,250.47575,930.34186,246.56625,925.51917,246.56625z"/>
		<path class="st0" d="M1018.78363,165.1461h-73.20679c-4.82263,0-8.73212,3.9095-8.73212,8.7321v13.75398
			c0,4.8226,3.90948,8.73209,8.73212,8.73209h73.20679c4.82269,0,8.73212-3.90948,8.73212-8.73209V173.8782
			C1027.51575,169.0556,1023.60632,165.1461,1018.78363,165.1461z"/>
		<path class="st0" d="M919.81982,165.1461h-73.20679c-4.82269,0-8.73218,3.9095-8.73218,8.7321v13.75398
			c0,4.8226,3.90948,8.73209,8.73218,8.73209h73.20679c4.82263,0,8.73212-3.90948,8.73212-8.73209V173.8782
			C928.55194,169.0556,924.64246,165.1461,919.81982,165.1461z"/>
		<path class="st0" d="M976.55414,289.3096h-73.20679c-4.82269,0-8.73218,3.90952-8.73218,8.73212v13.75397
			c0,4.8226,3.90948,8.73209,8.73218,8.73209h73.20679c4.82263,0,8.73212-3.90948,8.73212-8.73209v-13.75397
			C985.28625,293.21912,981.37677,289.3096,976.55414,289.3096z"/>
		<path class="st0" d="M874.48425,289.3096h-73.20679c-4.82263,0-8.73212,3.90952-8.73212,8.73212v13.75397
			c0,4.8226,3.90948,8.73209,8.73212,8.73209h73.20679c4.82269,0,8.73218-3.90948,8.73218-8.73209v-13.75397
			C883.21643,293.21912,879.30695,289.3096,874.48425,289.3096z"/>
		<path class="st0" d="M976.55414,205.85619h-73.20679c-4.82269,0-8.73218,3.90948-8.73218,8.73209v13.75398
			c0,4.8226,3.90948,8.7321,8.73218,8.7321h73.20679c4.82263,0,8.73212-3.9095,8.73212-8.7321v-13.75398
			C985.28625,209.76567,981.37677,205.85619,976.55414,205.85619z"/>
		<path class="st0" d="M874.48425,205.85619h-73.20679c-4.82263,0-8.73212,3.90948-8.73212,8.73209v13.75398
			c0,4.8226,3.90948,8.7321,8.73212,8.7321h73.20679c4.82269,0,8.73218-3.9095,8.73218-8.7321v-13.75398
			C883.21643,209.76567,879.30695,205.85619,874.48425,205.85619z"/>
	</g>
	<g>
		<path class="st0" d="M317.55499,574.91565h73.20679c4.82266,0,8.73215,3.90955,8.73215,8.73212v13.75397
			c0,4.82263-3.90948,8.73212-8.73215,8.73212h-73.20679c-4.82266,0-8.73215-3.90948-8.73215-8.73212v-13.75397
			C308.82285,578.8252,312.73233,574.91565,317.55499,574.91565z"/>
		<path class="st0" d="M224.29056,493.49554h73.20679c4.82266,0,8.73215,3.90948,8.73215,8.73209v13.754
			c0,4.82257-3.90948,8.73206-8.73215,8.73206h-73.20679c-4.82266,0-8.73216-3.90948-8.73216-8.73206v-13.754
			C215.5584,497.40503,219.4679,493.49554,224.29056,493.49554z"/>
		<path class="st0" d="M323.25439,493.49554h73.20676c4.82266,0,8.73218,3.90948,8.73218,8.73209v13.754
			c0,4.82257-3.90952,8.73206-8.73218,8.73206h-73.20676c-4.82266,0-8.73218-3.90948-8.73218-8.73206v-13.754
			C314.52222,497.40503,318.43173,493.49554,323.25439,493.49554z"/>
		<path class="st0" d="M266.52008,617.65906h73.20679c4.82266,0,8.73215,3.90948,8.73215,8.73206v13.75403
			c0,4.82257-3.90948,8.73206-8.73215,8.73206h-73.20679c-4.82266,0-8.73215-3.90948-8.73215-8.73206v-13.75403
			C257.78793,621.56854,261.69742,617.65906,266.52008,617.65906z"/>
		<path class="st0" d="M368.58994,617.65906h73.20676c4.82266,0,8.73218,3.90948,8.73218,8.73206v13.75403
			c0,4.82257-3.90952,8.73206-8.73218,8.73206h-73.20676c-4.82266,0-8.73218-3.90948-8.73218-8.73206v-13.75403
			C359.85776,621.56854,363.76727,617.65906,368.58994,617.65906z"/>
		<path class="st0" d="M266.52008,534.20563h73.20679c4.82266,0,8.73215,3.90948,8.73215,8.73206v13.75403
			c0,4.82257-3.90948,8.73206-8.73215,8.73206h-73.20679c-4.82266,0-8.73215-3.90948-8.73215-8.73206v-13.75403
			C257.78793,538.11511,261.69742,534.20563,266.52008,534.20563z"/>
		<path class="st0" d="M368.58994,534.20563h73.20676c4.82266,0,8.73218,3.90948,8.73218,8.73206v13.75403
			c0,4.82257-3.90952,8.73206-8.73218,8.73206h-73.20676c-4.82266,0-8.73218-3.90948-8.73218-8.73206v-13.75403
			C359.85776,538.11511,363.76727,534.20563,368.58994,534.20563z"/>
	</g>
</g>
<g>
	<path class="st1" d="M965.43335,583.06793h-530.8667c-17.6192,0-31.9024-14.2832-31.9024-31.9024V237.99037
		c0-17.61922,14.2832-31.9024,31.9024-31.9024h530.8667c17.6192,0,31.9024,14.28319,31.9024,31.9024v313.17517
		C997.33575,568.78473,983.05255,583.06793,965.43335,583.06793z"/>
	<path class="st2" d="M434.56686,566.14813c-8.26147,0-14.98285-6.7207-14.98285-14.98218V237.99051
		c0-8.26146,6.72137-14.98285,14.98285-14.98285h530.86694c8.26147,0,14.98218,6.72139,14.98218,14.98285v313.17545
		c0,8.26147-6.7207,14.98218-14.98218,14.98218H434.56686z"/>
	<g>
		<path class="st3" d="M922.2522,304.17453l-0.00006-0.00006c-2.27789-2.27786-5.97101-2.2778-8.24884,0.00006l-6.53882,6.53885
			c-2.27789,2.27783-2.27795,5.97098-0.00006,8.24881l0.00006,0.00006c2.27783,2.27786,5.97095,2.2778,8.24878-0.00006
			l6.53888-6.53882C924.52997,310.14551,924.53003,306.45239,922.2522,304.17453z"/>
		<path class="st3" d="M897.89941,328.52731l-0.00006-0.00006c-2.27789-2.27783-5.97101-2.27777-8.24884,0.00006l-45.42145,45.42145
			c-2.27783,2.27783-2.27789,5.97098-0.00006,8.24881l0.00006,0.00006c2.27783,2.27786,5.97101,2.2778,8.24884-0.00006
			l45.42145-45.42142C900.17719,334.49829,900.17725,330.80518,897.89941,328.52731z"/>
	</g>
	<g>
		<path class="st3" d="M919.91693,362.30743l-0.00006-0.00006c-2.27783-2.27786-5.97101-2.2778-8.24884,0.00006l-11.5238,11.52377
			c-2.27783,2.27786-2.27789,5.97101-0.00006,8.24884l0.00006,0.00006c2.27789,2.27786,5.97101,2.2778,8.24884-0.00006
			l11.5238-11.52377C922.1947,368.27841,922.19476,364.58527,919.91693,362.30743z"/>
		<path class="st3" d="M883.71887,398.50552l-0.00006-0.00006c-2.27789-2.27786-5.97101-2.2778-8.24884,0.00006l-64.36426,64.3642
			c-2.27783,2.27786-2.27789,5.97101-0.00006,8.24884l0.00006,0.00006c2.27789,2.27786,5.97101,2.2778,8.24884-0.00006
			l64.36426-64.36423C885.99664,404.4765,885.9967,400.78336,883.71887,398.50552z"/>
	</g>
	<g>
		<path class="st3" d="M582.54346,470.04364l-0.00006-0.00006c-2.27789-2.27783-5.97101-2.27777-8.24884,0.00006l-6.53888,6.53885
			c-2.27783,2.27786-2.27789,5.97098-0.00006,8.24884l0.00006,0.00006c2.27789,2.27783,5.97101,2.27777,8.24884-0.00006
			l6.53888-6.53885C584.82123,476.01462,584.82129,472.3215,582.54346,470.04364z"/>
		<path class="st3" d="M558.19067,494.39645l-0.00006-0.00006c-2.27789-2.27786-5.97101-2.2778-8.24884,0.00006l-45.42145,45.42142
			c-2.27783,2.27783-2.27789,5.97101-0.00006,8.24884l0.00006,0.00006c2.27786,2.27783,5.97098,2.27777,8.24884-0.00006
			l45.42145-45.42145C560.46844,500.36743,560.46851,496.67429,558.19067,494.39645z"/>
	</g>
	<g>
		<path class="st3" d="M547.23352,264.82394l-0.00006-0.00006c-2.27789-2.27786-5.97101-2.2778-8.24884,0.00006l-6.53888,6.53885
			c-2.27783,2.27783-2.27789,5.97098-0.00006,8.24881l0.00006,0.00006c2.27789,2.27786,5.97101,2.2778,8.24884-0.00006
			l6.53888-6.53882C549.51129,270.79492,549.51135,267.10178,547.23352,264.82394z"/>
		<path class="st3" d="M522.88068,289.17673l-0.00006-0.00006c-2.27783-2.27786-5.97095-2.2778-8.24884,0.00006l-45.42139,45.42142
			c-2.27786,2.27786-2.27792,5.97098-0.00006,8.24884l0.00006,0.00006c2.27783,2.27786,5.97098,2.2778,8.24881-0.00006
			l45.42142-45.42142C525.15851,295.14771,525.15857,291.45459,522.88068,289.17673z"/>
	</g>
	<g>
		<path class="st3" d="M578.02161,421.22754l-0.00006-0.00006c-2.27789-2.27786-5.97101-2.2778-8.24884,0.00006l-11.5238,11.52377
			c-2.27783,2.27786-2.27789,5.97101-0.00006,8.24884l0.00006,0.00006c2.27783,2.27786,5.97101,2.2778,8.24884-0.00006
			l11.5238-11.52377C580.29938,427.19852,580.29944,423.5054,578.02161,421.22754z"/>
		<path class="st3" d="M541.82349,457.42563l-0.00006-0.00006c-2.27783-2.27786-5.97095-2.2778-8.24884,0.00006l-64.3642,64.36423
			c-2.27786,2.27783-2.27792,5.97095-0.00006,8.24884l0.00006,0.00006c2.27783,2.27783,5.97098,2.27777,8.24881-0.00006
			l64.36423-64.36426C544.10126,463.39661,544.10132,459.70346,541.82349,457.42563z"/>
	</g>
</g>
<g>
	<rect x="454.1485" y="721.66022" class="st4" width="491.70297" height="16.9946"/>
	<g>
		<g>
			<path class="st4" d="M839.42542,662.82697V797.4881c0,7.61847,6.17596,13.79437,13.79437,13.79437h8.85516
				c7.61841,0,13.79437-6.1759,13.79437-13.79437V662.82697c0-7.61841-6.17596-13.79437-13.79437-13.79437h-8.85516
				C845.60138,649.03259,839.42542,655.20856,839.42542,662.82697z"/>
			<path class="st4" d="M870.26965,669.75793v120.79919h19.61871c6.599,0,11.94849-5.34955,11.94849-11.94849v-96.90216
				c0-6.599-5.34949-11.94855-11.94849-11.94855H870.26965z"/>
			<path class="st4" d="M897.48425,693.19775v73.91962h15.04279c5.05975,0,9.16156-4.10181,9.16156-9.16156v-55.59656
				c0-5.05975-4.10181-9.1615-9.16156-9.1615H897.48425z"/>
		</g>
		<g>
			<path class="st4" d="M560.57452,662.82697V797.4881c0,7.61847-6.17596,13.79437-13.79437,13.79437h-8.85516
				c-7.61841,0-13.79437-6.1759-13.79437-13.79437V662.82697c0-7.61841,6.17596-13.79437,13.79437-13.79437h8.85516
				C554.39856,649.03259,560.57452,655.20856,560.57452,662.82697z"/>
			<path class="st4" d="M529.73029,669.75793v120.79919h-19.61874c-6.59897,0-11.94849-5.34955-11.94849-11.94849v-96.90216
				c0-6.599,5.34952-11.94855,11.94849-11.94855H529.73029z"/>
			<path class="st4" d="M502.51566,693.19775v73.91962h-15.04272c-5.05981,0-9.16156-4.10181-9.16156-9.16156v-55.59656
				c0-5.05975,4.10175-9.1615,9.16156-9.1615H502.51566z"/>
		</g>
	</g>
</g>
<g>
	<rect x="824.96124" y="762.24854" class="st5" width="88.49015" height="28.21467"/>
	<g>
		<polygon class="st5" points="842.02618,748.7464 832.94324,740.90198 804.04285,740.90198 794.9599,748.7464 794.9599,803.96545 
			804.04285,811.80981 832.94324,811.80981 842.02618,803.96545 		"/>
		<g>
			<polygon class="st6" points="842.02618,803.96545 842.02618,748.7464 832.94324,740.90198 832.94324,811.80981 			"/>
			<polygon class="st1" points="794.9599,748.7464 794.9599,803.96545 804.04285,811.80981 804.04285,740.90198 			"/>
		</g>
	</g>
	<g>
		<polygon class="st5" points="947.16852,748.7464 938.08551,740.90198 909.18518,740.90198 900.10217,748.7464 
			900.10217,803.96545 909.18518,811.80981 938.08551,811.80981 947.16852,803.96545 		"/>
		<g>
			<polygon class="st6" points="947.16852,803.96545 947.16852,748.7464 938.08551,740.90198 938.08551,811.80981 			"/>
			<polygon class="st1" points="900.10217,748.7464 900.10217,803.96545 909.18518,811.80981 909.18518,740.90198 			"/>
		</g>
	</g>
	<rect x="804.04285" y="740.90198" class="st1" width="28.90037" height="13.60707"/>
	<rect x="804.04285" y="798.2027" class="st6" width="28.90037" height="13.60707"/>
	<rect x="909.18518" y="740.90198" class="st1" width="28.90037" height="13.60707"/>
	<rect x="909.18518" y="798.2027" class="st6" width="28.90037" height="13.60707"/>
</g>
<g>
	<path class="st7" d="M556.99731,679.34363H325.7135c-9.50885,0-17.21732,7.7085-17.21732,17.21735v98.03149
		c0,9.50885,7.70847,17.21729,17.21732,17.21729h231.28381c9.50885,0,17.21729-7.70844,17.21729-17.21729v-98.03149
		C574.2146,687.05212,566.50616,679.34363,556.99731,679.34363z"/>
	<path class="st8" d="M556.99731,797.37842H325.7135c-9.50885,0-17.21732-6.86859-17.21732-15.34155v12.5556
		c0,9.50885,7.70847,17.21729,17.21732,17.21729h231.28381c9.50885,0,17.21729-7.70844,17.21729-17.21729v-12.5556
		C574.2146,790.50983,566.50616,797.37842,556.99731,797.37842z"/>
	<g>
		<path class="st8" d="M548.45856,679.34833v55.85333c0,1.02972,0.83484,1.86469,1.86475,1.86469
			c1.02985,0,1.86469-0.83496,1.86469-1.86469v-55.85333H548.45856z"/>
		<path class="st9" d="M550.32336,745.02289c-3.8559,0-6.99255-3.13757-6.99255-6.99255c0-3.85504,3.13666-6.99261,6.99255-6.99261
			c3.85596,0,6.99261,3.13757,6.99261,6.99261C557.31598,741.88531,554.17932,745.02289,550.32336,745.02289z M550.32336,734.76709
			c-1.79913,0-3.26318,1.46411-3.26318,3.26324s1.46405,3.26318,3.26318,3.26318s3.26324-1.46405,3.26324-3.26318
			S552.1225,734.76709,550.32336,734.76709z"/>
		<path class="st8" d="M330.52286,679.34833v55.85333c0,1.02972,0.83481,1.86469,1.86469,1.86469s1.86469-0.83496,1.86469-1.86469
			v-55.85333H330.52286z"/>
		<path class="st9" d="M332.38763,745.02289c-3.85593,0-6.99258-3.13757-6.99258-6.99255c0-3.85504,3.13666-6.99261,6.99258-6.99261
			c3.85596,0,6.99261,3.13757,6.99261,6.99261C339.38025,741.88531,336.24359,745.02289,332.38763,745.02289z M332.38763,734.76709
			c-1.79913,0-3.26318,1.46411-3.26318,3.26324s1.46405,3.26318,3.26318,3.26318s3.26321-1.46405,3.26321-3.26318
			S334.18677,734.76709,332.38763,734.76709z"/>
	</g>
	<g>
		<g>
			<g>
				<path class="st8" d="M574.02148,792.46619h-13.90778c-1.02979,0-1.86469-0.83398-1.86469-1.86469v-42.11029
					c0-1.0307,0.8349-1.86475,1.86469-1.86475h22.99817c1.02972,0,1.86469,0.83405,1.86469,1.86475v33.01996
					C584.97656,787.55133,580.06171,792.46619,574.02148,792.46619z M561.97839,788.73682h12.04309
					c3.98431,0,7.22571-3.24133,7.22571-7.22565V750.3559h-19.2688V788.73682z"/>
				<g>
					<g>
						<path class="st8" d="M583.11188,757.46863h-22.99817c-1.02979,0-1.86469-0.83398-1.86469-1.86469
							c0-1.03064,0.8349-1.86469,1.86469-1.86469h22.99817c1.02972,0,1.86469,0.83405,1.86469,1.86469
							C584.97656,756.63464,584.1416,757.46863,583.11188,757.46863z"/>
						<path class="st8" d="M583.11188,764.34106h-22.99817c-1.02979,0-1.86469-0.83405-1.86469-1.86469
							c0-1.0307,0.8349-1.86469,1.86469-1.86469h22.99817c1.02972,0,1.86469,0.83398,1.86469,1.86469
							C584.97656,763.50702,584.1416,764.34106,583.11188,764.34106z"/>
						<path class="st8" d="M583.11188,771.21161h-22.99817c-1.02979,0-1.86469-0.83398-1.86469-1.86469
							c0-1.03064,0.8349-1.86469,1.86469-1.86469h22.99817c1.02972,0,1.86469,0.83405,1.86469,1.86469
							C584.97656,770.37762,584.1416,771.21161,583.11188,771.21161z"/>
						<path class="st8" d="M583.11188,778.08221h-22.99817c-1.02979,0-1.86469-0.83398-1.86469-1.86469
							s0.8349-1.86469,1.86469-1.86469h22.99817c1.02972,0,1.86469,0.83398,1.86469,1.86469S584.1416,778.08221,583.11188,778.08221
							z"/>
						<path class="st8" d="M582.0238,784.95282h-21.9101c-1.02979,0-1.86469-0.83405-1.86469-1.86469
							c0-1.0307,0.8349-1.86469,1.86469-1.86469h21.9101c1.02979,0,1.86469,0.83398,1.86469,1.86469
							C583.88849,784.11877,583.05359,784.95282,582.0238,784.95282z"/>
						<path class="st8" d="M568.81531,792.46619c-1.02979,0-1.86469-0.83398-1.86469-1.86469v-42.88788
							c0-1.0307,0.8349-1.86469,1.86469-1.86469c1.02972,0,1.86469,0.83398,1.86469,1.86469v42.88788
							C570.67999,791.6322,569.84503,792.46619,568.81531,792.46619z"/>
						<path class="st8" d="M576.64282,791.4173c-1.02979,0-1.86469-0.83398-1.86469-1.86469v-41.83899
							c0-1.0307,0.8349-1.86469,1.86469-1.86469c1.02972,0,1.86469,0.83398,1.86469,1.86469v41.83899
							C578.50751,790.58331,577.67255,791.4173,576.64282,791.4173z"/>
					</g>
				</g>
			</g>
			<path class="st9" d="M585.98627,743.76801h-26.7085c-1.67352,0-3.03015,1.35663-3.03015,3.03009v1.83105
				c0,1.67346,1.35663,3.03009,3.03015,3.03009h26.7085c1.67352,0,3.03015-1.35663,3.03015-3.03009v-1.83105
				C589.01642,745.12463,587.65979,743.76801,585.98627,743.76801z"/>
		</g>
		<g>
			<g>
				<path class="st8" d="M297.73425,781.51117v-33.01996c0-1.0307,0.83493-1.86475,1.86469-1.86475h22.99817
					c1.02979,0,1.86469,0.83405,1.86469,1.86475v42.11029c0,1.0307-0.8349,1.86469-1.86469,1.86469h-13.90778
					C302.64911,792.46619,297.73425,787.55133,297.73425,781.51117z M320.73242,750.3559h-19.26877v31.15527
					c0,3.98431,3.24133,7.22565,7.22568,7.22565h12.04309V750.3559z"/>
				<g>
					<g>
						<path class="st8" d="M299.59894,757.46863h22.99817c1.02979,0,1.86469-0.83398,1.86469-1.86469
							c0-1.03064-0.8349-1.86469-1.86469-1.86469h-22.99817c-1.02975,0-1.86469,0.83405-1.86469,1.86469
							C297.73425,756.63464,298.56918,757.46863,299.59894,757.46863z"/>
						<path class="st8" d="M299.59894,764.34106h22.99817c1.02979,0,1.86469-0.83405,1.86469-1.86469
							c0-1.0307-0.8349-1.86469-1.86469-1.86469h-22.99817c-1.02975,0-1.86469,0.83398-1.86469,1.86469
							C297.73425,763.50702,298.56918,764.34106,299.59894,764.34106z"/>
						<path class="st8" d="M299.59894,771.21161h22.99817c1.02979,0,1.86469-0.83398,1.86469-1.86469
							c0-1.03064-0.8349-1.86469-1.86469-1.86469h-22.99817c-1.02975,0-1.86469,0.83405-1.86469,1.86469
							C297.73425,770.37762,298.56918,771.21161,299.59894,771.21161z"/>
						<path class="st8" d="M299.59894,778.08221h22.99817c1.02979,0,1.86469-0.83398,1.86469-1.86469
							s-0.8349-1.86469-1.86469-1.86469h-22.99817c-1.02975,0-1.86469,0.83398-1.86469,1.86469
							S298.56918,778.08221,299.59894,778.08221z"/>
						<path class="st8" d="M300.68698,784.95282h21.91013c1.02979,0,1.86469-0.83405,1.86469-1.86469
							c0-1.0307-0.8349-1.86469-1.86469-1.86469h-21.91013c-1.02975,0-1.86469,0.83398-1.86469,1.86469
							C298.8223,784.11877,299.65723,784.95282,300.68698,784.95282z"/>
						<path class="st8" d="M313.89551,792.46619c1.02979,0,1.86472-0.83398,1.86472-1.86469v-42.88788
							c0-1.0307-0.83493-1.86469-1.86472-1.86469c-1.02975,0-1.86469,0.83398-1.86469,1.86469v42.88788
							C312.03082,791.6322,312.86575,792.46619,313.89551,792.46619z"/>
						<path class="st8" d="M306.06802,791.4173c1.02975,0,1.86469-0.83398,1.86469-1.86469v-41.83899
							c0-1.0307-0.83493-1.86469-1.86469-1.86469c-1.02979,0-1.86472,0.83398-1.86472,1.86469v41.83899
							C304.20331,790.58331,305.03824,791.4173,306.06802,791.4173z"/>
					</g>
				</g>
			</g>
			<path class="st9" d="M296.72452,743.76801h26.70853c1.67349,0,3.03012,1.35663,3.03012,3.03009v1.83105
				c0,1.67346-1.35663,3.03009-3.03012,3.03009h-26.70853c-1.67349,0-3.03012-1.35663-3.03012-3.03009v-1.83105
				C293.6944,745.12463,295.05103,743.76801,296.72452,743.76801z"/>
		</g>
	</g>
	<rect x="341.77933" y="688.39203" class="st8" width="199.15215" height="6.68181"/>
	<g>
		<g>
			<path class="st9" d="M400.35599,735.70856h-18.18073c-2.13693,0-4.0863-1.21643-5.02502-3.13574l-24.82916-50.7655
				c-1.35754-2.77515-0.2085-6.12579,2.5676-7.48425c2.77701-1.3548,6.12579-0.20575,7.48245,2.56763l23.29495,47.6297h14.68991
				c3.08929,0,5.59409,2.50391,5.59409,5.59412S403.44528,735.70856,400.35599,735.70856z"/>
			<path class="st9" d="M500.53577,735.70856h-18.18073c-3.08929,0-5.59409-2.50385-5.59409-5.59406
				s2.50479-5.59412,5.59409-5.59412h14.689l23.29495-47.6297c1.35846-2.77338,4.71277-3.91876,7.48248-2.56763
				c2.77606,1.35846,3.92511,4.70911,2.56757,7.48425l-24.82825,50.7655
				C504.62207,734.49213,502.6727,735.70856,500.53577,735.70856z"/>
		</g>
		<path class="st10" d="M480.70566,742.10144h-78.7005c-4.65533,0-8.4292-3.77386-8.4292-8.4292v-7.11554
			c0-4.65533,3.77386-8.4292,8.4292-8.4292h78.7005c4.65533,0,8.4292,3.77386,8.4292,8.4292v7.11554
			C489.13486,738.32758,485.36099,742.10144,480.70566,742.10144z"/>
	</g>
	<path class="st8" d="M487.98422,784.95282h-93.25766c-5.05698,0-9.15649-4.09955-9.15649-9.15649v-14.98059
		c0-5.05701,4.09952-9.15649,9.15649-9.15649h93.25766c5.05701,0,9.15652,4.09949,9.15652,9.15649v14.98059
		C497.14075,780.85327,493.04123,784.95282,487.98422,784.95282z"/>
</g>
<g>
	<path class="st1" d="M719.85089,745.7348H579.2453v-9.48724c0-9.80756,7.95056-17.75812,17.75812-17.75812h105.08929
		c9.80756,0,17.75818,7.95056,17.75818,17.75812V745.7348z"/>
	<path class="st5" d="M579.2453,745.73474v28.03088v15.14825v22.89587h18.00134v-8.90826
		c0-7.72516,6.26245-13.98761,13.98761-13.98761h76.62762c7.7251,0,13.98761,6.26245,13.98761,13.98761v8.90826h18.00134v-22.89587
		v-15.14825v-28.03088H579.2453z M672.1405,773.55841h-45.18488c-3.44305,0-6.23413-2.79102-6.23413-6.23413
		c0-3.44293,2.79108-6.23407,6.23413-6.23407h45.18488c3.44305,0,6.23419,2.79114,6.23419,6.23407
		C678.37469,770.7674,675.58356,773.55841,672.1405,773.55841z"/>
</g>
<g>
	<g>
		<path class="st11" d="M773.59711,643.49664c-8.13879,0-16.29871-2.93268-22.76489-8.87286l-56.47534-51.88361
			c-13.69055-12.57825-14.5929-33.87311-2.01526-47.56366c12.57794-13.6911,33.87158-14.59406,47.56329-2.01581l56.4751,51.88361
			c13.6911,12.57825,14.59351,33.87311,2.01526,47.5636C791.75842,639.83289,782.69128,643.49664,773.59711,643.49664z"/>
		<path class="st12" d="M795.3576,656.27753c-6.39862,0-12.81409-2.29694-17.90979-6.95349L755.68909,629.44
			c-10.82776-9.89526-11.58417-26.69458-1.6889-37.52301c9.89587-10.82654,26.69519-11.58356,37.52295-1.6889l21.75873,19.88403
			c10.82782,9.89526,11.58423,26.69458,1.68896,37.52295C809.73212,653.36719,802.55603,656.27753,795.3576,656.27753z"/>
		<path class="st12" d="M795.36487,763.63196c-11.93945,0-21.61823-9.67871-21.61823-21.61816V629.71808
			c0-11.93945,9.67877-21.61816,21.61823-21.61816s21.61816,9.67871,21.61816,21.61816v112.29572
			C816.98303,753.95325,807.30432,763.63196,795.36487,763.63196z"/>
		<path class="st12" d="M792.73975,702.76917h-0.00006c-13.64502,0-24.70648-11.06146-24.70648-24.70642v-12.66211
			c0-9.03986,7.32825-16.36804,16.3681-16.36804h8.33844V702.76917z"/>
		<path class="st13" d="M779.09949,746.85236v-0.00006c0-3.58179-2.90363-6.48541-6.48541-6.48541h-2.41907
			c-3.58179,0-6.48541,2.90363-6.48541,6.48541v6.48547v16.67688v30.88312h43.08173v-47.56H785.5849
			C782.00311,753.33777,779.09949,750.43414,779.09949,746.85236z"/>
		<path class="st14" d="M810.80615,737.38153h-8.0296c-6.31085,0-11.42676,5.11591-11.42676,11.42676v12.97089
			c0,6.31079,5.11591,11.42676,11.42676,11.42676h8.0296c6.31079,0,11.42676-5.11597,11.42676-11.42676v-12.97089
			C822.23291,742.49744,817.11694,737.38153,810.80615,737.38153z"/>
		<path class="st14" d="M774.83667,799.69287c0-6.58459-4.82379-12.02783-11.12708-13.02765v14.23254h11.12708V799.69287z"/>
		<path class="st15" d="M760.36371,803.05957v5.35309c0,1.87622,1.521,3.39716,3.39716,3.39716h61.14856
			c1.87622,0,3.39716-1.52094,3.39716-3.39716v-5.35309c0-1.87616-1.52094-3.39716-3.39716-3.39716h-61.14856
			C761.8847,799.66241,760.36371,801.18341,760.36371,803.05957z"/>
		<path class="st16" d="M839.83624,799.66248h-60.27332v-5.79071c0-14.65411,11.87952-26.53363,26.53363-26.53363h7.20605
			c14.65411,0,26.53363,11.87952,26.53363,26.53363V799.66248z"/>
		<path class="st13" d="M813.30261,767.33813h-7.20605c-0.01526,0-0.03027,0.0011-0.04553,0.00116
			c13.43256,0.02478,24.31445,10.92041,24.31445,24.35883v7.96429h9.47076v-5.79065
			C839.83624,779.21765,827.95673,767.33813,813.30261,767.33813z"/>
		<path class="st17" d="M774.77588,803.05957v5.35309c0,1.87622,1.52094,3.39716,3.39716,3.39716h61.1485
			c1.87622,0,3.39716-1.52094,3.39716-3.39716v-5.35309c0-1.87616-1.52094-3.39716-3.39716-3.39716h-61.1485
			C776.29681,799.66241,774.77588,801.18341,774.77588,803.05957z"/>
		<circle class="st18" cx="794.33514" cy="776.80896" r="3.80891"/>
		<ellipse class="st16" cx="769.27313" cy="775.0589" rx="4.04063" ry="7.72078"/>
	</g>
	<g>
		<path class="st11" d="M626.40283,643.49664c-9.09485,0-18.1601-3.66315-24.79816-10.88873
			c-12.57764-13.69049-11.67529-34.98535,2.01526-47.5636l56.47504-51.88361c13.69086-12.57587,34.98602-11.67468,47.56366,2.01581
			c12.57764,13.69055,11.67523,34.98541-2.01526,47.56366l-56.4751,51.88361
			C642.70306,640.56274,634.54071,643.49664,626.40283,643.49664z"/>
		<path class="st12" d="M604.64294,656.27753c-7.19934,0-14.37427-2.90912-19.61353-8.64246
			c-9.89526-10.82837-9.13885-27.62769,1.68921-37.52295l21.75873-19.88403c10.82782-9.89526,27.62683-9.13947,37.52271,1.6889
			c9.89526,10.82843,9.13885,27.62775-1.68921,37.52301l-21.75873,19.88403
			C617.45728,653.97998,611.04028,656.27753,604.64294,656.27753z"/>
		<path class="st12" d="M604.63538,763.63196c-11.93945,0-21.61816-9.67871-21.61816-21.61816V629.71808
			c0-11.93945,9.67871-21.61816,21.61816-21.61816s21.61816,9.67871,21.61816,21.61816v112.29572
			C626.25354,753.95325,616.57483,763.63196,604.63538,763.63196z"/>
		<path class="st12" d="M607.26025,702.76917h0.00006c13.64502,0,24.70648-11.06146,24.70648-24.70642v-12.66211
			c0-9.03986-7.32825-16.36804-16.3681-16.36804h-8.33844V702.76917z"/>
		<path class="st13" d="M620.90051,746.85236v-0.00006c0-3.58179,2.90363-6.48541,6.48541-6.48541h2.41907
			c3.58179,0,6.48541,2.90363,6.48541,6.48541v6.48547v16.67688v30.88312h-43.08173v-47.56h21.20642
			C617.99689,753.33777,620.90051,750.43414,620.90051,746.85236z"/>
		<path class="st14" d="M589.19385,737.38153h8.0296c6.31085,0,11.42676,5.11591,11.42676,11.42676v12.97089
			c0,6.31079-5.11591,11.42676-11.42676,11.42676h-8.0296c-6.31079,0-11.42676-5.11597-11.42676-11.42676v-12.97089
			C577.76709,742.49744,582.88306,737.38153,589.19385,737.38153z"/>
		<path class="st14" d="M625.16333,799.69287c0-6.58459,4.82379-12.02783,11.12708-13.02765v14.23254h-11.12708V799.69287z"/>
		<path class="st15" d="M639.63629,803.05957v5.35309c0,1.87622-1.521,3.39716-3.39716,3.39716h-61.14856
			c-1.87622,0-3.39716-1.52094-3.39716-3.39716v-5.35309c0-1.87616,1.52094-3.39716,3.39716-3.39716h61.14856
			C638.1153,799.66241,639.63629,801.18341,639.63629,803.05957z"/>
		<path class="st16" d="M560.16376,799.66248h60.27332v-5.79071c0-14.65411-11.87952-26.53363-26.53363-26.53363h-7.20605
			c-14.65411,0-26.53363,11.87952-26.53363,26.53363V799.66248z"/>
		<path class="st13" d="M586.69739,767.33813h7.20605c0.01526,0,0.03027,0.0011,0.04553,0.00116
			c-13.43256,0.02478-24.31445,10.92041-24.31445,24.35883v7.96429h-9.47076v-5.79065
			C560.16376,779.21765,572.04327,767.33813,586.69739,767.33813z"/>
		<path class="st17" d="M625.22412,803.05957v5.35309c0,1.87622-1.52094,3.39716-3.39716,3.39716h-61.1485
			c-1.87622,0-3.39716-1.52094-3.39716-3.39716v-5.35309c0-1.87616,1.52094-3.39716,3.39716-3.39716h61.1485
			C623.70319,799.66241,625.22412,801.18341,625.22412,803.05957z"/>
		<circle class="st18" cx="605.66486" cy="776.80896" r="3.80891"/>
		<ellipse class="st16" cx="630.72687" cy="775.0589" rx="4.04063" ry="7.72078"/>
	</g>
	<path class="st12" d="M675.68494,371.00598v21.00055c0,13.64502,11.06146,24.70648,24.70648,24.70648h0.00006
		c13.64496,0,24.70642-11.06146,24.70642-24.70648v-21.00055H675.68494z"/>
	<g>
		<rect x="656.53741" y="476.21448" class="st13" width="87.70805" height="60.83857"/>
		<g>
			<path class="st13" d="M631.02594,443.26984v6.59363c0,27.62973,22.39832,50.02805,50.02802,50.02805h38.67493
				c27.6297,0,50.02808-22.39832,50.02808-50.02805v-6.59363c0-27.62973-22.39838-50.02805-50.02808-50.02805h-38.67493
				C653.42426,393.24179,631.02594,415.64011,631.02594,443.26984z"/>
			<g>
				<path class="st19" d="M740.13409,483.55527h-13.87024c-8.49811,0-16.0094-5.41806-18.69049-13.4819l-0.14459-0.43402
					c-0.53833-1.61618,0.33545-3.36295,1.95166-3.90131c1.6167-0.53699,3.36267,0.33545,3.901,1.9516l0.14514,0.43567
					c1.84235,5.53992,7.00079,9.26105,12.83728,9.26105h13.87024c5.83649,0,10.99493-3.72113,12.83673-9.2594l0.14569-0.43732
					c0.53839-1.61615,2.28326-2.48914,3.90106-1.9516c1.61615,0.53836,2.48969,2.28513,1.95129,3.90131l-0.14508,0.43567
					C756.14349,478.13721,748.63226,483.55527,740.13409,483.55527z"/>
				<path class="st19" d="M674.51923,483.55527h-13.87024c-8.49811,0-16.00934-5.41806-18.69049-13.4819l-0.14459-0.43402
					c-0.53833-1.61618,0.33545-3.36295,1.95166-3.90131c1.6167-0.53699,3.36267,0.33545,3.901,1.9516l0.14514,0.43567
					c1.84235,5.53992,7.00079,9.26105,12.83728,9.26105h13.87024c5.83649,0,10.99493-3.72113,12.83673-9.2594l0.14569-0.43732
					c0.53839-1.61615,2.28326-2.48914,3.90106-1.9516c1.61615,0.53836,2.48969,2.28513,1.95129,3.90131l-0.14508,0.43567
					C690.52863,478.13721,683.0174,483.55527,674.51923,483.55527z"/>
			</g>
			<path class="st13" d="M729.00977,402.095h-57.23669v-10.80911c0-3.12698,2.53491-5.6619,5.66193-5.6619h45.9129
				c3.12695,0,5.66187,2.53491,5.66187,5.6619V402.095z"/>
			<g>
				<path class="st19" d="M740.76819,415.85715l-29.78247,6.84659c-1.41797,0.32599-2.83173-0.55927-3.15765-1.9772v-0.00003
					c-0.32599-1.41794,0.55927-2.8317,1.97717-3.15765l29.78253-6.84659c1.41791-0.32599,2.83167,0.55927,3.15765,1.97723l0,0
					C743.07141,414.11746,742.18616,415.53119,740.76819,415.85715z"/>
				<path class="st19" d="M660.01465,415.85715l29.78247,6.84659c1.41797,0.32599,2.83173-0.55927,3.15771-1.9772v-0.00003
					c0.32593-1.41794-0.55927-2.8317-1.97723-3.15765l-29.78247-6.84659c-1.41797-0.32599-2.83173,0.55927-3.15771,1.97723l0,0
					C657.71149,414.11746,658.59668,415.53119,660.01465,415.85715z"/>
			</g>
			<path class="st19" d="M700.39142,486.25031c-0.90118,0-1.63171,0.73053-1.63171,1.63174v8.31766
				c0,0.90121,0.73053,1.63177,1.63171,1.63177s1.63177-0.73056,1.63177-1.63177v-8.31766
				C702.02319,486.98083,701.2926,486.25031,700.39142,486.25031z"/>
			<path class="st19" d="M700.39142,504.69894c-0.90118,0-1.63171,0.73053-1.63171,1.63171v8.31766
				c0,0.90118,0.73053,1.63177,1.63171,1.63177s1.63177-0.73059,1.63177-1.63177v-8.31766
				C702.02319,505.42947,701.2926,504.69894,700.39142,504.69894z"/>
			<g>
				<g>
					<path class="st19" d="M714.05701,504.21234h-1.90039c-0.66205,0-1.19861-0.53656-1.19861-1.19858
						c0-0.66205,0.53656-1.19858,1.19861-1.19858h1.90039c2.87469,0,5.21381-2.33911,5.21381-5.21381
						c0-2.87497-2.33911-5.21384-5.21381-5.21384h-1.90039c-0.66205,0-1.19861-0.53653-1.19861-1.19858
						c0-0.66202,0.53656-1.19855,1.19861-1.19855h1.90039c4.1969,0,7.61096,3.41428,7.61096,7.61096
						C721.66797,500.79825,718.25391,504.21234,714.05701,504.21234z"/>
					<path class="st19" d="M714.05701,524.2771h-1.90039c-0.66205,0-1.19861-0.53656-1.19861-1.19855
						c0-0.66205,0.53656-1.19861,1.19861-1.19861h1.90039c2.87469,0,5.21381-2.33911,5.21381-5.21381
						c0-2.87494-2.33911-5.21381-5.21381-5.21381h-1.90039c-0.66205,0-1.19861-0.53656-1.19861-1.19858
						s0.53656-1.19858,1.19861-1.19858h1.90039c4.1969,0,7.61096,3.41431,7.61096,7.61096
						C721.66797,520.86304,718.25391,524.2771,714.05701,524.2771z"/>
					<path class="st19" d="M686.72583,504.21234h1.90045c0.66199,0,1.19855-0.53656,1.19855-1.19858
						c0-0.66205-0.53656-1.19858-1.19855-1.19858h-1.90045c-2.87469,0-5.21381-2.33911-5.21381-5.21381
						c0-2.87497,2.33911-5.21384,5.21381-5.21384h1.90045c0.66199,0,1.19855-0.53653,1.19855-1.19858
						c0-0.66202-0.53656-1.19855-1.19855-1.19855h-1.90045c-4.19684,0-7.61096,3.41428-7.61096,7.61096
						C679.11487,500.79825,682.52899,504.21234,686.72583,504.21234z"/>
					<path class="st19" d="M686.72583,524.2771h1.90045c0.66199,0,1.19855-0.53656,1.19855-1.19855
						c0-0.66205-0.53656-1.19861-1.19855-1.19861h-1.90045c-2.87469,0-5.21381-2.33911-5.21381-5.21381
						c0-2.87494,2.33911-5.21381,5.21381-5.21381h1.90045c0.66199,0,1.19855-0.53656,1.19855-1.19858
						s-0.53656-1.19858-1.19855-1.19858h-1.90045c-4.19684,0-7.61096,3.41431-7.61096,7.61096
						C679.11487,520.86304,682.52899,524.2771,686.72583,524.2771z"/>
				</g>
			</g>
		</g>
	</g>
	<path class="st20" d="M675.685,379.23557c5.53644,2.9151,11.83813,4.57281,18.52985,4.57281h26.69672
		c1.41406,0,2.8103-0.07632,4.18634-0.22003v-12.5824H675.685V379.23557z"/>
	<g>
		<path class="st21" d="M762.62091,338.27454H638.16193v-64.42166c0-14.11407,11.44171-25.55579,25.55579-25.55579h73.34741
			c14.11407,0,25.55579,11.44171,25.55579,25.55579V338.27454z"/>
		<g>
			<g>
				<path class="st12" d="M761.9986,349.39713h-20.37823v-22.24515h20.37823c6.14282,0,11.12256,4.97974,11.12256,11.12256v0.00003
					C773.12115,344.41739,768.14142,349.39713,761.9986,349.39713z"/>
				<path class="st22" d="M748.41486,342.60278v-8.65662h13.58374c2.38684,0,4.32849,1.94165,4.32849,4.32846
					c0,2.38651-1.94165,4.32816-4.32849,4.32816H748.41486z"/>
			</g>
			<g>
				<path class="st12" d="M638.78424,349.39713h20.37823v-22.24515h-20.37823c-6.14282,0-11.12256,4.97974-11.12256,11.12256
					v0.00003C627.66168,344.41739,632.64142,349.39713,638.78424,349.39713z"/>
				<path class="st22" d="M652.36798,342.60278v-8.65662h-13.58374c-2.38678,0-4.32849,1.94165-4.32849,4.32846
					c0,2.38651,1.94171,4.32816,4.32849,4.32816H652.36798z"/>
			</g>
		</g>
		<path class="st12" d="M647.20386,276.70953v63.24176c0,22.00259,17.83661,39.8392,39.83917,39.8392h26.69678
			c22.00256,0,39.83917-17.83661,39.83917-39.8392v-63.24176H647.20386z"/>
		<g>
			<g>
				<circle class="st23" cx="669.42249" cy="316.35062" r="7.02673"/>
				<path class="st21" d="M681.63458,311.69925l-22.9754-4.6817c-3.05023-0.62155-5.01904-3.59811-4.39752-6.64835l0,0
					c0.62158-3.05023,3.59814-5.01907,6.64832-4.39752l22.9754,4.6817c3.05023,0.62155,5.01904,3.59811,4.39752,6.64835l0,0
					C687.66132,310.35196,684.68475,312.3208,681.63458,311.69925z"/>
			</g>
			<g>
				<circle class="st23" cx="731.36035" cy="316.35062" r="7.02673"/>
				<path class="st21" d="M719.14832,311.69925l22.97534-4.6817c3.05023-0.62155,5.0191-3.59811,4.39752-6.64835l0,0
					c-0.62152-3.05023-3.59808-5.01907-6.64832-4.39752l-22.9754,4.6817c-3.05023,0.62155-5.01904,3.59811-4.39746,6.64835l0,0
					C713.12152,310.35196,716.09808,312.3208,719.14832,311.69925z"/>
			</g>
		</g>
		<path class="st24" d="M716.57819,342.7887h-32.37354c-1.29407,0-2.34308,1.04904-2.34308,2.34308
			c0,1.29407,1.04901,2.34311,2.34308,2.34311h32.37354c1.29407,0,2.34314-1.04904,2.34314-2.34311
			C718.92133,343.83774,717.87225,342.7887,716.57819,342.7887z"/>
		<path class="st24" d="M703.48907,349.81824h-6.19525c-0.79083,0-1.43195,0.64108-1.43195,1.43188s0.64111,1.43188,1.43195,1.43188
			h6.19525c0.79077,0,1.43188-0.64108,1.43188-1.43188S704.27985,349.81824,703.48907,349.81824z"/>
		<path class="st21" d="M643.81396,260.02271h13.15564c-2.55096-7.14781-9.37738-12.26476-17.40149-12.26476
			c-4.61572,0-8.83264,1.69669-12.07074,4.49524c0.40771-0.02689,0.81763-0.04547,1.23212-0.04547
			C634.96112,252.20772,640.4679,255.29626,643.81396,260.02271z"/>
		<path class="st21" d="M643.47327,268.29117l9.05957-9.53918c-6.93958-3.07259-15.35089-1.64645-20.87665,4.17181
			c-3.17853,3.34689-4.85223,7.57294-5.05286,11.84811c0.26123-0.31415,0.53009-0.62418,0.81555-0.92474
			C631.71021,269.32864,637.74188,267.46255,643.47327,268.29117z"/>
		<g>
			<path class="st21" d="M645.45789,291.94522h-3.60327v-26.97125h25.04193v5.53256
				C666.89655,282.3468,657.2981,291.94522,645.45789,291.94522z"/>
			<path class="st21" d="M755.32501,291.94522h3.60321v-26.97125h-25.04193v5.53256
				C733.88629,282.3468,743.48474,291.94522,755.32501,291.94522z"/>
		</g>
		<path class="st25" d="M753.54297,263.98538c8.01349,0.35602,15.52362-7.01755,18.71338-29.13341
			c-6.36621,5.06161-11.27057,8.08078-16.37421,8.08078c4.25305-2.97711,7.44281-14.24773,6.16687-24.45506
			c-3.69147,7.02832-27.64484,18.28815-49.33545,18.28815h-40.19135c-11.03986,0-19.98938,8.94954-19.98938,19.98935v7.23019
			c0,9.1441,19.01605,26.37152,39.00543,27.95984c-6.69855-5.52899-7.95813-12.43616-7.95813-12.43616
			s55.67047,24.32016,87.69702-11.65704C764.60089,269.30173,754.81885,266.74991,753.54297,263.98538z"/>
		<rect x="753.57898" y="318.91647" class="st21" width="4.87269" height="19.35799"/>
		<rect x="642.23352" y="318.91647" class="st21" width="4.87269" height="19.35799"/>
		<path class="st26" d="M683.58014,279.50903c0,0,55.67047,24.32016,87.69702-11.65701
			c-0.40973,0.08899-0.83142,0.16251-1.2619,0.2222c-11.15192,4.92947-62.41785,21.6062-95.56567-7.21802
			c-0.61761,13.38269-1.23529,24.08884,17.08868,31.08899C684.83972,286.4162,683.58014,279.50903,683.58014,279.50903z"/>
		<path class="st26" d="M731.36035,249.84123c12.88507-1.0809,18.70947-3.00789,24.52179-6.90851
			c4.25305-2.9771,7.44281-14.2477,6.16693-24.45503C758.7605,226.67891,750.43927,244.74553,731.36035,249.84123z"/>
	</g>
	<rect x="656.53741" y="526.72754" class="st11" width="87.70805" height="67.56221"/>
</g>
<g>
	<path class="st27" d="M700.39142,607.70111c-27.63116,0-50.03064,22.39954-50.03064,50.03064
		c0,27.63116,22.39948,40.11896,50.03064,40.11896c27.63123,0,50.03064-12.48779,50.03064-40.11896
		C750.42206,630.10065,728.02264,607.70111,700.39142,607.70111z"/>
	<path class="st27" d="M735.61584,578.53864c-3.66736-4.11102-8.93945-6.47095-14.45227-6.47095h-41.54431
		c-5.51282,0-10.78491,2.35992-14.45227,6.47095c-3.672,4.11572-5.4231,9.61908-4.79535,15.09888l4.89453,42.85645
		c0.33978,2.97821,2.86493,5.22961,5.86206,5.22961h58.52643c2.99707,0,5.52222-2.2514,5.862-5.22961l4.89459-42.85645
		C741.03894,588.15771,739.28784,582.65436,735.61584,578.53864z M728.68701,592.29706l-4.29504,37.62683h-48.0011l-4.2951-37.62683
		c-0.25012-2.17114,0.41541-4.26678,1.87384-5.89984c1.45367-1.63306,3.46436-2.52985,5.64966-2.52985h41.54431
		c2.1853,0,4.19598,0.89679,5.64972,2.52985C728.27173,588.03027,728.93719,590.12592,728.68701,592.29706z"/>
	<rect x="685.28784" y="572.06769" class="st28" width="30.20718" height="11.79968"/>
	<circle class="st29" cx="673.18567" cy="632.33698" r="7.0413"/>
	<circle class="st29" cx="685.28784" cy="625.21539" r="2.80657"/>
</g>
<g>
	<circle class="st13" cx="756.96265" cy="437.35318" r="37.21415"/>
	<path class="st14" d="M755.08228,507.20197c-2.74207,0-5.53058-0.47168-8.2558-1.46634
		c-12.49799-4.56039-18.93219-18.38901-14.37152-30.88672l14.87396-40.76059c4.56073-12.49863,18.39178-18.93158,30.88678-14.37152
		c12.49799,4.56039,18.93219,18.38904,14.37146,30.88675l-14.87396,40.76059
		C774.14716,501.13635,764.91425,507.20197,755.08228,507.20197z"/>
	<path class="st12" d="M724.76495,585.34045c-2.17932,0-4.39539-0.37518-6.56207-1.16534
		c-9.93384-3.62512-15.04828-14.617-11.42371-24.55145l28.79852-78.91965c3.62573-9.93356,14.61395-15.05008,24.55145-11.42343
		c9.93384,3.62485,15.04828,14.617,11.42371,24.55118l-28.79846,78.91965
		C739.91937,580.51923,732.58044,585.34045,724.76495,585.34045z"/>
	<circle class="st12" cx="730.06" cy="571.74646" r="28.7213"/>
	<circle class="st13" cx="643.82025" cy="437.35318" r="37.21415"/>
	<path class="st14" d="M645.70087,507.20197c-9.83313,0-19.06519-6.06473-22.63153-15.83783l-14.87366-40.76059
		c-4.56067-12.49771,1.87378-26.32635,14.37152-30.88675c12.49738-4.55978,26.32666,1.8735,30.88702,14.37152l14.87366,40.76059
		c4.56067,12.49771-1.87378,26.32632-14.37152,30.88672C651.23181,506.73029,648.44208,507.20197,645.70087,507.20197z"/>
	<path class="st12" d="M676.01758,585.34045c-7.81573,0-15.15411-4.82062-17.98877-12.58905l-28.79883-78.91965
		c-3.62512-9.93417,1.48926-20.92603,11.42346-24.55118c9.93353-3.62515,20.92596,1.48956,24.55115,11.42343l28.79883,78.91965
		c3.62512,9.93384-1.48932,20.92633-11.42346,24.55145C680.41425,584.96527,678.19659,585.34045,676.01758,585.34045z"/>
	<circle class="st12" cx="670.72284" cy="571.74646" r="28.7213"/>
</g>
<path class="st11" d="M1141.07007,811.80975H258.92996c-7.94142,0-14.37917,6.43774-14.37917,14.37915
	c0,7.94147,6.43774,14.37921,14.37917,14.37921h882.14014c7.94141,0,14.37915-6.43774,14.37915-14.37921
	C1155.44922,818.2475,1149.01147,811.80975,1141.07007,811.80975z"/>
<g>
	<rect x="1034.65173" y="693.31824" class="st5" width="28.21467" height="88.49015"/>
	<g>
		<polygon class="st5" points="1021.14954,764.74347 1013.30518,773.82642 1013.30518,802.72681 1021.14954,811.80975 
			1076.36865,811.80975 1084.21301,802.72681 1084.21301,773.82642 1076.36865,764.74347 		"/>
		<g>
			<polygon class="st1" points="1076.36865,764.74347 1021.14954,764.74347 1013.30518,773.82642 1084.21301,773.82642 			"/>
			<polygon class="st6" points="1021.14954,811.80975 1076.36865,811.80975 1084.21301,802.72681 1013.30518,802.72681 			"/>
		</g>
	</g>
	<g>
		<polygon class="st5" points="1021.14954,659.60114 1013.30518,668.68414 1013.30518,697.58447 1021.14954,706.66748 
			1076.36865,706.66748 1084.21301,697.58447 1084.21301,668.68414 1076.36865,659.60114 		"/>
		<g>
			<polygon class="st1" points="1076.36865,659.60114 1021.14954,659.60114 1013.30518,668.68414 1084.21301,668.68414 			"/>
			<polygon class="st6" points="1021.14954,706.66748 1076.36865,706.66748 1084.21301,697.58447 1013.30518,697.58447 			"/>
		</g>
	</g>
	
		<rect x="1005.65851" y="781.47308" transform="matrix(6.123234e-17 -1 1 6.123234e-17 231.83211 1808.38525)" class="st1" width="28.90037" height="13.60707"/>
	
		<rect x="1062.95923" y="781.47308" transform="matrix(6.123234e-17 -1 1 6.123234e-17 289.13281 1865.68604)" class="st6" width="28.90037" height="13.60707"/>
	
		<rect x="1005.65851" y="676.33075" transform="matrix(6.123234e-17 -1 1 6.123234e-17 336.9744 1703.24304)" class="st1" width="28.90037" height="13.60707"/>
	
		<rect x="1062.95923" y="676.33075" transform="matrix(6.123234e-17 -1 1 6.123234e-17 394.27512 1760.5437)" class="st6" width="28.90037" height="13.60707"/>
</g>
<g>
	<path class="st30" d="M515.54919,695.4754h-20.06458c-2.96008,0-5.35971,2.39966-5.35971,5.35974v4.15125h30.78403v-4.15125
		C520.90894,697.87506,518.50928,695.4754,515.54919,695.4754z"/>
	<path class="st31" d="M515.54919,695.4754h-5.87106c2.63083,0,4.76358,2.13269,4.76358,4.76361v4.74731h6.46722v-4.15118
		C520.90894,697.875,518.50928,695.4754,515.54919,695.4754z"/>
	<rect x="502.1095" y="688.29291" class="st30" width="7.28477" height="11.93801"/>
	<path class="st30" d="M509.10052,692.17023h-6.6973c-1.07071,0-1.93869-0.86792-1.93869-1.93866l0,0
		c0-1.07068,0.86798-1.93866,1.93869-1.93866h6.6973c1.07071,0,1.93869,0.86798,1.93869,1.93866l0,0
		C511.03922,691.30231,510.17123,692.17023,509.10052,692.17023z"/>
	<path class="st32" d="M527.6062,723.86053v-13.83441c0-3.95642-3.20734-7.16376-7.16376-7.16376h-29.8511
		c-3.95642,0-7.16373,3.20734-7.16373,7.16376v13.83447c0,2.43756,1.23947,4.70782,3.28986,6.02594h0.00003
		c2.05038,1.31818,3.28986,3.58844,3.28986,6.026v5.30487c0,2.43756-1.23947,4.70782-3.28986,6.02594h-0.00003
		c-2.05038,1.31818-3.28986,3.58844-3.28986,6.026v50.39038c0,4.20996,3.41281,7.62274,7.62274,7.62274h28.93311
		c4.2099,0,7.62274-3.41278,7.62274-7.62274v-50.39038c0-2.43756-1.23944-4.70782-3.28992-6.026l0,0
		c-2.05042-1.31812-3.28992-3.58844-3.28992-6.026v-5.30481c0-2.43756,1.2395-4.70782,3.28992-6.026l0,0
		C526.36676,728.56842,527.6062,726.2981,527.6062,723.86053z"/>
	<path class="st33" d="M520.4425,702.86237h-29.85117c-3.0867,0-5.69406,1.96277-6.70151,4.69989h43.25415
		C526.13654,704.82513,523.52917,702.86237,520.4425,702.86237z"/>
	<path class="st33" d="M522.31885,753.03333v-5.99231h-35.32651c-0.09283,0.06622-0.17838,0.14032-0.27487,0.20233
		c-1.98352,1.27521-3.19708,3.44324-3.27496,5.78998H522.31885z"/>
	<path class="st34" d="M524.31622,729.88654h0.00012c2.05035-1.31812,3.28986-3.5885,3.28986-6.02606v-13.83441
		c0-3.95642-3.20734-7.1637-7.1637-7.1637h-5.61139c3.35669,0,6.07782,3.20728,6.07782,7.1637v13.83441
		c0,2.43756-1.05164,4.70795-2.7912,6.02606c-1.73962,1.31818-2.79114,3.58844-2.79114,6.026v5.30475
		c0,2.43756,1.05151,4.70795,2.79114,6.02606c1.73956,1.31818,2.7912,3.58844,2.7912,6.026v50.39038
		c0,4.2099-2.89551,7.62274-6.46722,7.62274h5.54175c4.2099,0,7.62274-3.41284,7.62274-7.62274v-50.39038
		c0-2.43756-1.2395-4.70782-3.28986-6.026h-0.00012c-2.05035-1.31812-3.28986-3.5885-3.28986-6.02606v-5.30475
		C521.02637,733.47498,522.26587,731.20471,524.31622,729.88654z"/>
</g>
<g>
	<path class="st27" d="M980.41602,721.66028c-27.63116,0-50.03064,22.39948-50.03064,50.03064s22.39948,40.1189,50.03064,40.1189
		s50.03064-12.48773,50.03064-40.1189S1008.04718,721.66028,980.41602,721.66028z"/>
	<path class="st27" d="M1015.64038,692.49774c-3.66736-4.11102-8.93945-6.47095-14.45221-6.47095h-41.54431
		c-5.51282,0-10.78491,2.35992-14.45227,6.47095c-3.67206,4.11572-5.42316,9.61914-4.79541,15.09888l4.89453,42.85645
		c0.33984,2.97821,2.86499,5.22961,5.86206,5.22961h58.52643c2.99713,0,5.52222-2.2514,5.86206-5.22961l4.89453-42.85645
		C1021.06354,702.11688,1019.31244,696.61346,1015.64038,692.49774z M1008.71161,706.25616l-4.2951,37.62683h-48.00104
		l-4.2951-37.62683c-0.25012-2.17114,0.41534-4.26672,1.87378-5.89984c1.45374-1.63306,3.46442-2.52985,5.64972-2.52985h41.54431
		c2.1853,0,4.19598,0.89679,5.64966,2.52985C1008.29633,701.98944,1008.96179,704.08502,1008.71161,706.25616z"/>
	<rect x="965.31238" y="686.02679" class="st28" width="30.20718" height="11.79968"/>
	<circle class="st29" cx="953.21027" cy="746.29608" r="7.0413"/>
	<circle class="st29" cx="965.31238" cy="739.1745" r="2.80657"/>
</g>
<g>
	<g>
		<path class="st1" d="M1126.59412,307.19089h-70.52979c-14.26733,0-25.83325,11.56595-25.83325,25.83325v243.72269
			c0,14.26733,11.56592,25.83319,25.83325,25.83319h70.52979c14.26733,0,25.83313-11.56586,25.83313-25.83319V333.02414
			C1152.42725,318.75684,1140.86145,307.19089,1126.59412,307.19089z"/>
		<path class="st5" d="M1126.59412,307.19089h-16.67822c11.79797,0,21.36206,11.56595,21.36206,25.83325v243.72269
			c0,14.26733-9.56409,25.83319-21.36206,25.83319h16.67822c14.26733,0,25.83313-11.56586,25.83313-25.83319V333.02414
			C1152.42725,318.75684,1140.86145,307.19089,1126.59412,307.19089z"/>
		<path class="st5" d="M1152.42725,336.27747v14.6109h-122.19617v-14.6109H1152.42725z M1030.23108,558.88251v14.6109h122.19617
			v-14.6109H1030.23108z"/>
		<g>
			<rect x="1131.27795" y="558.88245" class="st6" width="21.14934" height="14.61091"/>
			<rect x="1131.27795" y="336.27744" class="st6" width="21.14934" height="14.61091"/>
		</g>
	</g>
	<g>
		<path class="st1" d="M1091.32922,243.43814c-4.45447,0-8.07935-3.6243-8.07935-8.07928v-7.41992
			c0-4.455,3.62488-8.0793,8.07935-8.0793c4.45435,0,8.07922,3.6243,8.07922,8.0793v7.41992
			C1099.40845,239.81384,1095.78357,243.43814,1091.32922,243.43814z M1091.32922,224.47638
			c-1.90942,0-3.46265,1.55319-3.46265,3.46255v7.41992c0,1.90936,1.55322,3.46254,3.46265,3.46254
			c1.9093,0,3.46252-1.55318,3.46252-3.46254v-7.41992C1094.79175,226.02957,1093.23853,224.47638,1091.32922,224.47638z"/>
		<path class="st1" d="M1091.32922,253.82581c-1.27478,0-2.30835-1.03358-2.30835-2.30838v-13.8502
			c0-1.2748,1.03357-2.30836,2.30835-2.30836s2.30835,1.03357,2.30835,2.30836v13.8502
			C1093.63757,252.79222,1092.604,253.82581,1091.32922,253.82581z"/>
		<path class="st1" d="M1091.32922,219.45613c-4.45447,0-8.07935-3.6243-8.07935-8.0793v-7.41936
			c0-4.45499,3.62488-8.07928,8.07935-8.07928c4.45435,0,8.07922,3.6243,8.07922,8.07928v7.41936
			C1099.40845,215.83183,1095.78357,219.45613,1091.32922,219.45613z M1091.32922,200.49492
			c-1.90942,0-3.46265,1.55319-3.46265,3.46255v7.41936c0,1.90936,1.55322,3.46255,3.46265,3.46255
			c1.9093,0,3.46252-1.55319,3.46252-3.46255v-7.41936C1094.79175,202.04811,1093.23853,200.49492,1091.32922,200.49492z"/>
		<path class="st1" d="M1091.32922,229.84378c-1.27478,0-2.30835-1.03357-2.30835-2.30836V213.6852
			c0-1.27478,1.03357-2.30836,2.30835-2.30836s2.30835,1.03358,2.30835,2.30836v13.85022
			C1093.63757,228.81021,1092.604,229.84378,1091.32922,229.84378z"/>
		<path class="st1" d="M1091.32922,195.47467c-4.45447,0-8.07935-3.6243-8.07935-8.07928v-7.41992
			c0-4.455,3.62488-8.0793,8.07935-8.0793c4.45435,0,8.07922,3.6243,8.07922,8.0793v7.41992
			C1099.40845,191.85037,1095.78357,195.47467,1091.32922,195.47467z M1091.32922,176.51291
			c-1.90942,0-3.46265,1.55319-3.46265,3.46255v7.41992c0,1.90936,1.55322,3.46255,3.46265,3.46255
			c1.9093,0,3.46252-1.55319,3.46252-3.46255v-7.41992C1094.79175,178.0661,1093.23853,176.51291,1091.32922,176.51291z"/>
		<path class="st1" d="M1091.32922,205.86234c-1.27478,0-2.30835-1.03358-2.30835-2.30836v-13.85022
			c0-1.2748,1.03357-2.30836,2.30835-2.30836s2.30835,1.03357,2.30835,2.30836v13.85022
			C1093.63757,204.82875,1092.604,205.86234,1091.32922,205.86234z"/>
		<path class="st1" d="M1091.32922,171.49266c-4.45447,0-8.07935-3.6243-8.07935-8.0793V155.994
			c0-4.45499,3.62488-8.07928,8.07935-8.07928c4.45435,0,8.07922,3.6243,8.07922,8.07928v7.41936
			C1099.40845,167.86836,1095.78357,171.49266,1091.32922,171.49266z M1091.32922,152.53146
			c-1.90942,0-3.46265,1.55318-3.46265,3.46254v7.41936c0,1.90936,1.55322,3.46255,3.46265,3.46255
			c1.9093,0,3.46252-1.55319,3.46252-3.46255V155.994C1094.79175,154.08464,1093.23853,152.53146,1091.32922,152.53146z"/>
		<path class="st1" d="M1091.32922,181.88033c-1.27478,0-2.30835-1.03358-2.30835-2.30838v-13.8502
			c0-1.2748,1.03357-2.30838,2.30835-2.30838s2.30835,1.03358,2.30835,2.30838v13.8502
			C1093.63757,180.84674,1092.604,181.88033,1091.32922,181.88033z"/>
		<path class="st1" d="M1091.32922,157.89886c-1.27478,0-2.30835-1.03358-2.30835-2.30836v-13.85022
			c0-1.27478,1.03357-2.30836,2.30835-2.30836s2.30835,1.03358,2.30835,2.30836v13.85022
			C1093.63757,156.86528,1092.604,157.89886,1091.32922,157.89886z"/>
	</g>
	<g>
		<g>
			<path class="st1" d="M1134.70581,333.129c-3.8335,1.87161-8.47583,0.2756-10.34766-3.55835l-3.11768-6.38553
				c-1.87183-3.83395-0.27502-8.47607,3.55835-10.34769c3.8335-1.87161,8.47583-0.2756,10.34766,3.55835l3.11768,6.38556
				C1140.13599,326.6153,1138.53931,331.25739,1134.70581,333.129z M1126.73865,316.81058
				c-1.64319,0.80228-2.32727,2.79153-1.52502,4.43472l3.11768,6.38556c0.80225,1.64319,2.7915,2.32724,4.43469,1.52499
				s2.32727-2.7915,1.52502-4.43472l-3.11768-6.38553C1130.37109,316.69241,1128.38184,316.00833,1126.73865,316.81058z"/>
			<path class="st1" d="M1139.07043,342.06857c-1.09717,0.53564-2.4209,0.08041-2.95654-1.01666l-5.81946-11.91943
				c-0.53552-1.09708-0.08032-2.42084,1.01672-2.95648c1.09705-0.53561,2.4209-0.08041,2.95642,1.01666l5.81946,11.91946
				C1140.62268,340.2092,1140.16748,341.53296,1139.07043,342.06857z"/>
			<path class="st1" d="M1124.62927,312.49017c-3.83337,1.87161-8.47583,0.2756-10.34766-3.55835l-3.11731-6.38507
				c-1.87183-3.83392-0.27515-8.47604,3.55835-10.34766c3.83337-1.87161,8.47583-0.2756,10.34766,3.55835l3.11731,6.38507
				C1130.05957,305.97647,1128.46277,310.61856,1124.62927,312.49017z M1116.66248,296.17224
				c-1.64319,0.80225-2.32727,2.79153-1.52502,4.43472l3.11731,6.38507c0.80225,1.64319,2.7915,2.32724,4.43481,1.52499
				c1.64319-0.80225,2.32715-2.79153,1.5249-4.43472l-3.11731-6.38507C1120.29492,296.05405,1118.30566,295.37,1116.66248,296.17224
				z"/>
			<path class="st1" d="M1128.9939,321.42975c-1.09705,0.53564-2.4209,0.08041-2.95654-1.01666l-5.81934-11.91943
				c-0.53564-1.09708-0.08044-2.42087,1.0166-2.95648c1.09717-0.53561,2.4209-0.08041,2.95654,1.01666l5.81946,11.91943
				C1130.54614,319.57037,1130.09094,320.89413,1128.9939,321.42975z"/>
			<path class="st1" d="M1114.5531,291.85184c-3.8335,1.87161-8.47583,0.2756-10.34766-3.55835l-3.11768-6.38556
				c-1.87183-3.83395-0.27515-8.47604,3.55835-10.34766s8.47583-0.2756,10.34766,3.55835l3.11768,6.38553
				C1119.98328,285.3381,1118.3866,289.98022,1114.5531,291.85184z M1106.58594,275.53342
				c-1.64319,0.80225-2.32727,2.79153-1.52502,4.43472l3.11768,6.38553c0.80225,1.64322,2.7915,2.32727,4.43469,1.52502
				s2.32727-2.79153,1.52502-4.43472l-3.11768-6.38556C1110.21838,275.41522,1108.22913,274.73117,1106.58594,275.53342z"/>
			<path class="st1" d="M1118.9176,300.79141c-1.09705,0.53561-2.42078,0.08041-2.95642-1.01666l-5.81946-11.91943
				c-0.53564-1.09708-0.08044-2.42087,1.01672-2.95648c1.09705-0.53564,2.42078-0.08041,2.95642,1.01666l5.81946,11.91943
				C1120.46997,298.93201,1120.01477,300.2558,1118.9176,300.79141z"/>
			<path class="st1" d="M1104.47656,271.21301c-3.8335,1.87161-8.47583,0.2756-10.34766-3.55835l-3.11731-6.38507
				c-1.87195-3.83395-0.27515-8.47606,3.55835-10.34767c3.83337-1.87161,8.47571-0.2756,10.34766,3.55835l3.11731,6.38506
				C1109.90674,264.69928,1108.31006,269.3414,1104.47656,271.21301z M1096.50964,254.89507
				c-1.64319,0.80226-2.32715,2.79152-1.5249,4.43471l3.11731,6.38507c0.80225,1.64319,2.7915,2.32727,4.43469,1.52502
				c1.64319-0.80228,2.32727-2.79153,1.52502-4.43472l-3.11731-6.38507
				C1100.14221,254.77689,1098.15283,254.09282,1096.50964,254.89507z"/>
			<path class="st1" d="M1108.84119,280.15259c-1.09705,0.53561-2.4209,0.08041-2.95654-1.01666l-5.81934-11.91946
				c-0.53564-1.09708-0.08044-2.42084,1.0166-2.95645c1.09705-0.53564,2.4209-0.08041,2.95654,1.01666l5.81934,11.91943
				C1110.39343,278.29318,1109.93823,279.61697,1108.84119,280.15259z"/>
			<path class="st1" d="M1098.76489,259.51425c-1.09705,0.53561-2.42078,0.08038-2.95642-1.01669l-5.81946-11.91943
				c-0.53564-1.09708-0.08044-2.42084,1.01672-2.95647c1.09705-0.53563,2.42078-0.08041,2.95642,1.01666l5.81946,11.91945
				C1100.31726,257.65485,1099.86194,258.97861,1098.76489,259.51425z"/>
		</g>
		<g>
			<path class="st1" d="M1044.39417,322.78134l3.11768-6.38556c1.87183-3.83395,6.51416-5.42996,10.34766-3.55835
				s5.43018,6.51373,3.55835,10.34769l-3.11768,6.38553c-1.87183,3.83395-6.51416,5.42996-10.34766,3.55835
				C1044.11914,331.25739,1042.52234,326.6153,1044.39417,322.78134z M1051.48499,318.3356l-3.11768,6.38553
				c-0.80225,1.64322-0.11816,3.63248,1.52502,4.43472s3.63245,0.11819,4.43469-1.52499l3.11768-6.38556
				c0.80225-1.64319,0.11816-3.63245-1.52502-4.43472C1054.27649,316.00833,1052.28723,316.69241,1051.48499,318.3356z"/>
			<path class="st1" d="M1043.58801,342.06857c1.09705,0.53564,2.42078,0.08041,2.95642-1.01666l5.81946-11.91943
				c0.53564-1.09708,0.08044-2.42084-1.01672-2.95648c-1.09705-0.53561-2.42078-0.08041-2.95642,1.01666l-5.81946,11.91946
				C1042.03564,340.2092,1042.49097,341.53296,1043.58801,342.06857z"/>
			<path class="st1" d="M1054.4707,302.14252l3.11743-6.38507c1.87183-3.83395,6.51416-5.42996,10.34766-3.55835
				c3.83337,1.87161,5.43018,6.51373,3.55835,10.34766l-3.11743,6.38507c-1.87183,3.83395-6.51416,5.42996-10.34766,3.55835
				S1052.59888,305.97647,1054.4707,302.14252z M1061.56128,297.69724l-3.11743,6.38507
				c-0.80225,1.64319-0.11816,3.63248,1.52502,4.43472s3.63245,0.11819,4.43469-1.52499l3.11743-6.38507
				c0.80225-1.64319,0.11816-3.63248-1.52502-4.43472S1062.36353,296.05405,1061.56128,297.69724z"/>
			<path class="st1" d="M1053.66443,321.42975c1.09717,0.53564,2.4209,0.08041,2.95654-1.01666l5.81946-11.91943
				c0.53552-1.09708,0.08032-2.42087-1.01672-2.95648s-2.4209-0.08041-2.95642,1.01666l-5.81946,11.91943
				C1052.11218,319.57037,1052.56738,320.89413,1053.66443,321.42975z"/>
			<path class="st1" d="M1064.547,281.50415l3.11755-6.38553c1.87183-3.83395,6.51416-5.42996,10.34766-3.55835
				s5.43018,6.5137,3.55835,10.34766l-3.11755,6.38556c-1.87195,3.83395-6.51428,5.42996-10.34766,3.55835
				C1064.27185,289.98022,1062.67505,285.3381,1064.547,281.50415z M1071.6377,277.05841l-3.11755,6.38556
				c-0.80225,1.64319-0.11829,3.63248,1.5249,4.43472s3.63257,0.11819,4.43481-1.52502l3.11755-6.38553
				c0.80225-1.64319,0.11816-3.63248-1.52502-4.43472S1072.43994,275.41522,1071.6377,277.05841z"/>
			<path class="st1" d="M1063.74072,300.79141c1.09705,0.53561,2.4209,0.08041,2.95642-1.01666l5.81946-11.91943
				c0.53564-1.09708,0.08044-2.42087-1.0166-2.95648c-1.09717-0.53564-2.4209-0.08041-2.95654,1.01666l-5.81946,11.91943
				C1062.18848,298.93201,1062.64368,300.2558,1063.74072,300.79141z"/>
			<path class="st1" d="M1074.62341,260.86533l3.11743-6.38506c1.87183-3.83395,6.51416-5.42996,10.34766-3.55835
				s5.43018,6.51372,3.55835,10.34767l-3.11743,6.38507c-1.87183,3.83395-6.51416,5.42996-10.34766,3.55835
				S1072.75159,264.69928,1074.62341,260.86533z M1081.71399,256.42007l-3.11743,6.38507
				c-0.80225,1.64319-0.11816,3.63245,1.52502,4.43472c1.64319,0.80225,3.63245,0.11816,4.43469-1.52502l3.11743-6.38507
				c0.80225-1.64319,0.11816-3.63245-1.52502-4.43471C1084.50549,254.09282,1082.51624,254.77689,1081.71399,256.42007z"/>
			<path class="st1" d="M1073.81726,280.15259c1.09705,0.53561,2.42078,0.08041,2.95642-1.01666l5.81946-11.91946
				c0.53564-1.09708,0.08032-2.42084-1.01672-2.95645c-1.09705-0.53564-2.42078-0.08041-2.95642,1.01666l-5.81946,11.91943
				C1072.26489,278.29318,1072.72009,279.61697,1073.81726,280.15259z"/>
			<path class="st1" d="M1083.89343,259.51425c1.09705,0.53561,2.4209,0.08038,2.95654-1.01669l5.81934-11.91943
				c0.53564-1.09708,0.08044-2.42084-1.0166-2.95647s-2.4209-0.08041-2.95654,1.01666l-5.81934,11.91945
				C1082.34119,257.65485,1082.79639,258.97861,1083.89343,259.51425z"/>
		</g>
	</g>
</g>
<g>
	<g>
		<g>
			<path class="st1" d="M348.44159,569.70813c-1.48154,0-2.68274-1.20081-2.68274-2.68274v-148.7821
				c0-1.48154,1.2012-2.68274,2.68274-2.68274s2.68274,1.2012,2.68274,2.68274v148.7821
				C351.12433,568.50732,349.92313,569.70813,348.44159,569.70813z"/>
			<path class="st1" d="M339.77072,569.70813c-1.48154,0-2.68274-1.20081-2.68274-2.68274v-148.7821
				c0-1.48154,1.2012-2.68274,2.68274-2.68274s2.68274,1.2012,2.68274,2.68274v148.7821
				C342.45346,568.50732,341.25226,569.70813,339.77072,569.70813z"/>
		</g>
		<g>
			<path class="st1" d="M350.66409,420.63391h-13.11591c-16.35406,0-29.65903-13.30496-29.65903-29.65945v-7.72076
				c0-1.97537,1.60159-3.57697,3.57697-3.57697h65.28003c1.97537,0,3.577,1.60159,3.577,3.57697v7.72076
				C380.32315,407.32895,367.01816,420.63391,350.66409,420.63391z M315.04312,386.83069v4.14377
				c0,12.40942,10.09564,22.50549,22.50507,22.50549h13.11591c12.40942,0,22.50507-10.09607,22.50507-22.50549v-4.14377H315.04312z"
				/>
			<path class="st6" d="M364.15219,374.13293h-40.0921c-2.26361,0-4.0986,1.83505-4.0986,4.0986v10.0444
				c0,2.26361,1.83499,4.0986,4.0986,4.0986h40.0921c2.26364,0,4.09863-1.83499,4.09863-4.0986v-10.0444
				C368.25082,375.96799,366.41583,374.13293,364.15219,374.13293z"/>
			<path class="st6" d="M352.89957,422.72037h-17.58685c-1.64624,0-2.9808-1.33456-2.9808-2.98083v-5.36548
				c0-1.64627,1.33456-2.98083,2.9808-2.98083h17.58685c1.64627,0,2.98083,1.33456,2.98083,2.98083v5.36548
				C355.8804,421.3858,354.54584,422.72037,352.89957,422.72037z"/>
		</g>
		<g>
			<path class="st1" d="M376.74615,604.40472h-65.28003c-1.97537,0-3.57697-1.60162-3.57697-3.57703v-7.7207
				c0-16.35406,13.30496-29.65863,29.65903-29.65863h13.11591c16.35406,0,29.65906,13.30457,29.65906,29.65863v7.7207
				C380.32315,602.8031,378.72153,604.40472,376.74615,604.40472z M315.04312,597.25073h58.12604v-4.14374
				c0-12.40942-10.09564-22.50464-22.50507-22.50464h-13.11591c-12.40942,0-22.50507,10.09521-22.50507,22.50464V597.25073z"/>
			<path class="st6" d="M364.15219,609.94885h-40.0921c-2.26361,0-4.0986-1.83502-4.0986-4.09857v-10.04443
				c0-2.26361,1.83499-4.09857,4.0986-4.09857h40.0921c2.26364,0,4.09863,1.83496,4.09863,4.09857v10.04443
				C368.25082,608.11383,366.41583,609.94885,364.15219,609.94885z"/>
			<path class="st6" d="M352.89957,561.36145h-17.58685c-1.64624,0-2.9808,1.33453-2.9808,2.98083v5.36548
				c0,1.64624,1.33456,2.98083,2.9808,2.98083h17.58685c1.64627,0,2.98083-1.33459,2.98083-2.98083v-5.36548
				C355.8804,562.69598,354.54584,561.36145,352.89957,561.36145z"/>
		</g>
	</g>
	<g>
		<g>
			<path class="st1" d="M288.12515,487.52039c-1.48154,0-2.68274-1.20078-2.68274-2.68274V336.05557
				c0-1.48154,1.2012-2.68274,2.68274-2.68274s2.68274,1.2012,2.68274,2.68274v148.78207
				C290.80789,486.31961,289.60669,487.52039,288.12515,487.52039z"/>
			<path class="st1" d="M279.45428,487.52039c-1.48154,0-2.68274-1.20078-2.68274-2.68274V336.05557
				c0-1.48154,1.2012-2.68274,2.68274-2.68274c1.48151,0,2.68274,1.2012,2.68274,2.68274v148.78207
				C282.13702,486.31961,280.93579,487.52039,279.45428,487.52039z"/>
		</g>
		<g>
			<path class="st1" d="M290.34766,338.4462h-13.11591c-16.35406,0-29.65904-13.30499-29.65904-29.65948v-7.72073
				c0-1.97537,1.60161-3.577,3.577-3.577h65.28001c1.97537,0,3.577,1.60162,3.577,3.577v7.72073
				C320.00671,325.1412,306.70172,338.4462,290.34766,338.4462z M254.72668,304.64297v4.14374
				c0,12.40942,10.09564,22.50549,22.50507,22.50549h13.11591c12.40942,0,22.50507-10.09607,22.50507-22.50549v-4.14374H254.72668z"
				/>
			<path class="st6" d="M303.83575,291.94519h-40.0921c-2.26361,0-4.0986,1.83505-4.0986,4.0986v10.0444
				c0,2.26361,1.83499,4.09863,4.0986,4.09863h40.0921c2.26361,0,4.09863-1.83502,4.09863-4.09863v-10.0444
				C307.93439,293.78024,306.09937,291.94519,303.83575,291.94519z"/>
			<path class="st6" d="M292.58313,340.53262h-17.58685c-1.64627,0-2.9808-1.33456-2.9808-2.98083v-5.36548
				c0-1.64624,1.33453-2.9808,2.9808-2.9808h17.58685c1.64627,0,2.98083,1.33456,2.98083,2.9808v5.36548
				C295.56396,339.19806,294.2294,340.53262,292.58313,340.53262z"/>
		</g>
		<g>
			<path class="st1" d="M316.42972,522.21698H251.1497c-1.97539,0-3.577-1.60162-3.577-3.57697v-7.72076
				c0-16.35406,13.30498-29.6586,29.65904-29.6586h13.11591c16.35406,0,29.65906,13.30453,29.65906,29.6586v7.72076
				C320.00671,520.61536,318.40509,522.21698,316.42972,522.21698z M254.72668,515.06299h58.12604v-4.14374
				c0-12.40942-10.09564-22.50464-22.50507-22.50464h-13.11591c-12.40942,0-22.50507,10.09521-22.50507,22.50464V515.06299z"/>
			<path class="st6" d="M303.83575,527.76117h-40.0921c-2.26361,0-4.0986-1.83508-4.0986-4.09863v-10.04437
				c0-2.26364,1.83499-4.09863,4.0986-4.09863h40.0921c2.26361,0,4.09863,1.83499,4.09863,4.09863v10.04437
				C307.93439,525.92609,306.09937,527.76117,303.83575,527.76117z"/>
			<path class="st6" d="M292.58313,479.17371h-17.58685c-1.64627,0-2.9808,1.33456-2.9808,2.98083v5.36548
				c0,1.64627,1.33453,2.98083,2.9808,2.98083h17.58685c1.64627,0,2.98083-1.33456,2.98083-2.98083v-5.36548
				C295.56396,480.50827,294.2294,479.17371,292.58313,479.17371z"/>
		</g>
	</g>
</g>
</svg>
