<?xml version="1.0" encoding="utf-8"?>
<!-- Generator: Adobe Illustrator 19.0.0, SVG Export Plug-In . SVG Version: 6.00 Build 0)  -->
<svg version="1.1" id="Layer_1" xmlns="http://www.w3.org/2000/svg" xmlns:xlink="http://www.w3.org/1999/xlink" x="0px" y="0px"
	 width="1400px" height="980px" viewBox="0 0 1400 980" enable-background="new 0 0 1400 980" xml:space="preserve">
<g id="XMLID_1_">
	<rect id="XMLID_139_" fill-rule="evenodd" clip-rule="evenodd" fill="#5BC5C3" width="1400" height="980"/>
	<rect id="XMLID_138_" x="269.3" y="338.4" fill-rule="evenodd" clip-rule="evenodd" fill="#D7D6DD" width="23.5" height="518.9"/>
	<rect id="XMLID_137_" x="284.7" y="338.4" fill-rule="evenodd" clip-rule="evenodd" fill="#BCBEC0" width="8.1" height="518.9"/>
	<rect id="XMLID_136_" x="249.3" y="361.7" fill-rule="evenodd" clip-rule="evenodd" fill="#939598" width="62.7" height="8.9"/>
	<rect id="XMLID_135_" x="250.7" y="361.7" fill-rule="evenodd" clip-rule="evenodd" fill="#D4D6D1" width="61.3" height="4.4"/>
	<path id="XMLID_134_" fill-rule="evenodd" clip-rule="evenodd" fill="#1C1F22" d="M225.1,371.8c0,1.2-1,2.2-2.2,2.2
		c-1.2,0-2.2-1-2.2-2.2v-11.4c0-1.2,1-2.2,2.2-2.2c1.2,0,2.2,1,2.2,2.2V371.8z"/>
	<path id="XMLID_133_" fill-rule="evenodd" clip-rule="evenodd" fill="#1C1F22" d="M250.7,390.1c0,1.4-1.1,2.5-2.5,2.5h-7.7
		c-1.4,0-2.5-1.1-2.5-2.5v-47.9c0-1.4,1.1-2.5,2.5-2.5h7.7c1.4,0,2.5,1.1,2.5,2.5V390.1z"/>
	<path id="XMLID_132_" fill-rule="evenodd" clip-rule="evenodd" fill="#303436" d="M244.3,392.6h-3.9c-1.4,0-2.5-1.1-2.5-2.5v-5.7
		v-36.5v-5.7c0-1.4,1.1-2.5,2.5-2.5h3.9V392.6z"/>
	<path id="XMLID_131_" fill-rule="evenodd" clip-rule="evenodd" fill="#1C1F22" d="M237.9,384.4c0,1.4-1.1,2.5-2.5,2.5h-7.7
		c-1.4,0-2.5-1.1-2.5-2.5v-36.5c0-1.4,1.1-2.5,2.5-2.5h7.7c1.4,0,2.5,1.1,2.5,2.5V384.4z"/>
	<path id="XMLID_130_" fill-rule="evenodd" clip-rule="evenodd" fill="#303436" d="M231.5,386.9h-3.9c-1.4,0-2.5-1.1-2.5-2.5v-36.5
		c0-1.4,1.1-2.5,2.5-2.5h3.9V386.9z"/>
	<path id="XMLID_129_" fill-rule="evenodd" clip-rule="evenodd" fill="#1C1F22" d="M337.7,371.8c0,1.2,1,2.2,2.2,2.2
		c1.2,0,2.2-1,2.2-2.2l0-11.4c0-1.2-1-2.2-2.2-2.2c-1.2,0-2.2,1-2.2,2.2L337.7,371.8z"/>
	<path id="XMLID_128_" fill-rule="evenodd" clip-rule="evenodd" fill="#1C1F22" d="M312.1,390.1c0,1.4,1.1,2.5,2.5,2.5h7.7
		c1.4,0,2.5-1.1,2.5-2.5v-47.9c0-1.4-1.1-2.5-2.5-2.5h-7.7c-1.4,0-2.5,1.1-2.5,2.5V390.1z"/>
	<path id="XMLID_127_" fill-rule="evenodd" clip-rule="evenodd" fill="#303436" d="M322.3,392.6h-3.9v-53h3.9c1.4,0,2.5,1.1,2.5,2.5
		v47.9C324.9,391.5,323.7,392.6,322.3,392.6"/>
	<path id="XMLID_126_" fill-rule="evenodd" clip-rule="evenodd" fill="#1C1F22" d="M324.9,384.4c0,1.4,1.1,2.5,2.5,2.5h7.7
		c1.4,0,2.5-1.1,2.5-2.5l0-36.5c0-1.4-1.1-2.5-2.5-2.5h-7.7c-1.4,0-2.5,1.1-2.5,2.5V384.4z"/>
	<path id="XMLID_125_" fill-rule="evenodd" clip-rule="evenodd" fill="#303436" d="M335.1,386.9h-3.9v-41.6h3.9
		c1.4,0,2.5,1.1,2.5,2.5l0,12.6v11.4v12.6C337.7,385.8,336.5,386.9,335.1,386.9"/>
	<rect id="XMLID_124_" x="233.5" y="433.4" fill-rule="evenodd" clip-rule="evenodd" fill="#939598" width="93.6" height="13.2"/>
	<rect id="XMLID_123_" x="235.7" y="433.4" fill-rule="evenodd" clip-rule="evenodd" fill="#D4D6D1" width="91.4" height="6.6"/>
	<path id="XMLID_122_" fill-rule="evenodd" clip-rule="evenodd" fill="#1C1F22" d="M197.5,448.5c0,1.8-1.5,3.3-3.3,3.3
		c-1.8,0-3.3-1.5-3.3-3.3v-17c0-1.8,1.5-3.3,3.3-3.3c1.8,0,3.3,1.5,3.3,3.3V448.5z"/>
	<path id="XMLID_121_" fill-rule="evenodd" clip-rule="evenodd" fill="#1C1F22" d="M235.7,475.8c0,2.1-1.7,3.8-3.8,3.8h-11.6
		c-2.1,0-3.8-1.7-3.8-3.8v-71.4c0-2.1,1.7-3.8,3.8-3.8h11.6c2.1,0,3.8,1.7,3.8,3.8V475.8z"/>
	<path id="XMLID_120_" fill-rule="evenodd" clip-rule="evenodd" fill="#303436" d="M226.1,479.5h-5.8c-2.1,0-3.8-1.7-3.8-3.8v-8.5
		v-54.4v-8.5c0-2.1,1.7-3.8,3.8-3.8h5.8V479.5z"/>
	<path id="XMLID_119_" fill-rule="evenodd" clip-rule="evenodd" fill="#1C1F22" d="M216.6,467.3c0,2.1-1.7,3.8-3.8,3.8h-11.6
		c-2.1,0-3.8-1.7-3.8-3.8v-54.4c0-2.1,1.7-3.8,3.8-3.8h11.6c2.1,0,3.8,1.7,3.8,3.8V467.3z"/>
	<path id="XMLID_118_" fill-rule="evenodd" clip-rule="evenodd" fill="#303436" d="M207,471h-5.8c-2.1,0-3.8-1.7-3.8-3.8v-54.4
		c0-2.1,1.7-3.8,3.8-3.8h5.8V471z"/>
	<path id="XMLID_117_" fill-rule="evenodd" clip-rule="evenodd" fill="#1C1F22" d="M365.3,448.5c0,1.8,1.5,3.3,3.3,3.3
		c1.8,0,3.3-1.5,3.3-3.3l0-17c0-1.8-1.5-3.3-3.3-3.3c-1.8,0-3.3,1.5-3.3,3.3L365.3,448.5z"/>
	<path id="XMLID_116_" fill-rule="evenodd" clip-rule="evenodd" fill="#1C1F22" d="M327.1,475.8c0,2.1,1.7,3.8,3.8,3.8h11.6
		c2.1,0,3.8-1.7,3.8-3.8v-71.4c0-2.1-1.7-3.8-3.8-3.8h-11.6c-2.1,0-3.8,1.7-3.8,3.8V475.8z"/>
	<path id="XMLID_115_" fill-rule="evenodd" clip-rule="evenodd" fill="#303436" d="M342.5,479.5h-5.8v-79h5.8c2.1,0,3.8,1.7,3.8,3.8
		v71.4C346.2,477.8,344.5,479.5,342.5,479.5"/>
	<path id="XMLID_114_" fill-rule="evenodd" clip-rule="evenodd" fill="#1C1F22" d="M346.2,467.3c0,2.1,1.7,3.8,3.8,3.8h11.6
		c2.1,0,3.8-1.7,3.8-3.8l0-54.4c0-2.1-1.7-3.8-3.8-3.8H350c-2.1,0-3.8,1.7-3.8,3.8V467.3z"/>
	<path id="XMLID_113_" fill-rule="evenodd" clip-rule="evenodd" fill="#303436" d="M361.6,471h-5.8v-62h5.8c2.1,0,3.8,1.7,3.8,3.8
		l0,18.7v17v18.7C365.3,469.3,363.6,471,361.6,471"/>
	<rect id="XMLID_112_" x="210.6" y="547.5" fill-rule="evenodd" clip-rule="evenodd" fill="#939598" width="138.4" height="19.5"/>
	<rect id="XMLID_111_" x="213.8" y="547.5" fill-rule="evenodd" clip-rule="evenodd" fill="#D4D6D1" width="135.2" height="9.8"/>
	<path id="XMLID_110_" fill-rule="evenodd" clip-rule="evenodd" fill="#1C1F22" d="M157.2,569.9c0,2.7-2.2,4.9-4.9,4.9
		c-2.7,0-4.9-2.2-4.9-4.9v-25.1c0-2.7,2.2-4.9,4.9-4.9c2.7,0,4.9,2.2,4.9,4.9V569.9z"/>
	<path id="XMLID_109_" fill-rule="evenodd" clip-rule="evenodd" fill="#1C1F22" d="M213.8,610.1c0,3.1-2.5,5.6-5.6,5.6h-17.1
		c-3.1,0-5.6-2.5-5.6-5.6V504.5c0-3.1,2.5-5.6,5.6-5.6h17.1c3.1,0,5.6,2.5,5.6,5.6V610.1z"/>
	<path id="XMLID_108_" fill-rule="evenodd" clip-rule="evenodd" fill="#303436" d="M199.6,615.7h-8.5c-3.1,0-5.6-2.5-5.6-5.6v-12.6
		V517v-12.6c0-3.1,2.5-5.6,5.6-5.6h8.5V615.7z"/>
	<path id="XMLID_107_" fill-rule="evenodd" clip-rule="evenodd" fill="#1C1F22" d="M185.5,597.6c0,3.1-2.5,5.6-5.6,5.6h-17.1
		c-3.1,0-5.6-2.5-5.6-5.6V517c0-3.1,2.5-5.6,5.6-5.6h17.1c3.1,0,5.6,2.5,5.6,5.6V597.6z"/>
	<path id="XMLID_106_" fill-rule="evenodd" clip-rule="evenodd" fill="#303436" d="M171.4,603.2h-8.5c-3.1,0-5.6-2.5-5.6-5.6V517
		c0-3.1,2.5-5.6,5.6-5.6h8.5V603.2z"/>
	<path id="XMLID_105_" fill-rule="evenodd" clip-rule="evenodd" fill="#1C1F22" d="M405.6,569.9c0,2.7,2.2,4.9,4.9,4.9
		c2.7,0,4.9-2.2,4.9-4.9l0-25.1c0-2.7-2.2-4.9-4.9-4.9c-2.7,0-4.9,2.2-4.9,4.9L405.6,569.9z"/>
	<path id="XMLID_104_" fill-rule="evenodd" clip-rule="evenodd" fill="#1C1F22" d="M349,610.1c0,3.1,2.5,5.6,5.6,5.6h17.1
		c3.1,0,5.6-2.5,5.6-5.6V504.5c0-3.1-2.5-5.6-5.6-5.6h-17.1c-3.1,0-5.6,2.5-5.6,5.6V610.1z"/>
	<path id="XMLID_103_" fill-rule="evenodd" clip-rule="evenodd" fill="#303436" d="M371.7,615.7h-8.5V498.9h8.5
		c3.1,0,5.6,2.5,5.6,5.6v105.7C377.3,613.2,374.8,615.7,371.7,615.7"/>
	<path id="XMLID_102_" fill-rule="evenodd" clip-rule="evenodd" fill="#1C1F22" d="M377.3,597.6c0,3.1,2.5,5.6,5.6,5.6H400
		c3.1,0,5.6-2.5,5.6-5.6l0-80.5c0-3.1-2.5-5.6-5.6-5.6h-17.1c-3.1,0-5.6,2.5-5.6,5.6V597.6z"/>
	<path id="XMLID_101_" fill-rule="evenodd" clip-rule="evenodd" fill="#303436" d="M400,603.2h-8.5v-91.7h8.5c3.1,0,5.6,2.5,5.6,5.6
		l0,27.7v25.1v27.7C405.6,600.7,403.1,603.2,400,603.2"/>
	<path id="XMLID_100_" fill-rule="evenodd" clip-rule="evenodd" fill="#939598" d="M279.2,355.7h3.6c1,0,1.7,0.8,1.7,1.7v17.4
		c0,1-0.8,1.7-1.7,1.7h-3.6c-1,0-1.7-0.8-1.7-1.7v-17.4C277.5,356.5,278.3,355.7,279.2,355.7"/>
	<path id="XMLID_99_" fill-rule="evenodd" clip-rule="evenodd" fill="#939598" d="M279.2,429.6h3.6c1,0,1.7,0.8,1.7,1.7v17.4
		c0,1-0.8,1.7-1.7,1.7h-3.6c-1,0-1.7-0.8-1.7-1.7v-17.4C277.5,430.4,278.3,429.6,279.2,429.6"/>
	<path id="XMLID_98_" fill-rule="evenodd" clip-rule="evenodd" fill="#939598" d="M279.1,544.3h4.5c1.2,0,2.2,1,2.2,2.2v21.7
		c0,1.2-1,2.2-2.2,2.2h-4.5c-1.2,0-2.2-1-2.2-2.2v-21.7C277,545.3,277.9,544.3,279.1,544.3"/>
	<rect id="XMLID_97_" x="1084.5" y="248.2" fill-rule="evenodd" clip-rule="evenodd" fill="#433F46" width="15.4" height="21.6"/>
	<rect id="XMLID_96_" x="771" y="227.5" fill-rule="evenodd" clip-rule="evenodd" fill="#433F46" width="435.5" height="22"/>
	<rect id="XMLID_95_" x="771" y="241.7" fill-rule="evenodd" clip-rule="evenodd" fill="#37343B" width="435.5" height="7.7"/>
	<rect id="XMLID_94_" x="751.2" y="211.2" fill-rule="evenodd" clip-rule="evenodd" fill="#433F46" width="31.3" height="628.1"/>
	<rect id="XMLID_93_" x="1195" y="211.2" fill-rule="evenodd" clip-rule="evenodd" fill="#433F46" width="31.3" height="628.1"/>
	<rect id="XMLID_92_" x="752.4" y="211.2" fill-rule="evenodd" clip-rule="evenodd" fill="#37343B" width="11.6" height="628.1"/>
	<rect id="XMLID_91_" x="1213.5" y="211.2" fill-rule="evenodd" clip-rule="evenodd" fill="#37343B" width="11.6" height="628.1"/>
	<path id="XMLID_90_" fill-rule="evenodd" clip-rule="evenodd" fill="#FFFFFF" d="M773.8,518.3c0,3.8-3.1,7-7,7c-3.8,0-7-3.1-7-7
		c0-3.8,3.1-7,7-7C770.7,511.3,773.8,514.4,773.8,518.3"/>
	<path id="XMLID_89_" fill-rule="evenodd" clip-rule="evenodd" fill="#FFFFFF" d="M773.8,469c0,3.8-3.1,7-7,7c-3.8,0-7-3.1-7-7
		c0-3.8,3.1-7,7-7C770.7,462.1,773.8,465.2,773.8,469"/>
	<path id="XMLID_88_" fill-rule="evenodd" clip-rule="evenodd" fill="#FFFFFF" d="M773.8,419.8c0,3.8-3.1,7-7,7c-3.8,0-7-3.1-7-7
		c0-3.8,3.1-7,7-7C770.7,412.8,773.8,415.9,773.8,419.8"/>
	<path id="XMLID_87_" fill-rule="evenodd" clip-rule="evenodd" fill="#FFFFFF" d="M773.8,370.5c0,3.8-3.1,7-7,7c-3.8,0-7-3.1-7-7
		c0-3.8,3.1-7,7-7C770.7,363.6,773.8,366.7,773.8,370.5"/>
	<path id="XMLID_86_" fill-rule="evenodd" clip-rule="evenodd" fill="#FFFFFF" d="M773.8,321.3c0,3.8-3.1,7-7,7c-3.8,0-7-3.1-7-7
		c0-3.8,3.1-7,7-7C770.7,314.3,773.8,317.4,773.8,321.3"/>
	<path id="XMLID_85_" fill-rule="evenodd" clip-rule="evenodd" fill="#FFFFFF" d="M1217.6,511.3c0,3.8-3.1,7-7,7c-3.8,0-7-3.1-7-7
		c0-3.8,3.1-7,7-7C1214.5,504.4,1217.6,507.5,1217.6,511.3"/>
	<path id="XMLID_84_" fill-rule="evenodd" clip-rule="evenodd" fill="#FFFFFF" d="M1217.6,462.1c0,3.8-3.1,7-7,7c-3.8,0-7-3.1-7-7
		c0-3.8,3.1-7,7-7C1214.5,455.1,1217.6,458.2,1217.6,462.1"/>
	<path id="XMLID_83_" fill-rule="evenodd" clip-rule="evenodd" fill="#FFFFFF" d="M1217.6,412.8c0,3.8-3.1,7-7,7c-3.8,0-7-3.1-7-7
		c0-3.8,3.1-7,7-7C1214.5,405.9,1217.6,409,1217.6,412.8"/>
	<path id="XMLID_82_" fill-rule="evenodd" clip-rule="evenodd" fill="#FFFFFF" d="M1217.6,363.6c0,3.8-3.1,7-7,7c-3.8,0-7-3.1-7-7
		c0-3.8,3.1-7,7-7C1214.5,356.6,1217.6,359.7,1217.6,363.6"/>
	<path id="XMLID_81_" fill-rule="evenodd" clip-rule="evenodd" fill="#FFFFFF" d="M1217.6,314.3c0,3.8-3.1,7-7,7c-3.8,0-7-3.1-7-7
		c0-3.8,3.1-7,7-7C1214.5,307.4,1217.6,310.5,1217.6,314.3"/>
	<path id="XMLID_80_" fill-rule="evenodd" clip-rule="evenodd" fill="#8B9296" d="M1210.6,712.6c15.6,0,26.1,7,26.1,23.2
		c0,16.2,0,103.5,0,103.5h-26.1h-26.1c0,0,0-87.3,0-103.5C1184.6,719.5,1195,712.6,1210.6,712.6"/>
	<path id="XMLID_79_" fill-rule="evenodd" clip-rule="evenodd" fill="#9EA4A8" d="M1206,712.6c12.9,0,21.4,7,21.4,23.2
		c0,16.2,0,103.5,0,103.5H1206h-21.4c0,0,0-87.3,0-103.5C1184.6,719.5,1193.1,712.6,1206,712.6"/>
	<rect id="XMLID_78_" x="1172.8" y="823.8" fill-rule="evenodd" clip-rule="evenodd" fill="#C7C9C9" width="75.7" height="15.4"/>
	<polygon id="XMLID_77_" fill-rule="evenodd" clip-rule="evenodd" fill="#37343B" points="1106.9,271 872.5,271 822.8,293.9 
		825,297.7 872.1,276.8 988.7,276.8 1105.4,276.8 1152.5,297.7 1155.1,293 	"/>
	<polygon id="XMLID_76_" fill-rule="evenodd" clip-rule="evenodd" fill="#414142" points="1106.9,272.2 1155.1,294.2 1159.5,286.5 
		1107.7,264.1 988.7,264.1 869.8,264.1 818,286.5 822.8,295.1 872.5,272.2 	"/>
	<path id="XMLID_75_" fill-rule="evenodd" clip-rule="evenodd" fill="#8B9296" d="M766.8,712.6c15.6,0,26.1,7,26.1,23.2
		c0,16.2,0,103.5,0,103.5h-26.1h-26.1c0,0,0-87.3,0-103.5C740.8,719.5,751.2,712.6,766.8,712.6"/>
	<path id="XMLID_74_" fill-rule="evenodd" clip-rule="evenodd" fill="#9EA4A8" d="M762.2,712.6c12.9,0,21.4,7,21.4,23.2
		c0,16.2,0,103.5,0,103.5h-21.4h-21.4c0,0,0-87.3,0-103.5C740.8,719.5,749.3,712.6,762.2,712.6"/>
	<rect id="XMLID_73_" x="729" y="823.8" fill-rule="evenodd" clip-rule="evenodd" fill="#C7C9C9" width="75.7" height="15.4"/>
	<rect id="XMLID_72_" x="878.3" y="248.2" fill-rule="evenodd" clip-rule="evenodd" fill="#433F46" width="15.4" height="21.6"/>
	<path id="XMLID_71_" fill-rule="evenodd" clip-rule="evenodd" fill="#C02E2E" d="M1160.5,711.9c-5.3-13.4-17.5-28-37.4-28v0
		c-19.9,0-32.1,14.6-37.4,28c-5.3,13.4-7.7,33.3-7.7,33.3l1.6,0h9.8c0,0-2.4-16.3,1.6-30.5c4.1-14.2,17.1-24.4,32.1-24.4
		c15,0,28,10.2,32.1,24.4c4.1,14.2,1.6,30.5,1.6,30.5l9.8,0h1.6C1168.2,745.2,1165.8,725.3,1160.5,711.9"/>
	<path id="XMLID_70_" fill-rule="evenodd" clip-rule="evenodd" fill="#EB5436" d="M1038.6,732.4h177.2c9.3,0,17,7.6,17,17v72.9
		c0,9.3-7.6,17-17,17h-177.2c-9.3,0-17-7.6-17-17v-72.9C1021.6,740.1,1029.2,732.4,1038.6,732.4"/>
	<path id="XMLID_69_" fill-rule="evenodd" clip-rule="evenodd" fill="#E03B27" d="M1168.6,711.9c-5.3-13.4-17.5-28-37.4-28l0,0
		c-19.9,0-32.1,14.6-37.4,28c-5.3,13.4-7.7,33.3-7.7,33.3l1.6,0h9.8c0,0-2.4-16.3,1.6-30.5c4.1-14.2,17.1-24.4,32.1-24.4
		c15,0,28,10.2,32.1,24.4c4.1,14.2,1.6,30.5,1.6,30.5l9.8,0h1.6C1176.3,745.2,1173.9,725.3,1168.6,711.9"/>
	<path id="XMLID_68_" fill-rule="evenodd" clip-rule="evenodd" fill="#C02E2E" d="M1152.2,815.3c0,0.7-0.6,1.3-1.3,1.3h-47.4
		c-0.7,0-1.3-0.6-1.3-1.3l0-14.4c0-0.7,0.6-1.3,1.3-1.3h47.4c0.7,0,1.3,0.6,1.3,1.3L1152.2,815.3z"/>
	<rect id="XMLID_67_" x="1021.6" y="767.6" fill-rule="evenodd" clip-rule="evenodd" fill="#C02E2E" width="211.1" height="2.5"/>
	<rect id="XMLID_66_" x="1045.4" y="732.4" fill-rule="evenodd" clip-rule="evenodd" fill="#C02E2E" width="13.7" height="106.9"/>
	<rect id="XMLID_65_" x="1195.2" y="732.4" fill-rule="evenodd" clip-rule="evenodd" fill="#C02E2E" width="13.7" height="106.9"/>
	<path id="XMLID_64_" fill-rule="evenodd" clip-rule="evenodd" fill="#F7BE40" d="M952.7,713.8c0,69.1-56,125.1-125.1,125.1
		s-125.1-56-125.1-125.1c0-69.1,56-125.1,125.1-125.1C896.6,588.7,952.7,644.7,952.7,713.8"/>
	<path id="XMLID_63_" fill-rule="evenodd" clip-rule="evenodd" fill="#F7EC3C" d="M952.7,713.8c0,18.7-4.1,36.5-11.5,52.5
		c-18.4,10.6-39.6,16.6-62.3,16.6c-69.1,0-125.1-56-125.1-125.1c0-18.7,4.1-36.5,11.5-52.5c18.4-10.6,39.6-16.6,62.3-16.6
		C896.6,588.7,952.7,644.7,952.7,713.8"/>
	<path id="XMLID_62_" fill-rule="evenodd" clip-rule="evenodd" fill="#F7EC3C" d="M821.8,544c-43.2,0-56.6,29.9-56.6,40.7v49.8h14.6
		v-49.8c0-3.3,8.1-25.2,42-25.2c33.9,0,41.9,21.9,42,25.2l0,49.8h14.6v-49.8C878.4,573.9,865,544,821.8,544"/>
	<path id="XMLID_61_" fill-rule="evenodd" clip-rule="evenodd" fill="#9AD7D8" d="M131.6,839.1h1136.8c5.4,0,9.8,4.4,9.8,9.8v12.1
		H122.3c-0.3,0-0.5-0.2-0.5-0.5v-11.6C121.8,843.5,126.2,839.1,131.6,839.1"/>
	<rect id="XMLID_60_" x="1018.7" y="746.7" fill-rule="evenodd" clip-rule="evenodd" fill="#504B4D" width="5.7" height="11.7"/>
	<path id="XMLID_59_" fill-rule="evenodd" clip-rule="evenodd" fill="#403E4B" d="M1030.6,758.3c0,3.1-2.5,5.6-5.6,5.6h-6.7
		c-3.1,0-5.6-2.5-5.6-5.6c0-3.1,2.5-5.6,5.6-5.6l6.7,0C1028,752.7,1030.6,755.2,1030.6,758.3"/>
	<path id="XMLID_58_" fill-rule="evenodd" clip-rule="evenodd" fill="#F7EC3C" d="M1033.8,797.5c0-2.5-0.4-8,1-9.2
		c1.3-1.1,3.6-2.9,3.6-6.1c0-3.2,0-12.2,0-16c0-3.8-2.1-7.8-7.6-7.8c-5.5,0-9.2,0-9.2,0s-3.6,0-9.2,0c-5.5,0-7.6,4-7.6,7.8
		c0,3.8,0,12.8,0,16c0,3.2,2.3,5,3.6,6.1c1.3,1.1,1,6.7,1,9.2c0,2.5-7.8,2.7-7.8,10.3c0,7.6,0,21.2,0,23.9c0,2.7,2.3,7.4,8.4,7.4
		c3.2,0,11.6,0,11.6,0s8.4,0,11.6,0c6.1,0,8.4-4.8,8.4-7.4c0-2.7,0-16.2,0-23.9C1041.6,800.1,1033.8,800,1033.8,797.5"/>
	<path id="XMLID_57_" fill-rule="evenodd" clip-rule="evenodd" fill="#F7BE40" d="M1033.8,797.5c0-2.5-0.4-8,1-9.2
		c1.3-1.1,3.6-2.9,3.6-6.1c0-3.2,0-12.2,0-16c0-3.8-2.1-7.8-7.6-7.8c-5.5,0-9.2,0-9.2,0v80.8h0h0h0h0h0.1h0.1h0.1h0.1h0.1h0.1h0.1
		h0.1h0.1h0.1h0.1h0.2h0.2h0.2h0.2h0.2h0.2h0.2h0.2h0.2h0.2h0.2h0.2h0.2h0.2h0.2h0.2h0.2h0.7h0.2h0.2h0.2h0.2h0.2h0.2h0.2h0.2h0.2h1
		h0.2h0.2h0.2h0.2h0.2h0.2h0.2h0.2h0.2h0.2h0.2h0.2h0.2h0.2h0.2h0.2c6.1,0,8.4-4.8,8.4-7.4c0-2.7,0-16.2,0-23.9
		C1041.6,800.1,1033.8,800,1033.8,797.5"/>
	<path id="XMLID_56_" fill-rule="evenodd" clip-rule="evenodd" fill="#403E4B" d="M1027.1,746.8c0,1.4-1.1,2.5-2.5,2.5h-6.2
		c-1.4,0-2.5-1.1-2.5-2.5c0-1.4,1.1-2.5,2.5-2.5h6.2C1026,744.4,1027.1,745.5,1027.1,746.8"/>
	<path id="XMLID_55_" fill-rule="evenodd" clip-rule="evenodd" fill="#504B4D" d="M1009.4,795.7h24.4c0-1.4,0-3,0.1-4.4l-24.5,0
		C1009.4,792.7,1009.4,794.3,1009.4,795.7"/>
	<path id="XMLID_54_" fill-rule="evenodd" clip-rule="evenodd" fill="#403E4B" d="M1021.6,795.7h12.2l0-0.2c0-1.3,0-2.9,0.1-4.2
		l-12.3,0V795.7z"/>
	<path id="XMLID_53_" fill-rule="evenodd" clip-rule="evenodd" fill="#504B4D" d="M1041.6,829c0-3.9,0-10.9,0-16.7h-40.1
		c0,5.8,0,12.7,0,16.7H1041.6z"/>
	<polygon id="XMLID_52_" fill-rule="evenodd" clip-rule="evenodd" fill="#403E4B" points="1041.6,829 1041.6,828.8 1041.6,828.8 
		1041.6,828.6 1041.6,828.5 1041.6,828.4 1041.6,828.2 1041.6,828.2 1041.6,828 1041.6,827.9 1041.6,827.8 1041.6,827.6 
		1041.6,827.5 1041.6,827.4 1041.6,827.2 1041.6,827.2 1041.6,826.9 1041.6,826.8 1041.6,826.7 1041.6,826.5 1041.6,826.5 
		1041.6,826.3 1041.6,826.1 1041.6,826 1041.6,825.8 1041.6,825.7 1041.6,825.5 1041.6,825.3 1041.6,825.3 1041.6,825 1041.6,824.9 
		1041.6,824.8 1041.6,824.5 1041.6,824.5 1041.6,824.3 1041.6,824.1 1041.6,824 1041.6,823.8 1041.6,823.7 1041.6,823.5 
		1041.6,823.3 1041.6,823.3 1041.6,823 1041.6,822.9 1041.6,822.7 1041.6,822.5 1041.6,822.4 1041.6,822.2 1041.6,822 1041.6,821.9 
		1041.6,821.6 1041.6,821.6 1041.6,821.4 1041.6,821.1 1041.6,821.1 1041.6,820.8 1041.6,820.7 1041.6,820.5 1041.6,820.3 
		1041.6,820.2 1041.6,820 1041.6,819.8 1041.6,819.7 1041.6,819.4 1041.6,819.4 1041.6,819.1 1041.6,818.9 1041.6,818.8 
		1041.6,818.5 1041.6,818.4 1041.6,818.2 1041.6,818 1041.6,818 1041.6,817.7 1041.6,817.5 1041.6,817.4 1041.6,817.1 1041.6,817.1 
		1041.6,816.8 1041.6,816.6 1041.6,816.5 1041.6,816.2 1041.6,816.2 1041.6,816 1041.6,815.7 1041.6,815.7 1041.6,815.4 
		1041.6,815.3 1041.6,815.1 1041.6,814.8 1041.6,814.8 1041.6,814.5 1041.6,814.4 1041.6,814.3 1041.6,814 1041.6,813.9 
		1041.6,813.7 1041.6,813.5 1041.6,813.4 1041.6,813.1 1041.6,813 1041.6,812.9 1041.6,812.6 1041.6,812.6 1041.6,812.3 
		1021.6,812.3 1021.6,829 	"/>
	<path id="XMLID_51_" fill-rule="evenodd" clip-rule="evenodd" fill="#D4D6D1" d="M465.7,562l34.5-34.5l34.5,34.5
		c0.9,0.9,2.5,0.9,3.4,0c0.9-0.9,0.9-2.5,0-3.4l-36.3-36.3c-0.5-0.5-1.1-0.7-1.7-0.7c-0.6,0-1.3,0.3-1.7,0.7l-36.3,36.3
		c-0.9,0.9-0.9,2.5,0,3.4C463.2,563,464.7,563,465.7,562"/>
	<path id="XMLID_50_" fill-rule="evenodd" clip-rule="evenodd" fill="#F7BE40" d="M536.1,557.3c5.5,0,10,4.5,10,10
		c0,5.5-4.5,10-10,10l-71.7,0c-5.5,0-10-4.5-10-10c0-5.5,4.5-10,10-10L536.1,557.3z"/>
	<path id="XMLID_49_" fill-rule="evenodd" clip-rule="evenodd" fill="#F7EC3C" d="M546,567.3c0,0.4,0,0.9-0.1,1.3
		c-0.6,4.9-4.8,8.7-9.9,8.7l-71.7,0c-5.5,0-10-4.5-10-10H546z"/>
	<path id="XMLID_48_" fill-rule="evenodd" clip-rule="evenodd" fill="#D4D6D1" d="M462.2,357.1l36.3,36.3c0.9,0.9,2.5,0.9,3.4,0
		l36.3-36.3c0.9-0.9,0.9-2.5,0-3.4c-0.9-0.9-2.5-0.9-3.4,0l-34.5,34.5l-34.5-34.5c-0.9-0.9-2.5-0.9-3.4,0
		C461.3,354.6,461.3,356.1,462.2,357.1"/>
	<path id="XMLID_47_" fill-rule="evenodd" clip-rule="evenodd" fill="#F7BE40" d="M536.1,358.3c5.5,0,10-4.5,10-10
		c0-5.5-4.5-10-10-10l-71.7,0c-5.5,0-10,4.5-10,10c0,5.5,4.5,10,10,10L536.1,358.3z"/>
	<path id="XMLID_46_" fill-rule="evenodd" clip-rule="evenodd" fill="#F7EC3C" d="M546,348.3h-91.6c0-5.5,4.5-10,10-10l71.7,0
		c5.1,0,9.3,3.8,9.9,8.7C546,347.5,546,347.9,546,348.3"/>
	<path id="XMLID_45_" fill-rule="evenodd" clip-rule="evenodd" fill="#D4D6D1" d="M502.7,523.7V391c0-1.6-1.1-2.8-2.4-2.8
		c-1.3,0-2.4,1.3-2.4,2.8v132.7c0,1.6,1.1,2.8,2.4,2.8C501.6,526.5,502.7,525.2,502.7,523.7"/>
	<path id="XMLID_44_" fill-rule="evenodd" clip-rule="evenodd" fill="#F6C354" d="M492.5,383.9H508c1.1,0,1.9,0.9,1.9,1.9v5.9
		c0,1.1-0.9,1.9-1.9,1.9h-15.5c-1.1,0-1.9-0.9-1.9-1.9v-5.9C490.5,384.7,491.4,383.9,492.5,383.9"/>
	<path id="XMLID_43_" fill-rule="evenodd" clip-rule="evenodd" fill="#F6C354" d="M492.5,520.7H508c1.1,0,1.9,0.9,1.9,1.9v5.9
		c0,1.1-0.9,1.9-1.9,1.9h-15.5c-1.1,0-1.9-0.9-1.9-1.9v-5.9C490.5,521.6,491.4,520.7,492.5,520.7"/>
	<path id="XMLID_42_" fill-rule="evenodd" clip-rule="evenodd" fill="#322C29" d="M611.3,562l34.5-34.5l34.5,34.5
		c0.9,0.9,2.5,0.9,3.4,0c0.9-0.9,0.9-2.5,0-3.4l-36.3-36.3c-0.5-0.5-1.1-0.7-1.7-0.7c-0.6,0-1.3,0.3-1.7,0.7l-36.3,36.3
		c-0.9,0.9-0.9,2.5,0,3.4C608.8,563,610.3,563,611.3,562"/>
	<path id="XMLID_41_" fill-rule="evenodd" clip-rule="evenodd" fill="#F7BE40" d="M681.7,557.3c5.5,0,10,4.5,10,10
		c0,5.5-4.5,10-10,10l-71.7,0c-5.5,0-10-4.5-10-10c0-5.5,4.5-10,10-10L681.7,557.3z"/>
	<path id="XMLID_40_" fill-rule="evenodd" clip-rule="evenodd" fill="#F7EC3C" d="M691.6,567.3c0,0.4,0,0.9-0.1,1.3
		c-0.6,4.9-4.8,8.7-9.9,8.7l-71.7,0c-5.5,0-10-4.5-10-10H691.6z"/>
	<path id="XMLID_39_" fill-rule="evenodd" clip-rule="evenodd" fill="#322C29" d="M607.8,357.1l36.3,36.3c0.9,0.9,2.5,0.9,3.4,0
		l36.3-36.3c0.9-0.9,0.9-2.5,0-3.4c-0.9-0.9-2.5-0.9-3.4,0l-34.5,34.5l-34.5-34.5c-0.9-0.9-2.5-0.9-3.4,0
		C606.9,354.6,606.9,356.1,607.8,357.1"/>
	<path id="XMLID_38_" fill-rule="evenodd" clip-rule="evenodd" fill="#F7BE40" d="M681.7,358.3c5.5,0,10-4.5,10-10
		c0-5.5-4.5-10-10-10l-71.7,0c-5.5,0-10,4.5-10,10c0,5.5,4.5,10,10,10L681.7,358.3z"/>
	<path id="XMLID_37_" fill-rule="evenodd" clip-rule="evenodd" fill="#F7EC3C" d="M691.6,348.3H600c0-5.5,4.5-10,10-10l71.7,0
		c5.1,0,9.3,3.8,9.9,8.7C691.6,347.5,691.6,347.9,691.6,348.3"/>
	<path id="XMLID_36_" fill-rule="evenodd" clip-rule="evenodd" fill="#322C29" d="M648.2,523.7V391c0-1.6-1.1-2.8-2.4-2.8
		c-1.3,0-2.4,1.3-2.4,2.8v132.7c0,1.6,1.1,2.8,2.4,2.8C647.2,526.5,648.2,525.2,648.2,523.7"/>
	<path id="XMLID_35_" fill-rule="evenodd" clip-rule="evenodd" fill="#F6C354" d="M638.1,383.9h15.5c1.1,0,1.9,0.9,1.9,1.9v5.9
		c0,1.1-0.9,1.9-1.9,1.9h-15.5c-1.1,0-1.9-0.9-1.9-1.9v-5.9C636.1,384.7,637,383.9,638.1,383.9"/>
	<path id="XMLID_34_" fill-rule="evenodd" clip-rule="evenodd" fill="#F6C354" d="M638.1,520.7h15.5c1.1,0,1.9,0.9,1.9,1.9v5.9
		c0,1.1-0.9,1.9-1.9,1.9h-15.5c-1.1,0-1.9-0.9-1.9-1.9v-5.9C636.1,521.6,637,520.7,638.1,520.7"/>
	<path id="XMLID_33_" fill-rule="evenodd" clip-rule="evenodd" fill="#25211D" d="M993.7,785c0,30.5-24.7,55.3-55.3,55.3
		c-30.5,0-55.3-24.8-55.3-55.3c0-30.5,24.8-55.3,55.3-55.3C969,729.7,993.7,754.4,993.7,785"/>
	<path id="XMLID_32_" fill-rule="evenodd" clip-rule="evenodd" fill="#322C29" d="M985.6,773.8c0-9.7-2.5-18.7-6.8-26.6
		c-10.1-10.8-24.4-17.5-40.3-17.5c-30.5,0-55.3,24.7-55.3,55.3c0,9.7,2.5,18.7,6.8,26.6c10.1,10.8,24.4,17.5,40.3,17.5
		C960.9,829.1,985.6,804.3,985.6,773.8"/>
	<path id="XMLID_31_" fill-rule="evenodd" clip-rule="evenodd" fill="#322C29" d="M938.4,687c-33.9,0-44.4,23.4-44.4,32V758h11.5
		v-39c0-2.6,6.3-19.8,32.9-19.8c26.6,0,32.9,17.2,32.9,19.8l0,39h11.5v-39.1C982.8,710.4,972.3,687,938.4,687"/>
	<path id="XMLID_30_" fill-rule="evenodd" clip-rule="evenodd" fill="#25211D" d="M912.8,794.7c0,25.1-20.4,45.5-45.5,45.5
		c-25.1,0-45.5-20.4-45.5-45.5c0-25.1,20.4-45.5,45.5-45.5C892.4,749.2,912.8,769.6,912.8,794.7"/>
	<path id="XMLID_29_" fill-rule="evenodd" clip-rule="evenodd" fill="#322C29" d="M906.1,785.5c0-8-2-15.4-5.6-21.9
		c-8.3-8.9-20.1-14.4-33.2-14.4c-25.1,0-45.5,20.4-45.5,45.5c0,8,2,15.4,5.6,21.9c8.3,8.9,20.1,14.4,33.2,14.4
		C885.7,831,906.1,810.7,906.1,785.5"/>
	<path id="XMLID_28_" fill-rule="evenodd" clip-rule="evenodd" fill="#322C29" d="M867.3,714c-27.9,0-36.5,19.3-36.5,26.3v32.2h9.4
		v-32.2c0-2.1,5.2-16.3,27.1-16.3c21.9,0,27.1,14.2,27.1,16.3l0,32.2h9.4v-32.2C903.8,733.3,895.1,714,867.3,714"/>
	<path id="XMLID_27_" fill-rule="evenodd" clip-rule="evenodd" fill="#939598" d="M729.2,762.9h-575c-5.4,0-9.9-4.2-9.9-9.4
		c0-5.1,4.4-9.4,9.9-9.4h575c5.4,0,9.9,4.2,9.9,9.4C739,758.7,734.6,762.9,729.2,762.9"/>
	<path id="XMLID_26_" fill-rule="evenodd" clip-rule="evenodd" fill="#D4D6D1" d="M151.5,744.2c-3.1,0-5.8,2-6.7,4.7
		c0.9,2.7,3.6,4.7,6.7,4.7h580.5c3.1,0,5.8-2,6.7-4.7c-0.9-2.7-3.6-4.7-6.7-4.7H151.5z"/>
	<path id="XMLID_25_" fill-rule="evenodd" clip-rule="evenodd" fill="#838284" d="M244.8,839.1H222c-7.3,0-13.4-6-13.4-13.4l0-78
		l0-73c0-3.7,3-6.8,6.8-6.8h36c3.7,0,6.8,3,6.8,6.8v34.5v74.4v42C258.2,833.1,252.1,839.1,244.8,839.1"/>
	<path id="XMLID_24_" fill-rule="evenodd" clip-rule="evenodd" fill="#757576" d="M244.8,839.1H222c-7.3,0-13.4-6-13.4-13.4l0-72.2
		h49.5v30.2v42C258.2,833.1,252.1,839.1,244.8,839.1"/>
	<path id="XMLID_23_" fill-rule="evenodd" clip-rule="evenodd" fill="#838284" d="M200.7,683.5h-30.1c-3.1,0-5.6,2.5-5.6,5.5l0,60.1
		l0,61.9c0,7,5.7,12.7,12.7,12.7h16.1c7,0,12.7-5.7,12.7-12.7l0-61.9l0-60.1C206.4,686,203.8,683.5,200.7,683.5"/>
	<path id="XMLID_22_" fill-rule="evenodd" clip-rule="evenodd" fill="#757576" d="M164.9,753.6l0,57.4c0,7,5.7,12.7,12.7,12.7h16.1
		c7,0,12.7-5.7,12.7-12.7l0-57.4H164.9z"/>
	<path id="XMLID_21_" fill-rule="evenodd" clip-rule="evenodd" fill="#838284" d="M643.1,839.1h22.8c7.3,0,13.4-6,13.4-13.4l0-78
		l0-73c0-3.7-3-6.8-6.8-6.8h-36c-3.7,0-6.8,3-6.8,6.8v34.5v74.4v42C629.8,833.1,635.8,839.1,643.1,839.1"/>
	<path id="XMLID_20_" fill-rule="evenodd" clip-rule="evenodd" fill="#757576" d="M643.1,839.1h22.8c7.3,0,13.4-6,13.4-13.4l0-72.2
		h-49.5v30.2v42C629.8,833.1,635.8,839.1,643.1,839.1"/>
	<path id="XMLID_19_" fill-rule="evenodd" clip-rule="evenodd" fill="#838284" d="M687.2,683.5h30.1c3.1,0,5.7,2.5,5.7,5.5l0,60.1
		l0,61.9c0,7-5.7,12.7-12.7,12.7h-16.1c-7,0-12.7-5.7-12.7-12.7l0-61.9l0-60.1C681.6,686,684.1,683.5,687.2,683.5"/>
	<path id="XMLID_18_" fill-rule="evenodd" clip-rule="evenodd" fill="#757576" d="M723,753.6l0,57.4c0,7-5.7,12.7-12.7,12.7h-16.1
		c-7,0-12.7-5.7-12.7-12.7l0-57.4H723z"/>
	<polygon id="XMLID_17_" fill-rule="evenodd" clip-rule="evenodd" fill="#D6478E" points="360.4,801.4 450.2,801.4 458.2,801.4 
		458.2,822.5 353.7,822.5 353.7,801.4 	"/>
	<rect id="XMLID_16_" x="353.7" y="816" fill-rule="evenodd" clip-rule="evenodd" fill="#9C528B" width="104.5" height="6.6"/>
	<path id="XMLID_15_" fill-rule="evenodd" clip-rule="evenodd" fill="#D6478E" d="M360.4,829.3c0,5-3.5,9.1-7.8,9.1h-22.3
		c-4.3,0-7.8-4.1-7.8-9.1l0-34.7c0-5,3.5-9.1,7.8-9.1h22.3c4.3,0,7.8,4.1,7.8,9.1V829.3z"/>
	<path id="XMLID_14_" fill-rule="evenodd" clip-rule="evenodd" fill="#9C528B" d="M360.4,829.3c0,5-3.5,9.1-7.8,9.1h-22.3
		c-4.3,0-7.8-4.1-7.8-9.1l0-3.6h38V829.3z"/>
	<path id="XMLID_13_" fill-rule="evenodd" clip-rule="evenodd" fill="#DA659A" d="M322.4,799.1l0-4.4c0-5,3.5-9.1,7.8-9.1h22.3
		c4.3,0,7.8,4.1,7.8,9.1v4.4H322.4z"/>
	<path id="XMLID_12_" fill-rule="evenodd" clip-rule="evenodd" fill="#D6478E" d="M477.4,829.3c0,5-3.5,9.1-7.8,9.1h-22.3
		c-4.3,0-7.8-4.1-7.8-9.1l0-34.7c0-5,3.5-9.1,7.8-9.1h22.3c4.3,0,7.8,4.1,7.8,9.1V829.3z"/>
	<path id="XMLID_11_" fill-rule="evenodd" clip-rule="evenodd" fill="#9C528B" d="M477.4,829.3c0,5-3.5,9.1-7.8,9.1h-22.3
		c-4.3,0-7.8-4.1-7.8-9.1l0-3.6h38V829.3z"/>
	<path id="XMLID_10_" fill-rule="evenodd" clip-rule="evenodd" fill="#DA659A" d="M439.5,799.1l0-4.4c0-5,3.5-9.1,7.8-9.1h22.3
		c4.3,0,7.8,4.1,7.8,9.1v4.4H439.5z"/>
	<polygon id="XMLID_9_" fill-rule="evenodd" clip-rule="evenodd" fill="#D6478E" points="502.4,801.1 502.4,711.2 502.4,703.2 
		523.5,703.2 523.5,807.8 502.4,807.8 	"/>
	<rect id="XMLID_8_" x="516.9" y="703.2" fill-rule="evenodd" clip-rule="evenodd" fill="#9C528B" width="6.6" height="104.5"/>
	<path id="XMLID_7_" fill-rule="evenodd" clip-rule="evenodd" fill="#D6478E" d="M530.3,801.1c5,0,9.1,3.5,9.1,7.8v22.3
		c0,4.3-4.1,7.8-9.1,7.8l-34.7,0c-5,0-9.1-3.5-9.1-7.8v-22.3c0-4.3,4.1-7.8,9.1-7.8H530.3z"/>
	<path id="XMLID_6_" fill-rule="evenodd" clip-rule="evenodd" fill="#9C528B" d="M530.3,801.1c5,0,9.1,3.5,9.1,7.8v22.3
		c0,4.3-4.1,7.8-9.1,7.8h-3.6v-38H530.3z"/>
	<path id="XMLID_5_" fill-rule="evenodd" clip-rule="evenodd" fill="#DA659A" d="M500,839l-4.4,0c-5,0-9.1-3.5-9.1-7.8v-22.3
		c0-4.3,4.1-7.8,9.1-7.8h4.4V839z"/>
	<path id="XMLID_4_" fill-rule="evenodd" clip-rule="evenodd" fill="#D6478E" d="M530.3,684c5,0,9.1,3.5,9.1,7.8v22.3
		c0,4.3-4.1,7.8-9.1,7.8l-34.7,0c-5,0-9.1-3.5-9.1-7.8v-22.3c0-4.3,4.1-7.8,9.1-7.8H530.3z"/>
	<path id="XMLID_3_" fill-rule="evenodd" clip-rule="evenodd" fill="#9C528B" d="M530.3,684c5,0,9.1,3.5,9.1,7.8v22.3
		c0,4.3-4.1,7.8-9.1,7.8l-3.6,0v-38H530.3z"/>
	<path id="XMLID_2_" fill-rule="evenodd" clip-rule="evenodd" fill="#DA659A" d="M500,722l-4.4,0c-5,0-9.1-3.5-9.1-7.8v-22.3
		c0-4.3,4.1-7.8,9.1-7.8h4.4V722z"/>
</g>
</svg>
